<?xml version="1.0" encoding="UTF-8"?>
<svg width="71px" height="54px" viewBox="0 0 71 54" version="1.1" xmlns="http://www.w3.org/2000/svg" xmlns:xlink="http://www.w3.org/1999/xlink">
    <!-- Generator: Sketch 47 (45396) - http://www.bohemiancoding.com/sketch -->
    <title>bungalow-detached</title>
    <desc>Created with Sketch.</desc>
    <defs></defs>
    <g id="Supply" stroke="none" stroke-width="1" fill="none" fill-rule="evenodd">
        <g id="bungalow-detached">
            <g id="Group-30">
                <polygon id="Stroke-202" stroke="#231F20" stroke-width="0.5" points="5.02161011 52.661375 66.0049896 52.661375 66.0049896 26.3838958 5.02161011 26.3838958"></polygon>
                <polygon id="Stroke-203" stroke="#231F20" stroke-width="0.5" points="11.7817971 45.8342292 37.8781994 45.8342292 37.8781994 29.9322917 11.7817971 29.9322917"></polygon>
                <polygon id="Stroke-204" stroke="#231F20" stroke-width="0.5" points="10.9334107 47.5398958 38.7265859 47.5398958 38.7265859 45.8342292 10.9334107 45.8342292"></polygon>
                <polygon id="Stroke-205" stroke="#231F20" stroke-width="0.5" points="13.6193698 35.1908333 19.146437 35.1908333 19.146437 31.6352708 13.6193698 31.6352708"></polygon>
                <polygon id="Stroke-206" stroke="#231F20" stroke-width="0.5" points="22.1059245 35.1908333 27.6329917 35.1908333 27.6329917 31.6352708 22.1059245 31.6352708"></polygon>
                <polygon id="Stroke-207" stroke="#231F20" stroke-width="0.5" points="13.6193698 44.039875 19.146437 44.039875 19.146437 36.9851875 13.6193698 36.9851875"></polygon>
                <polygon id="Stroke-208" stroke="#231F20" stroke-width="0.5" points="22.1059245 44.039875 27.6329917 44.039875 27.6329917 36.9851875 22.1059245 36.9851875"></polygon>
                <polygon id="Stroke-209" stroke="#231F20" stroke-width="0.5" points="30.5090755 35.1908333 36.0361427 35.1908333 36.0361427 31.6352708 30.5090755 31.6352708"></polygon>
                <polygon id="Stroke-210" stroke="#231F20" stroke-width="0.5" points="30.5090755 44.039875 36.0361427 44.039875 36.0361427 36.9851875 30.5090755 36.9851875"></polygon>
                <path d="M52.7436157,29.9324708 C50.0729024,29.9324708 47.8891593,32.1147208 47.8891593,34.7816167 L47.8891593,52.7762208 L57.5989688,52.7762208 L57.5989688,34.7816167 C57.5989688,32.1147208 55.4143289,29.9324708 52.7436157,29.9324708 Z" id="Stroke-211" stroke="#231F20" stroke-width="0.5"></path>
                <polygon id="Stroke-212" stroke="#231F20" stroke-width="0.5" points="49.5224377 47.3266875 56.044072 47.3266875 56.044072 34.7814375 49.5224377 34.7814375"></polygon>
                <path d="M47.8890696,49.2672417 L57.5988792,49.2672417" id="Stroke-213" stroke="#231F20" stroke-width="0.5"></path>
                <polygon id="Stroke-214" stroke="#231F20" stroke-width="0.5" points="70.0063961 26.384075 0.63600831 26.384075 8.64007687 13.516325 62.0023276 13.516325"></polygon>
                <polygon id="Stroke-215" stroke="#231F20" stroke-width="0.5" points="11.0015686 9.38904167 20.7920914 9.38904167 20.7920914 6.12820833 11.0015686 6.12820833"></polygon>
                <polygon id="Fill-216" fill="#FEFEFE" points="12.1118248 15.3929167 19.6818352 15.3929167 19.6818352 9.38904167 12.1118248 9.38904167"></polygon>
                <polygon id="Stroke-217" stroke="#231F20" stroke-width="0.5" points="12.1118248 15.3929167 19.6818352 15.3929167 19.6818352 9.38904167 12.1118248 9.38904167"></polygon>
                <polygon id="Stroke-218" stroke="#231F20" stroke-width="0.5" points="14.3018456 6.12820833 17.4900208 6.12820833 17.4900208 0.777395833 14.3018456 0.777395833"></polygon>
            </g>
        </g>
    </g>
</svg>