<?xml version="1.0" encoding="UTF-8"?>
<svg width="115px" height="54px" viewBox="0 0 115 54" version="1.1" xmlns="http://www.w3.org/2000/svg" xmlns:xlink="http://www.w3.org/1999/xlink">
    <!-- Generator: Sketch 47 (45396) - http://www.bohemiancoding.com/sketch -->
    <title>bungalow-attached</title>
    <desc>Created with Sketch.</desc>
    <defs></defs>
    <g id="Supply" stroke="none" stroke-width="1" fill="none" fill-rule="evenodd">
        <g id="bungalow-attached">
            <g id="Group-31" transform="translate(1.000000, 0.000000)">
                <polygon id="Stroke-219" stroke="#231F20" stroke-width="0.5" points="12.1033691 45.8342292 38.1997715 45.8342292 38.1997715 29.9322917 12.1033691 29.9322917"></polygon>
                <polygon id="Stroke-220" stroke="#231F20" stroke-width="0.5" points="11.2558795 47.5398958 39.0490547 47.5398958 39.0490547 45.8342292 11.2558795 45.8342292"></polygon>
                <polygon id="Stroke-221" stroke="#231F20" stroke-width="0.5" points="13.9409418 35.1908333 19.4689058 35.1908333 19.4689058 31.6352708 13.9409418 31.6352708"></polygon>
                <polygon id="Stroke-222" stroke="#231F20" stroke-width="0.5" points="22.4283934 35.1908333 27.9554605 35.1908333 27.9554605 31.6352708 22.4283934 31.6352708"></polygon>
                <polygon id="Stroke-223" stroke="#231F20" stroke-width="0.5" points="13.9409418 44.039875 19.4689058 44.039875 19.4689058 36.9851875 13.9409418 36.9851875"></polygon>
                <polygon id="Stroke-224" stroke="#231F20" stroke-width="0.5" points="22.4283934 44.039875 27.9554605 44.039875 27.9554605 36.9851875 22.4283934 36.9851875"></polygon>
                <polygon id="Stroke-225" stroke="#231F20" stroke-width="0.5" points="30.8315443 35.1908333 36.3586115 35.1908333 36.3586115 31.6352708 30.8315443 31.6352708"></polygon>
                <polygon id="Stroke-226" stroke="#231F20" stroke-width="0.5" points="30.8315443 44.039875 36.3586115 44.039875 36.3586115 36.9851875 30.8315443 36.9851875"></polygon>
                <path d="M49.2544439,29.9324708 C46.5837306,29.9324708 44.3999875,32.1147208 44.3999875,34.7816167 L44.3999875,52.7762208 L54.1097971,52.7762208 L54.1097971,34.7816167 C54.1097971,32.1147208 51.9251572,29.9324708 49.2544439,29.9324708 Z" id="Stroke-227" stroke="#231F20" stroke-width="0.5"></path>
                <polygon id="Stroke-228" stroke="#231F20" stroke-width="0.5" points="46.0334453 47.3266875 52.5550796 47.3266875 52.5550796 34.7814375 46.0334453 34.7814375"></polygon>
                <path d="M44.3998979,49.2672417 L54.1097074,49.2672417" id="Stroke-229" stroke="#231F20" stroke-width="0.5"></path>
                <polygon id="Stroke-230" stroke="#231F20" stroke-width="0.5" points="56.4307528 26.3832688 5.34282341 26.3832688 5.34282341 52.6616437 56.4307528 52.6616437 107.517785 52.6616437 107.517785 26.3832688"></polygon>
                <polygon id="Stroke-231" stroke="#231F20" stroke-width="0.5" points="74.6615547 45.8342292 100.757957 45.8342292 100.757957 29.9322917 74.6615547 29.9322917"></polygon>
                <polygon id="Stroke-232" stroke="#231F20" stroke-width="0.5" points="73.8122715 47.5398958 101.605447 47.5398958 101.605447 45.8342292 73.8122715 45.8342292"></polygon>
                <polygon id="Stroke-233" stroke="#231F20" stroke-width="0.5" points="93.3924204 35.1908333 98.9194875 35.1908333 98.9194875 31.6352708 93.3924204 31.6352708"></polygon>
                <polygon id="Stroke-234" stroke="#231F20" stroke-width="0.5" points="84.9067625 35.1908333 90.4338296 35.1908333 90.4338296 31.6352708 84.9067625 31.6352708"></polygon>
                <polygon id="Stroke-235" stroke="#231F20" stroke-width="0.5" points="93.3924204 44.039875 98.9194875 44.039875 98.9194875 36.9851875 93.3924204 36.9851875"></polygon>
                <polygon id="Stroke-236" stroke="#231F20" stroke-width="0.5" points="84.9067625 44.039875 90.4338296 44.039875 90.4338296 36.9851875 84.9067625 36.9851875"></polygon>
                <polygon id="Stroke-237" stroke="#231F20" stroke-width="0.5" points="76.5027147 35.1908333 82.0297819 35.1908333 82.0297819 31.6352708 76.5027147 31.6352708"></polygon>
                <polygon id="Stroke-238" stroke="#231F20" stroke-width="0.5" points="76.5027147 44.039875 82.0297819 44.039875 82.0297819 36.9851875 76.5027147 36.9851875"></polygon>
                <path d="M63.6061648,29.9324708 C66.2768781,29.9324708 68.461518,32.1147208 68.461518,34.7816167 L68.461518,52.7762208 L58.7517084,52.7762208 L58.7517084,34.7816167 C58.7517084,32.1147208 60.9354515,29.9324708 63.6061648,29.9324708 Z" id="Stroke-239" stroke="#231F20" stroke-width="0.5"></path>
                <polygon id="Stroke-240" stroke="#231F20" stroke-width="0.5" points="60.3062465 47.3266875 66.8269841 47.3266875 66.8269841 34.7814375 60.3062465 34.7814375"></polygon>
                <path d="M68.461518,49.2672417 L58.7517084,49.2672417" id="Stroke-241" stroke="#231F20" stroke-width="0.5"></path>
                <polygon id="Stroke-242" stroke="#231F20" stroke-width="0.5" points="103.89887 13.5161458 56.4304837 13.5161458 8.96299411 13.5161458 0.958925554 26.383 56.4304837 26.383 111.902939 26.383"></polygon>
                <polygon id="Stroke-243" stroke="#231F20" stroke-width="0.5" points="91.7467659 9.38904167 101.537289 9.38904167 101.537289 6.12820833 91.7467659 6.12820833"></polygon>
                <polygon id="Fill-244" fill="#FEFEFE" points="92.857919 15.3929167 100.427033 15.3929167 100.427033 9.38904167 92.857919 9.38904167"></polygon>
                <polygon id="Stroke-245" stroke="#231F20" stroke-width="0.5" points="92.857919 15.3929167 100.427033 15.3929167 100.427033 9.38904167 92.857919 9.38904167"></polygon>
                <polygon id="Stroke-246" stroke="#231F20" stroke-width="0.5" points="95.0488366 6.12820833 98.236115 6.12820833 98.236115 0.777395833 95.0488366 0.777395833"></polygon>
                <polygon id="Stroke-247" stroke="#231F20" stroke-width="0.5" points="11.3240374 9.38904167 21.1145602 9.38904167 21.1145602 6.12820833 11.3240374 6.12820833"></polygon>
                <polygon id="Fill-248" fill="#FEFEFE" points="12.4333968 15.3929167 20.0034072 15.3929167 20.0034072 9.38904167 12.4333968 9.38904167"></polygon>
                <polygon id="Stroke-249" stroke="#231F20" stroke-width="0.5" points="12.4333968 15.3929167 20.0034072 15.3929167 20.0034072 9.38904167 12.4333968 9.38904167"></polygon>
                <polygon id="Stroke-250" stroke="#231F20" stroke-width="0.5" points="14.6243144 6.12820833 17.8124896 6.12820833 17.8124896 0.777395833 14.6243144 0.777395833"></polygon>
            </g>
        </g>
    </g>
</svg>