<?xml version="1.0" encoding="UTF-8"?>
<svg width="58px" height="77px" viewBox="0 0 58 77" version="1.1" xmlns="http://www.w3.org/2000/svg" xmlns:xlink="http://www.w3.org/1999/xlink">
    <!-- Generator: Sketch 47 (45396) - http://www.bohemiancoding.com/sketch -->
    <title>detached-house</title>
    <desc>Created with Sketch.</desc>
    <defs></defs>
    <g id="Supply" stroke="none" stroke-width="1" fill="none" fill-rule="evenodd">
        <g id="detached-house">
            <g id="Group-26" transform="translate(0.000000, 1.000000)">
                <polygon id="Stroke-1" stroke="#231F20" stroke-width="0.5" points="6.419625 74.7763158 50.950875 74.7763158 50.950875 20.4953158 6.419625 20.4953158"></polygon>
                <polygon id="Stroke-3" stroke="#231F20" stroke-width="0.5" points="56.9702531 20.4954947 0.400425 20.4954947 8.34925312 7.64349474 49.021425 7.64349474"></polygon>
                <polygon id="Stroke-5" stroke="#231F20" stroke-width="0.5" points="11 3 21 3 21 0 11 0"></polygon>
                <polygon id="Fill-6" fill="#FEFEFE" points="12 10 20 10 20 4 12 4"></polygon>
                <polygon id="Stroke-7" stroke="#231F20" stroke-width="0.5" points="12 10 20 10 20 4 12 4"></polygon>
                <polygon id="Stroke-8" stroke="#231F20" stroke-width="0.5" points="11 38 23 38 23 26 11 26"></polygon>
                <polygon id="Stroke-9" stroke="#231F20" stroke-width="0.5" points="10 40 24 40 24 38 10 38"></polygon>
                <polygon id="Stroke-10" stroke="#231F20" stroke-width="0.5" points="13 32 17 32 17 28 13 28"></polygon>
                <polygon id="Stroke-11" stroke="#231F20" stroke-width="0.5" points="18 32 22 32 22 28 18 28"></polygon>
                <polygon id="Stroke-12" stroke="#231F20" stroke-width="0.5" points="13 37 17 37 17 33 13 33"></polygon>
                <polygon id="Stroke-13" stroke="#231F20" stroke-width="0.5" points="18 37 22 37 22 33 18 33"></polygon>
                <polygon id="Stroke-14" stroke="#231F20" stroke-width="0.5" points="11 65 30 65 30 53 11 53"></polygon>
                <polygon id="Stroke-15" stroke="#231F20" stroke-width="0.5" points="10 67 31 67 31 65 10 65"></polygon>
                <polygon id="Stroke-16" stroke="#231F20" stroke-width="0.5" points="13 58 20 58 20 55 13 55"></polygon>
                <polygon id="Stroke-17" stroke="#231F20" stroke-width="0.5" points="22 64 28 64 28 55 22 55"></polygon>
                <polygon id="Stroke-18" stroke="#231F20" stroke-width="0.5" points="13 63 20 63 20 59 13 59"></polygon>
                <polygon id="Stroke-19" stroke="#231F20" stroke-width="0.5" points="34 38 46 38 46 26 34 26"></polygon>
                <polygon id="Stroke-20" stroke="#231F20" stroke-width="0.5" points="33 40 47 40 47 38 33 38"></polygon>
                <polygon id="Stroke-21" stroke="#231F20" stroke-width="0.5" points="35 32 39 32 39 28 35 28"></polygon>
                <polygon id="Stroke-22" stroke="#231F20" stroke-width="0.5" points="41 32 45 32 45 28 41 28"></polygon>
                <polygon id="Stroke-23" stroke="#231F20" stroke-width="0.5" points="35 37 39 37 39 33 35 33"></polygon>
                <polygon id="Stroke-24" stroke="#231F20" stroke-width="0.5" points="41 37 45 37 45 33 41 33"></polygon>
                <path d="M40.9244214,51.9324708 C38.2537081,51.9324708 36.0690682,54.1147208 36.0690682,56.7816167 L36.0690682,74.7762208 L45.7797746,74.7762208 L45.7797746,56.7816167 C45.7797746,54.1147208 43.5951347,51.9324708 40.9244214,51.9324708 Z" id="Stroke-25" stroke="#231F20" stroke-width="0.5"></path>
                <polygon id="Stroke-27" stroke="#231F20" stroke-width="0.5" points="37.7038712 69.3266875 44.2255055 69.3266875 44.2255055 56.7814375 37.7038712 56.7814375"></polygon>
                <path d="M36.0694269,71.2672417 L45.7801333,71.2672417" id="Stroke-29" stroke="#231F20" stroke-width="0.5"></path>
            </g>
        </g>
    </g>
</svg>