<?xml version="1.0" encoding="UTF-8"?>
<svg width="98px" height="96px" viewBox="0 0 98 96" version="1.1" xmlns="http://www.w3.org/2000/svg" xmlns:xlink="http://www.w3.org/1999/xlink">
    <!-- Generator: Sketch 47 (45396) - http://www.bohemiancoding.com/sketch -->
    <title>end-terrace</title>
    <desc>Created with Sketch.</desc>
    <defs></defs>
    <g id="Supply" stroke="none" stroke-width="1" fill="none" fill-rule="evenodd">
        <g id="end-terrace">
            <g id="Group-24" transform="translate(1.000000, 0.000000)">
                <polygon id="Stroke-78" stroke="#231F20" stroke-width="0.5" points="10.5007341 58.0889792 22.9162327 58.0889792 22.9162327 45.6861667 10.5007341 45.6861667"></polygon>
                <polygon id="Stroke-79" stroke="#231F20" stroke-width="0.5" points="9.65234765 59.7946458 23.7646191 59.7946458 23.7646191 58.0889792 9.65234765 58.0889792"></polygon>
                <polygon id="Stroke-80" stroke="#231F20" stroke-width="0.5" points="12.3365132 50.9456042 15.8959695 50.9456042 15.8959695 47.3900417 12.3365132 47.3900417"></polygon>
                <polygon id="Stroke-81" stroke="#231F20" stroke-width="0.5" points="17.8017001 50.9456042 21.3611565 50.9456042 21.3611565 47.3900417 17.8017001 47.3900417"></polygon>
                <polygon id="Stroke-82" stroke="#231F20" stroke-width="0.5" points="12.3365132 56.294625 15.8959695 56.294625 15.8959695 52.7390625 12.3365132 52.7390625"></polygon>
                <polygon id="Stroke-83" stroke="#231F20" stroke-width="0.5" points="17.8017001 56.294625 21.3611565 56.294625 21.3611565 52.7390625 17.8017001 52.7390625"></polygon>
                <polygon id="Stroke-84" stroke="#231F20" stroke-width="0.5" points="10.4998373 84.9639792 29.4253116 84.9639792 29.4253116 72.5611667 10.4998373 72.5611667"></polygon>
                <polygon id="Stroke-85" stroke="#231F20" stroke-width="0.5" points="9.65234765 86.6696458 30.2736981 86.6696458 30.2736981 84.9639792 9.65234765 84.9639792"></polygon>
                <polygon id="Stroke-86" stroke="#231F20" stroke-width="0.5" points="12.33741 76.9229792 19.5818767 76.9229792 19.5818767 74.2650417 12.33741 74.2650417"></polygon>
                <polygon id="Stroke-87" stroke="#231F20" stroke-width="0.5" points="21.3611565 83.169625 27.6514127 83.169625 27.6514127 74.2659375 21.3611565 74.2659375"></polygon>
                <polygon id="Stroke-88" stroke="#231F20" stroke-width="0.5" points="12.33741 83.169625 19.5818767 83.169625 19.5818767 78.7173333 12.33741 78.7173333"></polygon>
                <polygon id="Stroke-89" stroke="#231F20" stroke-width="0.5" points="33.0340928 58.0889792 45.4495914 58.0889792 45.4495914 45.6861667 33.0340928 45.6861667"></polygon>
                <polygon id="Stroke-90" stroke="#231F20" stroke-width="0.5" points="32.1848096 59.7946458 46.2979778 59.7946458 46.2979778 58.0889792 32.1848096 58.0889792"></polygon>
                <polygon id="Stroke-91" stroke="#231F20" stroke-width="0.5" points="34.8707687 50.9456042 38.4302251 50.9456042 38.4302251 47.3900417 34.8707687 47.3900417"></polygon>
                <polygon id="Stroke-92" stroke="#231F20" stroke-width="0.5" points="40.3359557 50.9456042 43.895412 50.9456042 43.895412 47.3900417 40.3359557 47.3900417"></polygon>
                <polygon id="Stroke-93" stroke="#231F20" stroke-width="0.5" points="34.8707687 56.294625 38.4302251 56.294625 38.4302251 52.7390625 34.8707687 52.7390625"></polygon>
                <polygon id="Stroke-94" stroke="#231F20" stroke-width="0.5" points="40.3359557 56.294625 43.895412 56.294625 43.895412 52.7390625 40.3359557 52.7390625"></polygon>
                <path d="M40.594597,71.9324708 C37.9238837,71.9324708 35.7392438,74.1147208 35.7392438,76.7816167 L35.7392438,94.7762208 L45.4499501,94.7762208 L45.4499501,76.7816167 C45.4499501,74.1147208 43.2653102,71.9324708 40.594597,71.9324708 Z" id="Stroke-95" stroke="#231F20" stroke-width="0.5"></path>
                <polygon id="Stroke-96" stroke="#231F20" stroke-width="0.5" points="37.3737777 89.3266875 43.895412 89.3266875 43.895412 76.7814375 37.3737777 76.7814375"></polygon>
                <path d="M35.7391541,91.2672417 L45.4498605,91.2672417" id="Stroke-97" stroke="#231F20" stroke-width="0.5"></path>
                <polygon id="Stroke-98" stroke="#231F20" stroke-width="0.5" points="6.13414474 94.7760417 95.8155852 94.7760417 95.8155852 40.4285208 6.13414474 40.4285208"></polygon>
                <polygon id="Stroke-99" stroke="#231F20" stroke-width="0.5" points="95.8156749 27.5606813 8.07763123 27.5606813 0.0735626731 40.4284313 95.8156749 40.4284313"></polygon>
                <polygon id="Stroke-100" stroke="#231F20" stroke-width="0.5" points="54.9396814 23.4336667 64.7302043 23.4336667 64.7302043 20.1728333 54.9396814 20.1728333"></polygon>
                <polygon id="Fill-101" fill="#FEFEFE" points="56.0490409 29.4384375 63.6190512 29.4384375 63.6190512 23.4345625 56.0490409 23.4345625"></polygon>
                <polygon id="Stroke-102" stroke="#231F20" stroke-width="0.5" points="56.0490409 29.4384375 63.6190512 29.4384375 63.6190512 23.4345625 56.0490409 23.4345625"></polygon>
                <polygon id="Stroke-103" stroke="#231F20" stroke-width="0.5" points="79.034394 58.0889792 91.4498927 58.0889792 91.4498927 45.6861667 79.034394 45.6861667"></polygon>
                <polygon id="Stroke-104" stroke="#231F20" stroke-width="0.5" points="78.1851108 59.7946458 92.2982791 59.7946458 92.2982791 58.0889792 78.1851108 58.0889792"></polygon>
                <polygon id="Stroke-105" stroke="#231F20" stroke-width="0.5" points="86.0537604 50.9456042 89.6132168 50.9456042 89.6132168 47.3900417 86.0537604 47.3900417"></polygon>
                <polygon id="Stroke-106" stroke="#231F20" stroke-width="0.5" points="80.5885734 50.9456042 84.1480298 50.9456042 84.1480298 47.3900417 80.5885734 47.3900417"></polygon>
                <polygon id="Stroke-107" stroke="#231F20" stroke-width="0.5" points="86.0537604 56.294625 89.6132168 56.294625 89.6132168 52.7390625 86.0537604 52.7390625"></polygon>
                <polygon id="Stroke-108" stroke="#231F20" stroke-width="0.5" points="80.5885734 56.294625 84.1480298 56.294625 84.1480298 52.7390625 80.5885734 52.7390625"></polygon>
                <polygon id="Stroke-109" stroke="#231F20" stroke-width="0.5" points="56.4517105 84.9639792 75.3771849 84.9639792 75.3771849 72.5611667 56.4517105 72.5611667"></polygon>
                <polygon id="Stroke-110" stroke="#231F20" stroke-width="0.5" points="55.6033241 86.6696458 76.2255713 86.6696458 76.2255713 84.9639792 55.6033241 84.9639792"></polygon>
                <polygon id="Stroke-111" stroke="#231F20" stroke-width="0.5" points="58.2892832 76.9229792 65.53375 76.9229792 65.53375 74.2650417 58.2892832 74.2650417"></polygon>
                <polygon id="Stroke-112" stroke="#231F20" stroke-width="0.5" points="67.3139266 83.169625 73.6041828 83.169625 73.6041828 74.2659375 67.3139266 74.2659375"></polygon>
                <polygon id="Stroke-113" stroke="#231F20" stroke-width="0.5" points="58.2892832 83.169625 65.53375 83.169625 65.53375 78.7173333 58.2892832 78.7173333"></polygon>
                <polygon id="Stroke-114" stroke="#231F20" stroke-width="0.5" points="56.5001385 58.0889792 68.9156371 58.0889792 68.9156371 45.6861667 56.5001385 45.6861667"></polygon>
                <polygon id="Stroke-115" stroke="#231F20" stroke-width="0.5" points="55.6517521 59.7946458 69.7640235 59.7946458 69.7640235 58.0889792 55.6517521 58.0889792"></polygon>
                <polygon id="Stroke-116" stroke="#231F20" stroke-width="0.5" points="63.5195048 50.9456042 67.0789612 50.9456042 67.0789612 47.3900417 63.5195048 47.3900417"></polygon>
                <polygon id="Stroke-117" stroke="#231F20" stroke-width="0.5" points="58.0552147 50.9456042 61.6146711 50.9456042 61.6146711 47.3900417 58.0552147 47.3900417"></polygon>
                <polygon id="Stroke-118" stroke="#231F20" stroke-width="0.5" points="63.5195048 56.294625 67.0789612 56.294625 67.0789612 52.7390625 63.5195048 52.7390625"></polygon>
                <polygon id="Stroke-119" stroke="#231F20" stroke-width="0.5" points="58.0552147 56.294625 61.6146711 56.294625 61.6146711 52.7390625 58.0552147 52.7390625"></polygon>
                <path d="M86.5467393,71.9324708 C83.876026,71.9324708 81.6913861,74.1147208 81.6913861,76.7816167 L81.6913861,94.7762208 L91.4020925,94.7762208 L91.4020925,76.7816167 C91.4020925,74.1147208 89.2174526,71.9324708 86.5467393,71.9324708 Z" id="Stroke-120" stroke="#231F20" stroke-width="0.5"></path>
                <polygon id="Stroke-121" stroke="#231F20" stroke-width="0.5" points="83.325651 89.3266875 89.8472853 89.3266875 89.8472853 76.7814375 83.325651 76.7814375"></polygon>
                <path d="M81.6912964,91.2672417 L91.4020028,91.2672417" id="Stroke-122" stroke="#231F20" stroke-width="0.5"></path>
                <polygon id="Stroke-123" stroke="#231F20" stroke-width="0.5" points="10.5007341 23.4336667 20.2912569 23.4336667 20.2912569 20.1728333 10.5007341 20.1728333"></polygon>
                <polygon id="Fill-124" fill="#FEFEFE" points="11.6100935 29.4384375 19.1801039 29.4384375 19.1801039 23.4345625 11.6100935 23.4345625"></polygon>
                <polygon id="Stroke-125" stroke="#231F20" stroke-width="0.5" points="11.6100935 29.4384375 19.1801039 29.4384375 19.1801039 23.4345625 11.6100935 23.4345625"></polygon>
                <path d="M50.9749546,27.5606813 L50.9749546,94.7759521" id="Stroke-126" stroke="#231F20" stroke-width="0.5"></path>
                <polygon id="Triangle" fill="#000000" transform="translate(27.500000, 5.500000) scale(1, -1) translate(-27.500000, -5.500000) " points="27.5 0 33 11 22 11"></polygon>
            </g>
        </g>
    </g>
</svg>