<?xml version="1.0" encoding="UTF-8"?>
<svg width="103px" height="130px" viewBox="0 0 103 130" version="1.1" xmlns="http://www.w3.org/2000/svg" xmlns:xlink="http://www.w3.org/1999/xlink">
    <!-- Generator: Sketch 47 (45396) - http://www.bohemiancoding.com/sketch -->
    <title>ground-floor-flat</title>
    <desc>Created with Sketch.</desc>
    <defs></defs>
    <g id="Supply" stroke="none" stroke-width="1" fill="none" fill-rule="evenodd">
        <g id="ground-floor-flat">
            <g id="Group-27">
                <polygon id="Stroke-391" stroke="#231F20" stroke-width="0.5" points="19.3641482 127.374958 102.169713 127.374958 102.169713 21.9649375 19.3641482 21.9649375"></polygon>
                <polygon id="Stroke-392" stroke="#231F20" stroke-width="0.5" points="19.3641482 59.5451458 45.3403774 59.5451458 45.3403774 57.9774375 19.3641482 57.9774375"></polygon>
                <polygon id="Stroke-393" stroke="#231F20" stroke-width="0.5" points="19.3641482 59.5451458 102.169713 59.5451458 102.169713 57.9774375 19.3641482 57.9774375"></polygon>
                <polygon id="Stroke-394" stroke="#231F20" stroke-width="0.5" points="19.3641482 61.1128542 45.3403774 61.1128542 45.3403774 59.5451458 19.3641482 59.5451458"></polygon>
                <polygon id="Stroke-395" stroke="#231F20" stroke-width="0.5" points="50.6405506 59.5451458 72.208937 59.5451458 72.208937 57.9774375 50.6405506 57.9774375"></polygon>
                <polygon id="Stroke-396" stroke="#231F20" stroke-width="0.5" points="19.3641482 84.7655417 45.3403774 84.7655417 45.3403774 82.3064792 19.3641482 82.3064792"></polygon>
                <polygon id="Stroke-397" stroke="#231F20" stroke-width="0.5" points="19.3641482 84.7655417 102.169713 84.7655417 102.169713 82.3064792 19.3641482 82.3064792"></polygon>
                <polygon id="Stroke-398" stroke="#231F20" stroke-width="0.5" points="51.5705471 84.7655417 71.4206371 84.7655417 71.4206371 82.3064792 51.5705471 82.3064792"></polygon>
                <polygon id="Stroke-399" stroke="#231F20" stroke-width="0.5" points="21.104865 82.3064792 43.5996607 82.3064792 43.5996607 61.1128542 21.104865 61.1128542"></polygon>
                <polygon id="Stroke-400" stroke="#231F20" stroke-width="0.5" points="52.5265512 82.3064792 70.4628393 82.3064792 70.4628393 59.5451458 52.5265512 59.5451458"></polygon>
                <polygon id="Stroke-401" stroke="#231F20" stroke-width="0.5" points="22.9316759 79.2794583 26.463331 79.2794583 26.463331 64.1067292 22.9316759 64.1067292"></polygon>
                <polygon id="Stroke-402" stroke="#231F20" stroke-width="0.5" points="38.2331233 79.2794583 41.7647784 79.2794583 41.7647784 64.1067292 38.2331233 64.1067292"></polygon>
                <polygon id="Stroke-403" stroke="#231F20" stroke-width="0.5" points="29.2649792 79.2794583 35.4323719 79.2794583 35.4323719 64.1067292 29.2649792 64.1067292"></polygon>
                <polygon id="Stroke-404" stroke="#231F20" stroke-width="0.5" points="54.3452909 79.2794583 60.5126835 79.2794583 60.5126835 62.3482083 54.3452909 62.3482083"></polygon>
                <polygon id="Stroke-405" stroke="#231F20" stroke-width="0.5" points="62.4462154 79.2794583 68.613608 79.2794583 68.613608 62.3482083 62.4462154 62.3482083"></polygon>
                <polygon id="Stroke-406" stroke="#231F20" stroke-width="0.5" points="77.6570845 59.5451458 99.2254709 59.5451458 99.2254709 57.9774375 77.6570845 57.9774375"></polygon>
                <polygon id="Stroke-407" stroke="#231F20" stroke-width="0.5" points="78.587081 84.7655417 98.4371711 84.7655417 98.4371711 82.3064792 78.587081 82.3064792"></polygon>
                <polygon id="Stroke-408" stroke="#231F20" stroke-width="0.5" points="79.5430852 82.3064792 97.4793733 82.3064792 97.4793733 59.5451458 79.5430852 59.5451458"></polygon>
                <polygon id="Stroke-409" stroke="#231F20" stroke-width="0.5" points="81.3618248 79.2794583 87.5292175 79.2794583 87.5292175 62.3482083 81.3618248 62.3482083"></polygon>
                <polygon id="Stroke-410" stroke="#231F20" stroke-width="0.5" points="89.4627493 79.2794583 95.630142 79.2794583 95.630142 62.3482083 89.4627493 62.3482083"></polygon>
                <polygon id="Stroke-411" stroke="#231F20" stroke-width="0.5" points="19.3641482 95.1545208 45.3403774 95.1545208 45.3403774 93.5868125 19.3641482 93.5868125"></polygon>
                <polygon id="Stroke-412" stroke="#231F20" stroke-width="0.5" points="19.3641482 95.1545208 102.169713 95.1545208 102.169713 93.5868125 19.3641482 93.5868125"></polygon>
                <polygon id="Stroke-413" stroke="#231F20" stroke-width="0.5" points="19.3641482 96.7222292 45.3403774 96.7222292 45.3403774 95.1545208 19.3641482 95.1545208"></polygon>
                <polygon id="Stroke-414" stroke="#231F20" stroke-width="0.5" points="50.6405506 95.1545208 72.208937 95.1545208 72.208937 93.5868125 50.6405506 93.5868125"></polygon>
                <polygon id="Stroke-415" stroke="#231F20" stroke-width="0.5" points="19.3641482 120.374917 45.3403774 120.374917 45.3403774 117.915854 19.3641482 117.915854"></polygon>
                <polygon id="Stroke-416" stroke="#231F20" stroke-width="0.5" points="51.5705471 120.374917 71.4206371 120.374917 71.4206371 117.915854 51.5705471 117.915854"></polygon>
                <polygon id="Stroke-417" stroke="#231F20" stroke-width="0.5" points="21.104865 117.915854 43.5996607 117.915854 43.5996607 96.7222292 21.104865 96.7222292"></polygon>
                <polygon id="Stroke-418" stroke="#231F20" stroke-width="0.5" points="52.5265512 117.915854 70.4628393 117.915854 70.4628393 95.1545208 52.5265512 95.1545208"></polygon>
                <polygon id="Stroke-419" stroke="#231F20" stroke-width="0.5" points="22.9316759 114.888833 26.463331 114.888833 26.463331 99.7161042 22.9316759 99.7161042"></polygon>
                <polygon id="Stroke-420" stroke="#231F20" stroke-width="0.5" points="38.2331233 114.888833 41.7647784 114.888833 41.7647784 99.7161042 38.2331233 99.7161042"></polygon>
                <polygon id="Stroke-421" stroke="#231F20" stroke-width="0.5" points="29.2649792 114.888833 35.4323719 114.888833 35.4323719 99.7161042 29.2649792 99.7161042"></polygon>
                <polygon id="Stroke-422" stroke="#231F20" stroke-width="0.5" points="54.3452909 114.888833 60.5126835 114.888833 60.5126835 97.9575833 54.3452909 97.9575833"></polygon>
                <polygon id="Stroke-423" stroke="#231F20" stroke-width="0.5" points="62.4462154 114.888833 68.613608 114.888833 68.613608 97.9575833 62.4462154 97.9575833"></polygon>
                <polygon id="Fill-424" fill="#FEFEFE" points="77.6570845 95.1545208 99.2254709 95.1545208 99.2254709 92.6614167 77.6570845 92.6614167"></polygon>
                <polygon id="Stroke-425" stroke="#231F20" stroke-width="0.5" points="77.6570845 95.1545208 99.2254709 95.1545208 99.2254709 92.6614167 77.6570845 92.6614167"></polygon>
                <polygon id="Fill-426" fill="#FEFEFE" points="78.2722992 97.9575833 98.6093594 97.9575833 98.6093594 95.1545208 78.2722992 95.1545208"></polygon>
                <polygon id="Stroke-427" stroke="#231F20" stroke-width="0.5" points="78.2722992 97.9575833 98.6093594 97.9575833 98.6093594 95.1545208 78.2722992 95.1545208"></polygon>
                <polygon id="Stroke-428" stroke="#231F20" stroke-width="0.5" points="79.5430852 127.374958 97.4793733 127.374958 97.4793733 97.9575833 79.5430852 97.9575833"></polygon>
                <polygon id="Stroke-429" stroke="#231F20" stroke-width="0.5" points="82.9904398 113.485063 93.9907652 113.485063 93.9907652 100.889646 82.9904398 100.889646"></polygon>
                <polygon id="Fill-430" fill="#FEFEFE" points="79.4013885 128.776042 97.4793733 128.776042 97.4793733 125.972083 79.4013885 125.972083"></polygon>
                <polygon id="Stroke-431" stroke="#231F20" stroke-width="0.5" points="79.4013885 128.776042 97.4793733 128.776042 97.4793733 125.972083 79.4013885 125.972083"></polygon>
                <polygon id="Stroke-432" stroke="#231F20" stroke-width="0.5" points="19.3641482 23.5326458 45.3403774 23.5326458 45.3403774 21.9649375 19.3641482 21.9649375"></polygon>
                <polygon id="Stroke-433" stroke="#231F20" stroke-width="0.5" points="19.3641482 23.5326458 102.169713 23.5326458 102.169713 21.9649375 19.3641482 21.9649375"></polygon>
                <polygon id="Stroke-434" stroke="#231F20" stroke-width="0.5" points="19.3641482 25.1003542 45.3403774 25.1003542 45.3403774 23.5326458 19.3641482 23.5326458"></polygon>
                <polygon id="Stroke-435" stroke="#231F20" stroke-width="0.5" points="50.6405506 23.5326458 72.208937 23.5326458 72.208937 21.9649375 50.6405506 21.9649375"></polygon>
                <polygon id="Stroke-436" stroke="#231F20" stroke-width="0.5" points="19.3641482 48.7530417 45.3403774 48.7530417 45.3403774 46.2939792 19.3641482 46.2939792"></polygon>
                <polygon id="Stroke-437" stroke="#231F20" stroke-width="0.5" points="19.3641482 48.7530417 102.169713 48.7530417 102.169713 46.2939792 19.3641482 46.2939792"></polygon>
                <polygon id="Stroke-438" stroke="#231F20" stroke-width="0.5" points="51.5705471 48.7530417 71.4206371 48.7530417 71.4206371 46.2939792 51.5705471 46.2939792"></polygon>
                <polygon id="Stroke-439" stroke="#231F20" stroke-width="0.5" points="21.104865 46.2939792 43.5996607 46.2939792 43.5996607 25.1003542 21.104865 25.1003542"></polygon>
                <polygon id="Stroke-440" stroke="#231F20" stroke-width="0.5" points="52.5265512 46.2939792 70.4628393 46.2939792 70.4628393 23.5326458 52.5265512 23.5326458"></polygon>
                <polygon id="Stroke-441" stroke="#231F20" stroke-width="0.5" points="22.9316759 43.2669583 26.463331 43.2669583 26.463331 28.0933333 22.9316759 28.0933333"></polygon>
                <polygon id="Stroke-442" stroke="#231F20" stroke-width="0.5" points="38.2331233 43.2669583 41.7647784 43.2669583 41.7647784 28.0933333 38.2331233 28.0933333"></polygon>
                <polygon id="Stroke-443" stroke="#231F20" stroke-width="0.5" points="29.2649792 43.2669583 35.4323719 43.2669583 35.4323719 28.0933333 29.2649792 28.0933333"></polygon>
                <polygon id="Stroke-444" stroke="#231F20" stroke-width="0.5" points="54.3452909 43.2669583 60.5126835 43.2669583 60.5126835 26.3357083 54.3452909 26.3357083"></polygon>
                <polygon id="Stroke-445" stroke="#231F20" stroke-width="0.5" points="62.4462154 43.2669583 68.613608 43.2669583 68.613608 26.3357083 62.4462154 26.3357083"></polygon>
                <polygon id="Stroke-446" stroke="#231F20" stroke-width="0.5" points="77.6570845 23.5326458 99.2254709 23.5326458 99.2254709 21.9649375 77.6570845 21.9649375"></polygon>
                <polygon id="Stroke-447" stroke="#231F20" stroke-width="0.5" points="78.587081 48.7530417 98.4371711 48.7530417 98.4371711 46.2939792 78.587081 46.2939792"></polygon>
                <polygon id="Stroke-448" stroke="#231F20" stroke-width="0.5" points="79.5430852 46.2939792 97.4793733 46.2939792 97.4793733 23.5326458 79.5430852 23.5326458"></polygon>
                <polygon id="Stroke-449" stroke="#231F20" stroke-width="0.5" points="81.3618248 43.2669583 87.5292175 43.2669583 87.5292175 26.3357083 81.3618248 26.3357083"></polygon>
                <polygon id="Stroke-450" stroke="#231F20" stroke-width="0.5" points="89.4627493 43.2669583 95.630142 43.2669583 95.630142 26.3357083 89.4627493 26.3357083"></polygon>
                <path d="M93.9909446,116.416498 C93.9909446,116.858144 93.6331157,117.216477 93.1900893,117.216477 C92.7479598,117.216477 92.3892341,116.858144 92.3892341,116.416498 C92.3892341,115.974852 92.7479598,115.616519 93.1900893,115.616519 C93.6331157,115.616519 93.9909446,115.974852 93.9909446,116.416498" id="Fill-451" fill="#231F20"></path>
                <polygon id="Stroke-452" stroke="#231F20" stroke-width="0.5" points="19.3641482 21.9649375 102.169713 21.9649375 102.169713 10.3191042 19.3641482 10.3191042"></polygon>
                <polygon id="Stroke-453" stroke="#231F20" stroke-width="0.5" points="22.3308102 7.02960417 32.1213331 7.02960417 32.1213331 4.531125 22.3308102 4.531125"></polygon>
                <polygon id="Fill-454" fill="#FEFEFE" points="23.4410665 13.0334792 31.0110769 13.0334792 31.0110769 7.02960417 23.4410665 7.02960417"></polygon>
                <polygon id="Stroke-455" stroke="#231F20" stroke-width="0.5" points="23.4410665 13.0334792 31.0110769 13.0334792 31.0110769 7.02960417 23.4410665 7.02960417"></polygon>
                <polygon id="Stroke-456" stroke="#231F20" stroke-width="0.5" points="25.6319841 4.53202083 28.8201593 4.53202083 28.8201593 0.958541667 25.6319841 0.958541667"></polygon>
                <polygon id="Stroke-457" stroke="#231F20" stroke-width="0.5" points="89.4116309 7.02960417 99.2021537 7.02960417 99.2021537 4.531125 89.4116309 4.531125"></polygon>
                <polygon id="Fill-458" fill="#FEFEFE" points="90.5218871 13.0334792 98.0918975 13.0334792 98.0918975 7.02960417 90.5218871 7.02960417"></polygon>
                <polygon id="Stroke-459" stroke="#231F20" stroke-width="0.5" points="90.5218871 13.0334792 98.0918975 13.0334792 98.0918975 7.02960417 90.5218871 7.02960417"></polygon>
                <polygon id="Stroke-460" stroke="#231F20" stroke-width="0.5" points="92.7128047 4.53202083 95.9000831 4.53202083 95.9000831 0.958541667 92.7128047 0.958541667"></polygon>
                <polygon id="Triangle-Copy-2" fill="#000000" points="11 101.5 0 96 0 107"></polygon>
            </g>
        </g>
    </g>
</svg>