<?xml version="1.0" encoding="UTF-8"?>
<svg width="148px" height="96px" viewBox="0 0 148 96" version="1.1" xmlns="http://www.w3.org/2000/svg" xmlns:xlink="http://www.w3.org/1999/xlink">
    <!-- Generator: Sketch 47 (45396) - http://www.bohemiancoding.com/sketch -->
    <title>mid-terrace</title>
    <desc>Created with Sketch.</desc>
    <defs></defs>
    <g id="Supply" stroke="none" stroke-width="1" fill="none" fill-rule="evenodd">
        <g id="mid-terrace">
            <g id="Group-23">
                <polygon id="Stroke-127" stroke="#231F20" stroke-width="0.5" points="11.1949273 58.0889792 23.6104259 58.0889792 23.6104259 45.6861667 11.1949273 45.6861667"></polygon>
                <polygon id="Stroke-128" stroke="#231F20" stroke-width="0.5" points="10.345644 59.7946458 24.4588123 59.7946458 24.4588123 58.0889792 10.345644 58.0889792"></polygon>
                <polygon id="Stroke-129" stroke="#231F20" stroke-width="0.5" points="13.0307064 50.9456042 16.5901627 50.9456042 16.5901627 47.3900417 13.0307064 47.3900417"></polygon>
                <polygon id="Stroke-130" stroke="#231F20" stroke-width="0.5" points="18.4958934 50.9456042 22.0553497 50.9456042 22.0553497 47.3900417 18.4958934 47.3900417"></polygon>
                <polygon id="Stroke-131" stroke="#231F20" stroke-width="0.5" points="13.0307064 56.294625 16.5901627 56.294625 16.5901627 52.7390625 13.0307064 52.7390625"></polygon>
                <polygon id="Stroke-132" stroke="#231F20" stroke-width="0.5" points="18.4958934 56.294625 22.0553497 56.294625 22.0553497 52.7390625 18.4958934 52.7390625"></polygon>
                <polygon id="Stroke-133" stroke="#231F20" stroke-width="0.5" points="11.1940305 84.9639792 30.1195048 84.9639792 30.1195048 72.5611667 11.1940305 72.5611667"></polygon>
                <polygon id="Stroke-134" stroke="#231F20" stroke-width="0.5" points="10.345644 86.6696458 30.9678913 86.6696458 30.9678913 84.9639792 10.345644 84.9639792"></polygon>
                <polygon id="Stroke-135" stroke="#231F20" stroke-width="0.5" points="13.0316032 76.9229792 20.2760699 76.9229792 20.2760699 74.2650417 13.0316032 74.2650417"></polygon>
                <polygon id="Stroke-136" stroke="#231F20" stroke-width="0.5" points="22.0553497 83.169625 28.345606 83.169625 28.345606 74.2659375 22.0553497 74.2659375"></polygon>
                <polygon id="Stroke-137" stroke="#231F20" stroke-width="0.5" points="13.0316032 83.169625 20.2760699 83.169625 20.2760699 78.7173333 13.0316032 78.7173333"></polygon>
                <polygon id="Stroke-138" stroke="#231F20" stroke-width="0.5" points="33.728286 58.0889792 46.1437846 58.0889792 46.1437846 45.6861667 33.728286 45.6861667"></polygon>
                <polygon id="Stroke-139" stroke="#231F20" stroke-width="0.5" points="32.8790028 59.7946458 46.9921711 59.7946458 46.9921711 58.0889792 32.8790028 58.0889792"></polygon>
                <polygon id="Stroke-140" stroke="#231F20" stroke-width="0.5" points="35.5649619 50.9456042 39.1244183 50.9456042 39.1244183 47.3900417 35.5649619 47.3900417"></polygon>
                <polygon id="Stroke-141" stroke="#231F20" stroke-width="0.5" points="41.0301489 50.9456042 44.5896053 50.9456042 44.5896053 47.3900417 41.0301489 47.3900417"></polygon>
                <polygon id="Stroke-142" stroke="#231F20" stroke-width="0.5" points="35.5649619 56.294625 39.1244183 56.294625 39.1244183 52.7390625 35.5649619 52.7390625"></polygon>
                <polygon id="Stroke-143" stroke="#231F20" stroke-width="0.5" points="41.0301489 56.294625 44.5896053 56.294625 44.5896053 52.7390625 41.0301489 52.7390625"></polygon>
                <path d="M41.2888798,71.9324708 C38.6181666,71.9324708 36.4335267,74.1147208 36.4335267,76.7816167 L36.4335267,94.7762208 L46.144233,94.7762208 L46.144233,76.7816167 C46.144233,74.1147208 43.9595931,71.9324708 41.2888798,71.9324708 Z" id="Stroke-144" stroke="#231F20" stroke-width="0.5"></path>
                <polygon id="Stroke-145" stroke="#231F20" stroke-width="0.5" points="38.0679709 89.3266875 44.5896053 89.3266875 44.5896053 76.7814375 38.0679709 76.7814375"></polygon>
                <path d="M36.433437,91.2672417 L46.1441434,91.2672417" id="Stroke-146" stroke="#231F20" stroke-width="0.5"></path>
                <polygon id="Stroke-147" stroke="#231F20" stroke-width="0.5" points="6.82833795 94.7760417 51.6690582 94.7760417 51.6690582 40.4285208 6.82833795 40.4285208"></polygon>
                <polygon id="Stroke-148" stroke="#231F20" stroke-width="0.5" points="100.876368 58.0889792 113.291866 58.0889792 113.291866 45.6861667 100.876368 45.6861667"></polygon>
                <polygon id="Stroke-149" stroke="#231F20" stroke-width="0.5" points="100.027084 59.7946458 114.140253 59.7946458 114.140253 58.0889792 100.027084 58.0889792"></polygon>
                <polygon id="Stroke-150" stroke="#231F20" stroke-width="0.5" points="102.712147 50.9456042 106.271603 50.9456042 106.271603 47.3900417 102.712147 47.3900417"></polygon>
                <polygon id="Stroke-151" stroke="#231F20" stroke-width="0.5" points="108.177334 50.9456042 111.73679 50.9456042 111.73679 47.3900417 108.177334 47.3900417"></polygon>
                <polygon id="Stroke-152" stroke="#231F20" stroke-width="0.5" points="102.712147 56.294625 106.271603 56.294625 106.271603 52.7390625 102.712147 52.7390625"></polygon>
                <polygon id="Stroke-153" stroke="#231F20" stroke-width="0.5" points="108.177334 56.294625 111.73679 56.294625 111.73679 52.7390625 108.177334 52.7390625"></polygon>
                <polygon id="Stroke-154" stroke="#231F20" stroke-width="0.5" points="100.875471 84.9639792 119.800945 84.9639792 119.800945 72.5611667 100.875471 72.5611667"></polygon>
                <polygon id="Stroke-155" stroke="#231F20" stroke-width="0.5" points="100.027084 86.6696458 120.649332 86.6696458 120.649332 84.9639792 100.027084 84.9639792"></polygon>
                <polygon id="Stroke-156" stroke="#231F20" stroke-width="0.5" points="102.713044 76.9229792 109.95751 76.9229792 109.95751 74.2650417 102.713044 74.2650417"></polygon>
                <polygon id="Stroke-157" stroke="#231F20" stroke-width="0.5" points="111.73679 83.169625 118.027046 83.169625 118.027046 74.2659375 111.73679 74.2659375"></polygon>
                <polygon id="Stroke-158" stroke="#231F20" stroke-width="0.5" points="102.713044 83.169625 109.95751 83.169625 109.95751 78.7173333 102.713044 78.7173333"></polygon>
                <polygon id="Stroke-159" stroke="#231F20" stroke-width="0.5" points="123.409726 58.0889792 135.825225 58.0889792 135.825225 45.6861667 123.409726 45.6861667"></polygon>
                <polygon id="Stroke-160" stroke="#231F20" stroke-width="0.5" points="122.560443 59.7946458 136.673611 59.7946458 136.673611 58.0889792 122.560443 58.0889792"></polygon>
                <polygon id="Stroke-161" stroke="#231F20" stroke-width="0.5" points="125.246402 50.9456042 128.805859 50.9456042 128.805859 47.3900417 125.246402 47.3900417"></polygon>
                <polygon id="Stroke-162" stroke="#231F20" stroke-width="0.5" points="130.711589 50.9456042 134.271046 50.9456042 134.271046 47.3900417 130.711589 47.3900417"></polygon>
                <polygon id="Stroke-163" stroke="#231F20" stroke-width="0.5" points="125.246402 56.294625 128.805859 56.294625 128.805859 52.7390625 125.246402 52.7390625"></polygon>
                <polygon id="Stroke-164" stroke="#231F20" stroke-width="0.5" points="130.711589 56.294625 134.271046 56.294625 134.271046 52.7390625 130.711589 52.7390625"></polygon>
                <path d="M130.97032,71.9324708 C128.299607,71.9324708 126.114967,74.1147208 126.114967,76.7816167 L126.114967,94.7762208 L135.825673,94.7762208 L135.825673,76.7816167 C135.825673,74.1147208 133.641034,71.9324708 130.97032,71.9324708 Z" id="Stroke-165" stroke="#231F20" stroke-width="0.5"></path>
                <polygon id="Stroke-166" stroke="#231F20" stroke-width="0.5" points="127.749411 89.3266875 134.271046 89.3266875 134.271046 76.7814375 127.749411 76.7814375"></polygon>
                <path d="M126.114877,91.2672417 L135.825584,91.2672417" id="Stroke-167" stroke="#231F20" stroke-width="0.5"></path>
                <polygon id="Stroke-168" stroke="#231F20" stroke-width="0.5" points="96.5097784 94.7760417 141.350499 94.7760417 141.350499 40.4285208 96.5097784 40.4285208"></polygon>
                <polygon id="Stroke-169" stroke="#231F20" stroke-width="0.5" points="96.5099578 27.5606813 8.77191413 27.5606813 0.767845568 40.4284313 96.5099578 40.4284313"></polygon>
                <polygon id="Stroke-170" stroke="#231F20" stroke-width="0.5" points="51.6692375 27.5606813 139.407281 27.5606813 147.41135 40.4284313 51.6692375 40.4284313"></polygon>
                <polygon id="Stroke-171" stroke="#231F20" stroke-width="0.5" points="55.6338747 23.4336667 65.4243975 23.4336667 65.4243975 20.1728333 55.6338747 20.1728333"></polygon>
                <polygon id="Fill-172" fill="#FEFEFE" points="56.7432341 29.4384375 64.3132445 29.4384375 64.3132445 23.4345625 56.7432341 23.4345625"></polygon>
                <polygon id="Stroke-173" stroke="#231F20" stroke-width="0.5" points="56.7432341 29.4384375 64.3132445 29.4384375 64.3132445 23.4345625 56.7432341 23.4345625"></polygon>
                <polygon id="Stroke-174" stroke="#231F20" stroke-width="0.5" points="100.479976 23.4336667 110.270499 23.4336667 110.270499 20.1728333 100.479976 20.1728333"></polygon>
                <polygon id="Fill-175" fill="#FEFEFE" points="101.590232 29.4384375 109.160242 29.4384375 109.160242 23.4345625 101.590232 23.4345625"></polygon>
                <polygon id="Stroke-176" stroke="#231F20" stroke-width="0.5" points="101.590232 29.4384375 109.160242 29.4384375 109.160242 23.4345625 101.590232 23.4345625"></polygon>
                <polygon id="Stroke-177" stroke="#231F20" stroke-width="0.5" points="79.7285873 58.0889792 92.1440859 58.0889792 92.1440859 45.6861667 79.7285873 45.6861667"></polygon>
                <polygon id="Stroke-178" stroke="#231F20" stroke-width="0.5" points="78.8802008 59.7946458 92.9933691 59.7946458 92.9933691 58.0889792 78.8802008 58.0889792"></polygon>
                <polygon id="Stroke-179" stroke="#231F20" stroke-width="0.5" points="86.7479536 50.9456042 90.30741 50.9456042 90.30741 47.3900417 86.7479536 47.3900417"></polygon>
                <polygon id="Stroke-180" stroke="#231F20" stroke-width="0.5" points="81.2827666 50.9456042 84.842223 50.9456042 84.842223 47.3900417 81.2827666 47.3900417"></polygon>
                <polygon id="Stroke-181" stroke="#231F20" stroke-width="0.5" points="86.7479536 56.294625 90.30741 56.294625 90.30741 52.7390625 86.7479536 52.7390625"></polygon>
                <polygon id="Stroke-182" stroke="#231F20" stroke-width="0.5" points="81.2827666 56.294625 84.842223 56.294625 84.842223 52.7390625 81.2827666 52.7390625"></polygon>
                <polygon id="Stroke-183" stroke="#231F20" stroke-width="0.5" points="57.1468006 84.9639792 76.0713781 84.9639792 76.0713781 72.5611667 57.1468006 72.5611667"></polygon>
                <polygon id="Stroke-184" stroke="#231F20" stroke-width="0.5" points="56.2975173 86.6696458 76.9197645 86.6696458 76.9197645 84.9639792 56.2975173 84.9639792"></polygon>
                <polygon id="Stroke-185" stroke="#231F20" stroke-width="0.5" points="58.9834765 76.9229792 66.2279432 76.9229792 66.2279432 74.2650417 58.9834765 74.2650417"></polygon>
                <polygon id="Stroke-186" stroke="#231F20" stroke-width="0.5" points="68.0081198 83.169625 74.298376 83.169625 74.298376 74.2659375 68.0081198 74.2659375"></polygon>
                <polygon id="Stroke-187" stroke="#231F20" stroke-width="0.5" points="58.9834765 83.169625 66.2279432 83.169625 66.2279432 78.7173333 58.9834765 78.7173333"></polygon>
                <polygon id="Stroke-188" stroke="#231F20" stroke-width="0.5" points="57.1943317 58.0889792 69.6098303 58.0889792 69.6098303 45.6861667 57.1943317 45.6861667"></polygon>
                <polygon id="Stroke-189" stroke="#231F20" stroke-width="0.5" points="56.3459453 59.7946458 70.4591136 59.7946458 70.4591136 58.0889792 56.3459453 58.0889792"></polygon>
                <polygon id="Stroke-190" stroke="#231F20" stroke-width="0.5" points="64.2136981 50.9456042 67.7731544 50.9456042 67.7731544 47.3900417 64.2136981 47.3900417"></polygon>
                <polygon id="Stroke-191" stroke="#231F20" stroke-width="0.5" points="58.7494079 50.9456042 62.3088643 50.9456042 62.3088643 47.3900417 58.7494079 47.3900417"></polygon>
                <polygon id="Stroke-192" stroke="#231F20" stroke-width="0.5" points="64.2136981 56.294625 67.7731544 56.294625 67.7731544 52.7390625 64.2136981 52.7390625"></polygon>
                <polygon id="Stroke-193" stroke="#231F20" stroke-width="0.5" points="58.7494079 56.294625 62.3088643 56.294625 62.3088643 52.7390625 58.7494079 52.7390625"></polygon>
                <path d="M87.2404841,71.9324708 C84.5697708,71.9324708 82.3851309,74.1147208 82.3851309,76.7816167 L82.3851309,94.7762208 L92.0958373,94.7762208 L92.0958373,76.7816167 C92.0958373,74.1147208 89.9111974,71.9324708 87.2404841,71.9324708 Z" id="Stroke-194" stroke="#231F20" stroke-width="0.5"></path>
                <polygon id="Stroke-195" stroke="#231F20" stroke-width="0.5" points="84.0198442 89.3266875 90.5414785 89.3266875 90.5414785 76.7814375 84.0198442 76.7814375"></polygon>
                <path d="M82.3855793,91.2672417 L92.0962857,91.2672417" id="Stroke-196" stroke="#231F20" stroke-width="0.5"></path>
                <polygon id="Stroke-197" stroke="#231F20" stroke-width="0.5" points="11.1940305 23.4336667 20.9845533 23.4336667 20.9845533 20.1728333 11.1940305 20.1728333"></polygon>
                <polygon id="Fill-198" fill="#FEFEFE" points="12.3051835 29.4384375 19.8751939 29.4384375 19.8751939 23.4345625 12.3051835 23.4345625"></polygon>
                <polygon id="Stroke-199" stroke="#231F20" stroke-width="0.5" points="12.3051835 29.4384375 19.8751939 29.4384375 19.8751939 23.4345625 12.3051835 23.4345625"></polygon>
                <path d="M51.6692375,27.5606813 L51.6692375,94.7759521" id="Stroke-200" stroke="#231F20" stroke-width="0.5"></path>
                <polygon id="Stroke-201" stroke="#231F20" stroke-width="0.5" points="51.6690582 94.7760417 96.5097784 94.7760417 96.5097784 40.4285208 51.6690582 40.4285208"></polygon>
                <polygon id="Triangle-Copy" fill="#000000" transform="translate(74.500000, 5.500000) scale(1, -1) translate(-74.500000, -5.500000) " points="74.5 0 80 11 69 11"></polygon>
            </g>
        </g>
    </g>
</svg>