<?xml version="1.0" encoding="UTF-8"?>
<svg width="101px" height="130px" viewBox="0 0 101 130" version="1.1" xmlns="http://www.w3.org/2000/svg" xmlns:xlink="http://www.w3.org/1999/xlink">
    <!-- Generator: Sketch 47 (45396) - http://www.bohemiancoding.com/sketch -->
    <title>mid-floor-flat</title>
    <desc>Created with Sketch.</desc>
    <defs></defs>
    <g id="Supply" stroke="none" stroke-width="1" fill="none" fill-rule="evenodd">
        <g id="mid-floor-flat">
            <g id="Group-28">
                <polygon id="Stroke-251" stroke="#231F20" stroke-width="0.5" points="17.1217936 127.374958 99.927358 127.374958 99.927358 21.9649375 17.1217936 21.9649375"></polygon>
                <polygon id="Stroke-252" stroke="#231F20" stroke-width="0.5" points="17.1208968 59.5451458 43.097126 59.5451458 43.097126 57.9774375 17.1208968 57.9774375"></polygon>
                <polygon id="Stroke-253" stroke="#231F20" stroke-width="0.5" points="17.1217936 59.5451458 99.927358 59.5451458 99.927358 57.9774375 17.1217936 57.9774375"></polygon>
                <polygon id="Stroke-254" stroke="#231F20" stroke-width="0.5" points="17.1208968 61.1128542 43.097126 61.1128542 43.097126 59.5451458 17.1208968 59.5451458"></polygon>
                <polygon id="Stroke-255" stroke="#231F20" stroke-width="0.5" points="48.3972992 59.5451458 69.9656856 59.5451458 69.9656856 57.9774375 48.3972992 57.9774375"></polygon>
                <polygon id="Stroke-256" stroke="#231F20" stroke-width="0.5" points="17.1208968 84.7655417 43.097126 84.7655417 43.097126 82.3064792 17.1208968 82.3064792"></polygon>
                <polygon id="Stroke-257" stroke="#231F20" stroke-width="0.5" points="17.1217936 84.7655417 99.927358 84.7655417 99.927358 82.3064792 17.1217936 82.3064792"></polygon>
                <polygon id="Stroke-258" stroke="#231F20" stroke-width="0.5" points="49.3263989 84.7655417 69.1773857 84.7655417 69.1773857 82.3064792 49.3263989 82.3064792"></polygon>
                <polygon id="Stroke-259" stroke="#231F20" stroke-width="0.5" points="18.8616136 82.3064792 41.3573061 82.3064792 41.3573061 61.1128542 18.8616136 61.1128542"></polygon>
                <polygon id="Stroke-260" stroke="#231F20" stroke-width="0.5" points="50.2841967 82.3064792 68.2204848 82.3064792 68.2204848 59.5451458 50.2841967 59.5451458"></polygon>
                <polygon id="Stroke-261" stroke="#231F20" stroke-width="0.5" points="20.6893213 79.2794583 24.2209765 79.2794583 24.2209765 64.1067292 20.6893213 64.1067292"></polygon>
                <polygon id="Stroke-262" stroke="#231F20" stroke-width="0.5" points="35.9907687 79.2794583 39.5224238 79.2794583 39.5224238 64.1067292 35.9907687 64.1067292"></polygon>
                <polygon id="Stroke-263" stroke="#231F20" stroke-width="0.5" points="27.0226247 79.2794583 33.1900173 79.2794583 33.1900173 64.1067292 27.0226247 64.1067292"></polygon>
                <polygon id="Stroke-264" stroke="#231F20" stroke-width="0.5" points="52.1020395 79.2794583 58.2694321 79.2794583 58.2694321 62.3482083 52.1020395 62.3482083"></polygon>
                <polygon id="Stroke-265" stroke="#231F20" stroke-width="0.5" points="60.2038608 79.2794583 66.3712535 79.2794583 66.3712535 62.3482083 60.2038608 62.3482083"></polygon>
                <polygon id="Stroke-266" stroke="#231F20" stroke-width="0.5" points="75.4138331 59.5451458 96.9822195 59.5451458 96.9822195 57.9774375 75.4138331 57.9774375"></polygon>
                <polygon id="Stroke-267" stroke="#231F20" stroke-width="0.5" points="76.3429328 84.7655417 96.1939197 84.7655417 96.1939197 82.3064792 76.3429328 82.3064792"></polygon>
                <polygon id="Stroke-268" stroke="#231F20" stroke-width="0.5" points="77.3007306 82.3064792 95.2370187 82.3064792 95.2370187 59.5451458 77.3007306 59.5451458"></polygon>
                <polygon id="Stroke-269" stroke="#231F20" stroke-width="0.5" points="79.1185734 79.2794583 85.2859661 79.2794583 85.2859661 62.3482083 79.1185734 62.3482083"></polygon>
                <polygon id="Stroke-270" stroke="#231F20" stroke-width="0.5" points="87.2203947 79.2794583 93.3877874 79.2794583 93.3877874 62.3482083 87.2203947 62.3482083"></polygon>
                <polygon id="Stroke-271" stroke="#231F20" stroke-width="0.5" points="17.1208968 95.1545208 43.097126 95.1545208 43.097126 93.5868125 17.1208968 93.5868125"></polygon>
                <polygon id="Stroke-272" stroke="#231F20" stroke-width="0.5" points="17.1217936 95.1545208 99.927358 95.1545208 99.927358 93.5868125 17.1217936 93.5868125"></polygon>
                <polygon id="Stroke-273" stroke="#231F20" stroke-width="0.5" points="17.1208968 96.7222292 43.097126 96.7222292 43.097126 95.1545208 17.1208968 95.1545208"></polygon>
                <polygon id="Stroke-274" stroke="#231F20" stroke-width="0.5" points="48.3972992 95.1545208 69.9656856 95.1545208 69.9656856 93.5868125 48.3972992 93.5868125"></polygon>
                <polygon id="Stroke-275" stroke="#231F20" stroke-width="0.5" points="17.1208968 120.374917 43.097126 120.374917 43.097126 117.915854 17.1208968 117.915854"></polygon>
                <polygon id="Stroke-276" stroke="#231F20" stroke-width="0.5" points="49.3263989 120.374917 69.1773857 120.374917 69.1773857 117.915854 49.3263989 117.915854"></polygon>
                <polygon id="Stroke-277" stroke="#231F20" stroke-width="0.5" points="18.8616136 117.915854 41.3573061 117.915854 41.3573061 96.7222292 18.8616136 96.7222292"></polygon>
                <polygon id="Stroke-278" stroke="#231F20" stroke-width="0.5" points="50.2841967 117.915854 68.2204848 117.915854 68.2204848 95.1545208 50.2841967 95.1545208"></polygon>
                <polygon id="Stroke-279" stroke="#231F20" stroke-width="0.5" points="20.6893213 114.888833 24.2209765 114.888833 24.2209765 99.7161042 20.6893213 99.7161042"></polygon>
                <polygon id="Stroke-280" stroke="#231F20" stroke-width="0.5" points="35.9907687 114.888833 39.5224238 114.888833 39.5224238 99.7161042 35.9907687 99.7161042"></polygon>
                <polygon id="Stroke-281" stroke="#231F20" stroke-width="0.5" points="27.0226247 114.888833 33.1900173 114.888833 33.1900173 99.7161042 27.0226247 99.7161042"></polygon>
                <polygon id="Stroke-282" stroke="#231F20" stroke-width="0.5" points="52.1020395 114.888833 58.2694321 114.888833 58.2694321 97.9575833 52.1020395 97.9575833"></polygon>
                <polygon id="Stroke-283" stroke="#231F20" stroke-width="0.5" points="60.2038608 114.888833 66.3712535 114.888833 66.3712535 97.9575833 60.2038608 97.9575833"></polygon>
                <polygon id="Fill-284" fill="#FEFEFE" points="75.4138331 95.1545208 96.9822195 95.1545208 96.9822195 92.6614167 75.4138331 92.6614167"></polygon>
                <polygon id="Stroke-285" stroke="#231F20" stroke-width="0.5" points="75.4138331 95.1545208 96.9822195 95.1545208 96.9822195 92.6614167 75.4138331 92.6614167"></polygon>
                <polygon id="Fill-286" fill="#FEFEFE" points="76.0299446 97.9575833 96.3670048 97.9575833 96.3670048 95.1545208 76.0299446 95.1545208"></polygon>
                <polygon id="Stroke-287" stroke="#231F20" stroke-width="0.5" points="76.0299446 97.9575833 96.3670048 97.9575833 96.3670048 95.1545208 76.0299446 95.1545208"></polygon>
                <polygon id="Stroke-288" stroke="#231F20" stroke-width="0.5" points="77.3007306 127.374958 95.2370187 127.374958 95.2370187 97.9575833 77.3007306 97.9575833"></polygon>
                <polygon id="Stroke-289" stroke="#231F20" stroke-width="0.5" points="80.7471884 113.485063 91.7484107 113.485063 91.7484107 100.889646 80.7471884 100.889646"></polygon>
                <polygon id="Fill-290" fill="#FEFEFE" points="77.1599307 128.776042 95.2370187 128.776042 95.2370187 125.972083 77.1599307 125.972083"></polygon>
                <polygon id="Stroke-291" stroke="#231F20" stroke-width="0.5" points="77.1599307 128.776042 95.2370187 128.776042 95.2370187 125.972083 77.1599307 125.972083"></polygon>
                <polygon id="Stroke-292" stroke="#231F20" stroke-width="0.5" points="17.1208968 23.5326458 43.097126 23.5326458 43.097126 21.9649375 17.1208968 21.9649375"></polygon>
                <polygon id="Stroke-293" stroke="#231F20" stroke-width="0.5" points="17.1217936 23.5326458 99.927358 23.5326458 99.927358 21.9649375 17.1217936 21.9649375"></polygon>
                <polygon id="Stroke-294" stroke="#231F20" stroke-width="0.5" points="17.1208968 25.1003542 43.097126 25.1003542 43.097126 23.5326458 17.1208968 23.5326458"></polygon>
                <polygon id="Stroke-295" stroke="#231F20" stroke-width="0.5" points="48.3972992 23.5326458 69.9656856 23.5326458 69.9656856 21.9649375 48.3972992 21.9649375"></polygon>
                <polygon id="Stroke-296" stroke="#231F20" stroke-width="0.5" points="17.1208968 48.7530417 43.097126 48.7530417 43.097126 46.2939792 17.1208968 46.2939792"></polygon>
                <polygon id="Stroke-297" stroke="#231F20" stroke-width="0.5" points="17.1217936 48.7530417 99.927358 48.7530417 99.927358 46.2939792 17.1217936 46.2939792"></polygon>
                <polygon id="Stroke-298" stroke="#231F20" stroke-width="0.5" points="49.3263989 48.7530417 69.1773857 48.7530417 69.1773857 46.2939792 49.3263989 46.2939792"></polygon>
                <polygon id="Stroke-299" stroke="#231F20" stroke-width="0.5" points="18.8616136 46.2939792 41.3573061 46.2939792 41.3573061 25.1003542 18.8616136 25.1003542"></polygon>
                <polygon id="Stroke-300" stroke="#231F20" stroke-width="0.5" points="50.2841967 46.2939792 68.2204848 46.2939792 68.2204848 23.5326458 50.2841967 23.5326458"></polygon>
                <polygon id="Stroke-301" stroke="#231F20" stroke-width="0.5" points="20.6893213 43.2669583 24.2209765 43.2669583 24.2209765 28.0933333 20.6893213 28.0933333"></polygon>
                <polygon id="Stroke-302" stroke="#231F20" stroke-width="0.5" points="35.9907687 43.2669583 39.5224238 43.2669583 39.5224238 28.0933333 35.9907687 28.0933333"></polygon>
                <polygon id="Stroke-303" stroke="#231F20" stroke-width="0.5" points="27.0226247 43.2669583 33.1900173 43.2669583 33.1900173 28.0933333 27.0226247 28.0933333"></polygon>
                <polygon id="Stroke-304" stroke="#231F20" stroke-width="0.5" points="52.1020395 43.2669583 58.2694321 43.2669583 58.2694321 26.3357083 52.1020395 26.3357083"></polygon>
                <polygon id="Stroke-305" stroke="#231F20" stroke-width="0.5" points="60.2038608 43.2669583 66.3712535 43.2669583 66.3712535 26.3357083 60.2038608 26.3357083"></polygon>
                <polygon id="Stroke-306" stroke="#231F20" stroke-width="0.5" points="75.4138331 23.5326458 96.9822195 23.5326458 96.9822195 21.9649375 75.4138331 21.9649375"></polygon>
                <polygon id="Stroke-307" stroke="#231F20" stroke-width="0.5" points="76.3429328 48.7530417 96.1939197 48.7530417 96.1939197 46.2939792 76.3429328 46.2939792"></polygon>
                <polygon id="Stroke-308" stroke="#231F20" stroke-width="0.5" points="77.3007306 46.2939792 95.2370187 46.2939792 95.2370187 23.5326458 77.3007306 23.5326458"></polygon>
                <polygon id="Stroke-309" stroke="#231F20" stroke-width="0.5" points="79.1185734 43.2669583 85.2859661 43.2669583 85.2859661 26.3357083 79.1185734 26.3357083"></polygon>
                <polygon id="Stroke-310" stroke="#231F20" stroke-width="0.5" points="87.2203947 43.2669583 93.3877874 43.2669583 93.3877874 26.3357083 87.2203947 26.3357083"></polygon>
                <path d="M91.7488591,116.416498 C91.7488591,116.858144 91.3901333,117.216477 90.947107,117.216477 C90.5058743,117.216477 90.1471485,116.858144 90.1471485,116.416498 C90.1471485,115.974852 90.5058743,115.616519 90.947107,115.616519 C91.3901333,115.616519 91.7488591,115.974852 91.7488591,116.416498" id="Fill-311" fill="#231F20"></path>
                <polygon id="Stroke-312" stroke="#231F20" stroke-width="0.5" points="17.1217936 21.9649375 99.927358 21.9649375 99.927358 10.3191042 17.1217936 10.3191042"></polygon>
                <polygon id="Stroke-313" stroke="#231F20" stroke-width="0.5" points="20.0884557 7.02960417 29.8789785 7.02960417 29.8789785 4.531125 20.0884557 4.531125"></polygon>
                <polygon id="Fill-314" fill="#FEFEFE" points="21.1987119 13.0334792 28.7687223 13.0334792 28.7687223 7.02960417 21.1987119 7.02960417"></polygon>
                <polygon id="Stroke-315" stroke="#231F20" stroke-width="0.5" points="21.1987119 13.0334792 28.7687223 13.0334792 28.7687223 7.02960417 21.1987119 7.02960417"></polygon>
                <polygon id="Stroke-316" stroke="#231F20" stroke-width="0.5" points="23.3896295 4.53202083 26.5778047 4.53202083 26.5778047 0.958541667 23.3896295 0.958541667"></polygon>
                <polygon id="Stroke-317" stroke="#231F20" stroke-width="0.5" points="87.1692763 7.02960417 96.9597992 7.02960417 96.9597992 4.531125 87.1692763 4.531125"></polygon>
                <polygon id="Fill-318" fill="#FEFEFE" points="88.2786357 13.0334792 95.8486461 13.0334792 95.8486461 7.02960417 88.2786357 7.02960417"></polygon>
                <polygon id="Stroke-319" stroke="#231F20" stroke-width="0.5" points="88.2786357 13.0334792 95.8486461 13.0334792 95.8486461 7.02960417 88.2786357 7.02960417"></polygon>
                <polygon id="Stroke-320" stroke="#231F20" stroke-width="0.5" points="90.4704501 4.53202083 93.6586253 4.53202083 93.6586253 0.958541667 90.4704501 0.958541667"></polygon>
                <polygon id="Triangle-Copy-3" fill="#000000" points="11 70.5 0 65 0 76"></polygon>
            </g>
        </g>
    </g>
</svg>