<?xml version="1.0" encoding="UTF-8"?>
<svg width="88px" height="57px" viewBox="0 0 88 57" version="1.1" xmlns="http://www.w3.org/2000/svg" xmlns:xlink="http://www.w3.org/1999/xlink">
    <!-- Generator: Sketch 47 (45396) - http://www.bohemiancoding.com/sketch -->
    <title>park-home</title>
    <desc>Created with Sketch.</desc>
    <defs></defs>
    <g id="Supply" stroke="none" stroke-width="1" fill="none" fill-rule="evenodd">
        <g id="park-home" stroke-width="0.5" stroke="#231F20">
            <g id="Group-32">
                <polygon id="Stroke-461" points="13.0101731 36.5819167 39.1065755 36.5819167 39.1065755 20.6799792 13.0101731 20.6799792"></polygon>
                <polygon id="Stroke-462" points="12.1617867 38.2884792 39.9549619 38.2884792 39.9549619 36.5828125 12.1617867 36.5828125"></polygon>
                <polygon id="Stroke-463" points="31.7419356 25.9394167 37.2690028 25.9394167 37.2690028 22.3838542 31.7419356 22.3838542"></polygon>
                <polygon id="Stroke-464" points="23.2544841 25.9394167 28.7824481 25.9394167 28.7824481 22.3838542 23.2544841 22.3838542"></polygon>
                <polygon id="Stroke-465" points="31.7419356 34.7875625 37.2690028 34.7875625 37.2690028 27.732875 31.7419356 27.732875"></polygon>
                <polygon id="Stroke-466" points="23.2544841 34.7875625 28.7824481 34.7875625 28.7824481 27.732875 23.2544841 27.732875"></polygon>
                <polygon id="Stroke-467" points="14.8522299 25.9394167 20.3792971 25.9394167 20.3792971 22.3838542 14.8522299 22.3838542"></polygon>
                <polygon id="Stroke-468" points="14.8522299 34.7875625 20.3792971 34.7875625 20.3792971 27.732875 14.8522299 27.732875"></polygon>
                <polygon id="Stroke-469" points="3.51739266 55.7760417 84.9032999 55.7760417 84.9032999 15.015625 3.51739266 15.015625"></polygon>
                <polygon id="Stroke-470" points="0.854750693 15.015625 87.5668386 15.015625 87.5668386 0.719916667 0.854750693 0.719916667"></polygon>
                <polygon id="Stroke-471" points="3.51739266 55.7760417 84.9032999 55.7760417 84.9032999 42.4505208 3.51739266 42.4505208"></polygon>
                <polygon id="Stroke-472" points="62.1188331 42.4505208 74.6742348 42.4505208 74.6742348 22.8541667 62.1188331 22.8541667"></polygon>
                <polygon id="Stroke-473" points="63.8559626 42.4505208 72.9362084 42.4505208 72.9362084 24.6458333 63.8559626 24.6458333"></polygon>
                <polygon id="Stroke-474" points="65.8316447 31.7847292 70.9605263 31.7847292 70.9605263 26.6614583 65.8316447 26.6614583"></polygon>
                <polygon id="Stroke-475" points="58.5594664 42.4507 54.1130606 42.4507 54.1130606 46.8922417 49.6666548 46.8922417 49.6666548 51.3337833 45.2193521 51.3337833 45.2193521 55.7762208 47.4425551 55.7762208 49.6666548 55.7762208 56.3362635 55.7762208 62.9314366 55.7762208 74.6743244 55.7762208 74.6743244 42.4507"></polygon>
                <polyline id="Stroke-476" stroke-linecap="round" points="44.6614439 44.5783042 53.8537916 36.8517417 76.383563 36.8517417"></polyline>
                <path d="M69.3212393,36.8517417 L69.3212393,42.4507" id="Stroke-477"></path>
                <path d="M58.5594664,36.8517417 L58.5594664,42.4507" id="Stroke-478"></path>
                <path d="M54.0753944,36.8517417 L54.0753944,42.4507" id="Stroke-479"></path>
                <path d="M47.5918747,42.1147625 L47.5918747,51.3337833" id="Stroke-480"></path>
            </g>
        </g>
    </g>
</svg>