<?xml version="1.0" encoding="UTF-8"?>
<svg width="103px" height="77px" viewBox="0 0 103 77" version="1.1" xmlns="http://www.w3.org/2000/svg" xmlns:xlink="http://www.w3.org/1999/xlink">
    <!-- Generator: Sketch 47 (45396) - http://www.bohemiancoding.com/sketch -->
    <title>semi-detached-house</title>
    <desc>Created with Sketch.</desc>
    <defs></defs>
    <g id="Supply" stroke="none" stroke-width="1" fill="none" fill-rule="evenodd">
        <g id="semi-detached-house">
            <g id="Group-25" transform="translate(0.000000, 1.000000)">
                <polygon id="Stroke-30" stroke="#231F20" stroke-width="0.5" points="10.7449723 38.0889792 23.1604709 38.0889792 23.1604709 25.6861667 10.7449723 25.6861667"></polygon>
                <polygon id="Stroke-31" stroke="#231F20" stroke-width="0.5" points="9.89568906 39.7946458 24.0088573 39.7946458 24.0088573 38.0889792 9.89568906 38.0889792"></polygon>
                <polygon id="Stroke-32" stroke="#231F20" stroke-width="0.5" points="12.5816482 30.9456042 16.1411046 30.9456042 16.1411046 27.3900417 12.5816482 27.3900417"></polygon>
                <polygon id="Stroke-33" stroke="#231F20" stroke-width="0.5" points="18.0468352 30.9456042 21.6062916 30.9456042 21.6062916 27.3900417 18.0468352 27.3900417"></polygon>
                <polygon id="Stroke-34" stroke="#231F20" stroke-width="0.5" points="12.5816482 36.294625 16.1411046 36.294625 16.1411046 32.7390625 12.5816482 32.7390625"></polygon>
                <polygon id="Stroke-35" stroke="#231F20" stroke-width="0.5" points="18.0468352 36.294625 21.6062916 36.294625 21.6062916 32.7390625 18.0468352 32.7390625"></polygon>
                <polygon id="Stroke-36" stroke="#231F20" stroke-width="0.5" points="10.7440755 64.9639792 29.6695499 64.9639792 29.6695499 52.5611667 10.7440755 52.5611667"></polygon>
                <polygon id="Stroke-37" stroke="#231F20" stroke-width="0.5" points="9.89568906 66.6696458 30.5179363 66.6696458 30.5179363 64.9639792 9.89568906 64.9639792"></polygon>
                <polygon id="Stroke-38" stroke="#231F20" stroke-width="0.5" points="12.5816482 56.9229792 19.826115 56.9229792 19.826115 54.2650417 12.5816482 54.2650417"></polygon>
                <polygon id="Stroke-39" stroke="#231F20" stroke-width="0.5" points="21.6062916 63.169625 27.8965478 63.169625 27.8965478 54.2659375 21.6062916 54.2659375"></polygon>
                <polygon id="Stroke-40" stroke="#231F20" stroke-width="0.5" points="12.5816482 63.169625 19.826115 63.169625 19.826115 58.7173333 12.5816482 58.7173333"></polygon>
                <polygon id="Stroke-41" stroke="#231F20" stroke-width="0.5" points="33.2792278 38.0889792 45.6947265 38.0889792 45.6947265 25.6861667 33.2792278 25.6861667"></polygon>
                <polygon id="Stroke-42" stroke="#231F20" stroke-width="0.5" points="32.4299446 39.7946458 46.5422161 39.7946458 46.5422161 38.0889792 32.4299446 38.0889792"></polygon>
                <polygon id="Stroke-43" stroke="#231F20" stroke-width="0.5" points="35.1150069 30.9456042 38.6744633 30.9456042 38.6744633 27.3900417 35.1150069 27.3900417"></polygon>
                <polygon id="Stroke-44" stroke="#231F20" stroke-width="0.5" points="40.5801939 30.9456042 44.1396503 30.9456042 44.1396503 27.3900417 40.5801939 27.3900417"></polygon>
                <polygon id="Stroke-45" stroke="#231F20" stroke-width="0.5" points="35.1150069 36.294625 38.6744633 36.294625 38.6744633 32.7390625 35.1150069 32.7390625"></polygon>
                <polygon id="Stroke-46" stroke="#231F20" stroke-width="0.5" points="40.5801939 36.294625 44.1396503 36.294625 44.1396503 32.7390625 40.5801939 32.7390625"></polygon>
                <path d="M40.8389249,51.9324708 C38.1682116,51.9324708 35.9835717,54.1147208 35.9835717,56.7816167 L35.9835717,74.7762208 L45.694278,74.7762208 L45.694278,56.7816167 C45.694278,54.1147208 43.5096382,51.9324708 40.8389249,51.9324708 Z" id="Stroke-47" stroke="#231F20" stroke-width="0.5"></path>
                <polygon id="Stroke-48" stroke="#231F20" stroke-width="0.5" points="37.6180159 69.3266875 44.1396503 69.3266875 44.1396503 56.7814375 37.6180159 56.7814375"></polygon>
                <path d="M35.9839304,71.2672417 L45.6946368,71.2672417" id="Stroke-49" stroke="#231F20" stroke-width="0.5"></path>
                <polygon id="Stroke-50" stroke="#231F20" stroke-width="0.5" points="6.37927978 74.7760417 96.0607202 74.7760417 96.0607202 20.4285208 6.37927978 20.4285208"></polygon>
                <polygon id="Stroke-51" stroke="#231F20" stroke-width="0.5" points="94.1175028 7.56068125 8.32195914 7.56068125 0.317890582 20.4284313 102.121571 20.4284313"></polygon>
                <polygon id="Stroke-52" stroke="#231F20" stroke-width="0.5" points="81.903608 3.43366667 91.6941309 3.43366667 91.6941309 0.172833333 81.903608 0.172833333"></polygon>
                <polygon id="Fill-53" fill="#FEFEFE" points="83.0138643 9.4384375 90.5838747 9.4384375 90.5838747 3.4345625 83.0138643 3.4345625"></polygon>
                <polygon id="Stroke-54" stroke="#231F20" stroke-width="0.5" points="83.0138643 9.4384375 90.5838747 9.4384375 90.5838747 3.4345625 83.0138643 3.4345625"></polygon>
                <polygon id="Stroke-55" stroke="#231F20" stroke-width="0.5" points="79.2786323 38.0889792 91.6941309 38.0889792 91.6941309 25.6861667 79.2786323 25.6861667"></polygon>
                <polygon id="Stroke-56" stroke="#231F20" stroke-width="0.5" points="78.4302458 39.7946458 92.5434141 39.7946458 92.5434141 38.0889792 78.4302458 38.0889792"></polygon>
                <polygon id="Stroke-57" stroke="#231F20" stroke-width="0.5" points="86.2979986 30.9456042 89.857455 30.9456042 89.857455 27.3900417 86.2979986 27.3900417"></polygon>
                <polygon id="Stroke-58" stroke="#231F20" stroke-width="0.5" points="80.8337084 30.9456042 84.3931648 30.9456042 84.3931648 27.3900417 80.8337084 27.3900417"></polygon>
                <polygon id="Stroke-59" stroke="#231F20" stroke-width="0.5" points="86.2979986 36.294625 89.857455 36.294625 89.857455 32.7390625 86.2979986 32.7390625"></polygon>
                <polygon id="Stroke-60" stroke="#231F20" stroke-width="0.5" points="80.8337084 36.294625 84.3931648 36.294625 84.3931648 32.7390625 80.8337084 32.7390625"></polygon>
                <polygon id="Stroke-61" stroke="#231F20" stroke-width="0.5" points="72.7695533 64.9639792 91.6950277 64.9639792 91.6950277 52.5611667 72.7695533 52.5611667"></polygon>
                <polygon id="Stroke-62" stroke="#231F20" stroke-width="0.5" points="71.9211669 66.6696458 92.5434141 66.6696458 92.5434141 64.9639792 71.9211669 64.9639792"></polygon>
                <polygon id="Stroke-63" stroke="#231F20" stroke-width="0.5" points="82.6129882 56.9229792 89.857455 56.9229792 89.857455 54.2650417 82.6129882 54.2650417"></polygon>
                <polygon id="Stroke-64" stroke="#231F20" stroke-width="0.5" points="74.5434522 63.169625 80.8337084 63.169625 80.8337084 54.2659375 74.5434522 54.2659375"></polygon>
                <polygon id="Stroke-65" stroke="#231F20" stroke-width="0.5" points="82.6129882 63.169625 89.857455 63.169625 89.857455 58.7173333 82.6129882 58.7173333"></polygon>
                <polygon id="Stroke-66" stroke="#231F20" stroke-width="0.5" points="56.7452735 38.0889792 69.1607722 38.0889792 69.1607722 25.6861667 56.7452735 25.6861667"></polygon>
                <polygon id="Stroke-67" stroke="#231F20" stroke-width="0.5" points="55.8968871 39.7946458 70.0100554 39.7946458 70.0100554 38.0889792 55.8968871 38.0889792"></polygon>
                <polygon id="Stroke-68" stroke="#231F20" stroke-width="0.5" points="63.7646399 30.9456042 67.3240963 30.9456042 67.3240963 27.3900417 63.7646399 27.3900417"></polygon>
                <polygon id="Stroke-69" stroke="#231F20" stroke-width="0.5" points="58.2994529 30.9456042 61.8589093 30.9456042 61.8589093 27.3900417 58.2994529 27.3900417"></polygon>
                <polygon id="Stroke-70" stroke="#231F20" stroke-width="0.5" points="63.7646399 36.294625 67.3240963 36.294625 67.3240963 32.7390625 63.7646399 32.7390625"></polygon>
                <polygon id="Stroke-71" stroke="#231F20" stroke-width="0.5" points="58.2994529 36.294625 61.8589093 36.294625 61.8589093 32.7390625 58.2994529 32.7390625"></polygon>
                <path d="M61.6000886,51.9324708 C64.2708019,51.9324708 66.4554418,54.1147208 66.4554418,56.7816167 L66.4554418,74.7762208 L56.7447355,74.7762208 L56.7447355,56.7816167 C56.7447355,54.1147208 58.9293753,51.9324708 61.6000886,51.9324708 Z" id="Stroke-72" stroke="#231F20" stroke-width="0.5"></path>
                <polygon id="Stroke-73" stroke="#231F20" stroke-width="0.5" points="58.2994529 69.3266875 64.8210873 69.3266875 64.8210873 56.7814375 58.2994529 56.7814375"></polygon>
                <path d="M66.4555315,71.2672417 L56.7448251,71.2672417" id="Stroke-74" stroke="#231F20" stroke-width="0.5"></path>
                <polygon id="Stroke-75" stroke="#231F20" stroke-width="0.5" points="10.7449723 3.43366667 20.5354952 3.43366667 20.5354952 0.172833333 10.7449723 0.172833333"></polygon>
                <polygon id="Fill-76" fill="#FEFEFE" points="11.8552285 9.4384375 19.4252389 9.4384375 19.4252389 3.4345625 11.8552285 3.4345625"></polygon>
                <polygon id="Stroke-77" stroke="#231F20" stroke-width="0.5" points="11.8552285 9.4384375 19.4252389 9.4384375 19.4252389 3.4345625 11.8552285 3.4345625"></polygon>
            </g>
        </g>
    </g>
</svg>