<?xml version="1.0" encoding="UTF-8"?>
<svg width="98px" height="130px" viewBox="0 0 98 130" version="1.1" xmlns="http://www.w3.org/2000/svg" xmlns:xlink="http://www.w3.org/1999/xlink">
    <!-- Generator: Sketch 47 (45396) - http://www.bohemiancoding.com/sketch -->
    <title>top-floor-flat</title>
    <desc>Created with Sketch.</desc>
    <defs></defs>
    <g id="Supply" stroke="none" stroke-width="1" fill="none" fill-rule="evenodd">
        <g id="top-floor-flat">
            <g id="Group-29">
                <polygon id="Stroke-321" stroke="#231F20" stroke-width="0.5" points="14.8785422 127.374958 97.6841066 127.374958 97.6841066 21.9649375 14.8785422 21.9649375"></polygon>
                <polygon id="Stroke-322" stroke="#231F20" stroke-width="0.5" points="14.8785422 59.5451458 40.8556683 59.5451458 40.8556683 57.9774375 14.8785422 57.9774375"></polygon>
                <polygon id="Stroke-323" stroke="#231F20" stroke-width="0.5" points="14.8785422 59.5451458 97.6841066 59.5451458 97.6841066 57.9774375 14.8785422 57.9774375"></polygon>
                <polygon id="Stroke-324" stroke="#231F20" stroke-width="0.5" points="14.8785422 61.1128542 40.8556683 61.1128542 40.8556683 59.5451458 14.8785422 59.5451458"></polygon>
                <polygon id="Stroke-325" stroke="#231F20" stroke-width="0.5" points="46.1549446 59.5451458 67.7242278 59.5451458 67.7242278 57.9774375 46.1549446 57.9774375"></polygon>
                <polygon id="Stroke-326" stroke="#231F20" stroke-width="0.5" points="14.8785422 84.7655417 40.8556683 84.7655417 40.8556683 82.3064792 14.8785422 82.3064792"></polygon>
                <polygon id="Stroke-327" stroke="#231F20" stroke-width="0.5" points="14.8785422 84.7655417 97.6841066 84.7655417 97.6841066 82.3064792 14.8785422 82.3064792"></polygon>
                <polygon id="Stroke-328" stroke="#231F20" stroke-width="0.5" points="47.0849411 84.7655417 66.935928 84.7655417 66.935928 82.3064792 47.0849411 82.3064792"></polygon>
                <polygon id="Stroke-329" stroke="#231F20" stroke-width="0.5" points="16.619259 82.3064792 39.1140547 82.3064792 39.1140547 61.1128542 16.619259 61.1128542"></polygon>
                <polygon id="Stroke-330" stroke="#231F20" stroke-width="0.5" points="48.0418421 82.3064792 65.9781302 82.3064792 65.9781302 59.5451458 48.0418421 59.5451458"></polygon>
                <polygon id="Stroke-331" stroke="#231F20" stroke-width="0.5" points="18.4469668 79.2794583 21.9786219 79.2794583 21.9786219 64.1067292 18.4469668 64.1067292"></polygon>
                <polygon id="Stroke-332" stroke="#231F20" stroke-width="0.5" points="33.7484141 79.2794583 37.2800693 79.2794583 37.2800693 64.1067292 33.7484141 64.1067292"></polygon>
                <polygon id="Stroke-333" stroke="#231F20" stroke-width="0.5" points="24.7802701 79.2794583 30.9476627 79.2794583 30.9476627 64.1067292 24.7802701 64.1067292"></polygon>
                <polygon id="Stroke-334" stroke="#231F20" stroke-width="0.5" points="49.8596849 79.2794583 56.0270776 79.2794583 56.0270776 62.3482083 49.8596849 62.3482083"></polygon>
                <polygon id="Stroke-335" stroke="#231F20" stroke-width="0.5" points="57.9615062 79.2794583 64.1288989 79.2794583 64.1288989 62.3482083 57.9615062 62.3482083"></polygon>
                <polygon id="Stroke-336" stroke="#231F20" stroke-width="0.5" points="73.1714785 59.5451458 94.7407618 59.5451458 94.7407618 57.9774375 73.1714785 57.9774375"></polygon>
                <polygon id="Stroke-337" stroke="#231F20" stroke-width="0.5" points="74.1014751 84.7655417 93.9524619 84.7655417 93.9524619 82.3064792 74.1014751 82.3064792"></polygon>
                <polygon id="Stroke-338" stroke="#231F20" stroke-width="0.5" points="75.058376 82.3064792 92.9946641 82.3064792 92.9946641 59.5451458 75.058376 59.5451458"></polygon>
                <polygon id="Stroke-339" stroke="#231F20" stroke-width="0.5" points="76.8762188 79.2794583 83.0436115 79.2794583 83.0436115 62.3482083 76.8762188 62.3482083"></polygon>
                <polygon id="Stroke-340" stroke="#231F20" stroke-width="0.5" points="84.9780402 79.2794583 91.1454328 79.2794583 91.1454328 62.3482083 84.9780402 62.3482083"></polygon>
                <polygon id="Stroke-341" stroke="#231F20" stroke-width="0.5" points="14.8785422 95.1545208 40.8556683 95.1545208 40.8556683 93.5868125 14.8785422 93.5868125"></polygon>
                <polygon id="Stroke-342" stroke="#231F20" stroke-width="0.5" points="14.8785422 95.1545208 97.6841066 95.1545208 97.6841066 93.5868125 14.8785422 93.5868125"></polygon>
                <polygon id="Stroke-343" stroke="#231F20" stroke-width="0.5" points="14.8785422 96.7222292 40.8556683 96.7222292 40.8556683 95.1545208 14.8785422 95.1545208"></polygon>
                <polygon id="Stroke-344" stroke="#231F20" stroke-width="0.5" points="46.1549446 95.1545208 67.7242278 95.1545208 67.7242278 93.5868125 46.1549446 93.5868125"></polygon>
                <polygon id="Stroke-345" stroke="#231F20" stroke-width="0.5" points="14.8785422 120.374917 40.8556683 120.374917 40.8556683 117.915854 14.8785422 117.915854"></polygon>
                <polygon id="Stroke-346" stroke="#231F20" stroke-width="0.5" points="47.0849411 120.374917 66.935928 120.374917 66.935928 117.915854 47.0849411 117.915854"></polygon>
                <polygon id="Stroke-347" stroke="#231F20" stroke-width="0.5" points="16.619259 117.915854 39.1140547 117.915854 39.1140547 96.7222292 16.619259 96.7222292"></polygon>
                <polygon id="Stroke-348" stroke="#231F20" stroke-width="0.5" points="48.0418421 117.915854 65.9781302 117.915854 65.9781302 95.1545208 48.0418421 95.1545208"></polygon>
                <polygon id="Stroke-349" stroke="#231F20" stroke-width="0.5" points="18.4469668 114.888833 21.9786219 114.888833 21.9786219 99.7161042 18.4469668 99.7161042"></polygon>
                <polygon id="Stroke-350" stroke="#231F20" stroke-width="0.5" points="33.7484141 114.888833 37.2800693 114.888833 37.2800693 99.7161042 33.7484141 99.7161042"></polygon>
                <polygon id="Stroke-351" stroke="#231F20" stroke-width="0.5" points="24.7802701 114.888833 30.9476627 114.888833 30.9476627 99.7161042 24.7802701 99.7161042"></polygon>
                <polygon id="Stroke-352" stroke="#231F20" stroke-width="0.5" points="49.8596849 114.888833 56.0270776 114.888833 56.0270776 97.9575833 49.8596849 97.9575833"></polygon>
                <polygon id="Stroke-353" stroke="#231F20" stroke-width="0.5" points="57.9615062 114.888833 64.1288989 114.888833 64.1288989 97.9575833 57.9615062 97.9575833"></polygon>
                <polygon id="Fill-354" fill="#FEFEFE" points="73.1714785 95.1545208 94.7407618 95.1545208 94.7407618 92.6614167 73.1714785 92.6614167"></polygon>
                <polygon id="Stroke-355" stroke="#231F20" stroke-width="0.5" points="73.1714785 95.1545208 94.7407618 95.1545208 94.7407618 92.6614167 73.1714785 92.6614167"></polygon>
                <polygon id="Fill-356" fill="#FEFEFE" points="73.7866932 97.9575833 94.1246503 97.9575833 94.1246503 95.1545208 73.7866932 95.1545208"></polygon>
                <polygon id="Stroke-357" stroke="#231F20" stroke-width="0.5" points="73.7866932 97.9575833 94.1246503 97.9575833 94.1246503 95.1545208 73.7866932 95.1545208"></polygon>
                <polygon id="Stroke-358" stroke="#231F20" stroke-width="0.5" points="75.058376 127.374958 92.9946641 127.374958 92.9946641 97.9575833 75.058376 97.9575833"></polygon>
                <polygon id="Stroke-359" stroke="#231F20" stroke-width="0.5" points="78.5057306 113.485063 89.5060561 113.485063 89.5060561 100.889646 78.5057306 100.889646"></polygon>
                <polygon id="Fill-360" fill="#FEFEFE" points="74.9166794 128.776042 92.9946641 128.776042 92.9946641 125.972083 74.9166794 125.972083"></polygon>
                <polygon id="Stroke-361" stroke="#231F20" stroke-width="0.5" points="74.9166794 128.776042 92.9946641 128.776042 92.9946641 125.972083 74.9166794 125.972083"></polygon>
                <polygon id="Stroke-362" stroke="#231F20" stroke-width="0.5" points="14.8785422 23.5326458 40.8556683 23.5326458 40.8556683 21.9649375 14.8785422 21.9649375"></polygon>
                <polygon id="Stroke-363" stroke="#231F20" stroke-width="0.5" points="14.8785422 23.5326458 97.6841066 23.5326458 97.6841066 21.9649375 14.8785422 21.9649375"></polygon>
                <polygon id="Stroke-364" stroke="#231F20" stroke-width="0.5" points="14.8785422 25.1003542 40.8556683 25.1003542 40.8556683 23.5326458 14.8785422 23.5326458"></polygon>
                <polygon id="Stroke-365" stroke="#231F20" stroke-width="0.5" points="46.1549446 23.5326458 67.7242278 23.5326458 67.7242278 21.9649375 46.1549446 21.9649375"></polygon>
                <polygon id="Stroke-366" stroke="#231F20" stroke-width="0.5" points="14.8785422 48.7530417 40.8556683 48.7530417 40.8556683 46.2939792 14.8785422 46.2939792"></polygon>
                <polygon id="Stroke-367" stroke="#231F20" stroke-width="0.5" points="14.8785422 48.7530417 97.6841066 48.7530417 97.6841066 46.2939792 14.8785422 46.2939792"></polygon>
                <polygon id="Stroke-368" stroke="#231F20" stroke-width="0.5" points="47.0849411 48.7530417 66.935928 48.7530417 66.935928 46.2939792 47.0849411 46.2939792"></polygon>
                <polygon id="Stroke-369" stroke="#231F20" stroke-width="0.5" points="16.619259 46.2939792 39.1140547 46.2939792 39.1140547 25.1003542 16.619259 25.1003542"></polygon>
                <polygon id="Stroke-370" stroke="#231F20" stroke-width="0.5" points="48.0418421 46.2939792 65.9781302 46.2939792 65.9781302 23.5326458 48.0418421 23.5326458"></polygon>
                <polygon id="Stroke-371" stroke="#231F20" stroke-width="0.5" points="18.4469668 43.2669583 21.9786219 43.2669583 21.9786219 28.0933333 18.4469668 28.0933333"></polygon>
                <polygon id="Stroke-372" stroke="#231F20" stroke-width="0.5" points="33.7484141 43.2669583 37.2800693 43.2669583 37.2800693 28.0933333 33.7484141 28.0933333"></polygon>
                <polygon id="Stroke-373" stroke="#231F20" stroke-width="0.5" points="24.7802701 43.2669583 30.9476627 43.2669583 30.9476627 28.0933333 24.7802701 28.0933333"></polygon>
                <polygon id="Stroke-374" stroke="#231F20" stroke-width="0.5" points="49.8596849 43.2669583 56.0270776 43.2669583 56.0270776 26.3357083 49.8596849 26.3357083"></polygon>
                <polygon id="Stroke-375" stroke="#231F20" stroke-width="0.5" points="57.9615062 43.2669583 64.1288989 43.2669583 64.1288989 26.3357083 57.9615062 26.3357083"></polygon>
                <polygon id="Stroke-376" stroke="#231F20" stroke-width="0.5" points="73.1714785 23.5326458 94.7407618 23.5326458 94.7407618 21.9649375 73.1714785 21.9649375"></polygon>
                <polygon id="Stroke-377" stroke="#231F20" stroke-width="0.5" points="74.1014751 48.7530417 93.9524619 48.7530417 93.9524619 46.2939792 74.1014751 46.2939792"></polygon>
                <polygon id="Stroke-378" stroke="#231F20" stroke-width="0.5" points="75.058376 46.2939792 92.9946641 46.2939792 92.9946641 23.5326458 75.058376 23.5326458"></polygon>
                <polygon id="Stroke-379" stroke="#231F20" stroke-width="0.5" points="76.8762188 43.2669583 83.0436115 43.2669583 83.0436115 26.3357083 76.8762188 26.3357083"></polygon>
                <polygon id="Stroke-380" stroke="#231F20" stroke-width="0.5" points="84.9780402 43.2669583 91.1454328 43.2669583 91.1454328 26.3357083 84.9780402 26.3357083"></polygon>
                <path d="M89.5058767,116.416498 C89.5058767,116.858144 89.1480478,117.216477 88.7050215,117.216477 C88.262892,117.216477 87.905063,116.858144 87.905063,116.416498 C87.905063,115.974852 88.262892,115.616519 88.7050215,115.616519 C89.1480478,115.616519 89.5058767,115.974852 89.5058767,116.416498" id="Fill-381" fill="#231F20"></path>
                <polygon id="Stroke-382" stroke="#231F20" stroke-width="0.5" points="14.8785422 21.9649375 97.6841066 21.9649375 97.6841066 10.3191042 14.8785422 10.3191042"></polygon>
                <polygon id="Stroke-383" stroke="#231F20" stroke-width="0.5" points="17.8461011 7.02960417 27.636624 7.02960417 27.636624 4.531125 17.8461011 4.531125"></polygon>
                <polygon id="Fill-384" fill="#FEFEFE" points="18.9563573 13.0334792 26.5263677 13.0334792 26.5263677 7.02960417 18.9563573 7.02960417"></polygon>
                <polygon id="Stroke-385" stroke="#231F20" stroke-width="0.5" points="18.9563573 13.0334792 26.5263677 13.0334792 26.5263677 7.02960417 18.9563573 7.02960417"></polygon>
                <polygon id="Stroke-386" stroke="#231F20" stroke-width="0.5" points="21.1472749 4.53202083 24.3345533 4.53202083 24.3345533 0.958541667 21.1472749 0.958541667"></polygon>
                <polygon id="Stroke-387" stroke="#231F20" stroke-width="0.5" points="84.9260249 7.02960417 94.7174446 7.02960417 94.7174446 4.531125 84.9260249 4.531125"></polygon>
                <polygon id="Fill-388" fill="#FEFEFE" points="86.037178 13.0334792 93.6071884 13.0334792 93.6071884 7.02960417 86.037178 7.02960417"></polygon>
                <polygon id="Stroke-389" stroke="#231F20" stroke-width="0.5" points="86.037178 13.0334792 93.6071884 13.0334792 93.6071884 7.02960417 86.037178 7.02960417"></polygon>
                <polygon id="Stroke-390" stroke="#231F20" stroke-width="0.5" points="88.2280956 4.53202083 91.4162708 4.53202083 91.4162708 0.958541667 88.2280956 0.958541667"></polygon>
                <polygon id="Triangle-Copy-4" fill="#000000" points="11 34.5 0 29 0 40"></polygon>
            </g>
        </g>
    </g>
</svg>