<?xml version="1.0" encoding="UTF-8"?>
<svg width="240px" height="150px" viewBox="0 0 240 150" version="1.1" xmlns="http://www.w3.org/2000/svg" xmlns:xlink="http://www.w3.org/1999/xlink">
    <!-- Generator: Sketch 47.1 (45422) - http://www.bohemiancoding.com/sketch -->
    <title>images/mini-epc-e</title>
    <desc>Created with Sketch.</desc>
    <defs></defs>
    <g id="Assets" stroke="none" stroke-width="1" fill="none" fill-rule="evenodd">
        <g id="images/mini-epc-e">
            <rect id="Rectangle-16" fill="#417505" x="0" y="3" width="80" height="16"></rect>
            <rect id="Rectangle-16-Copy" fill="#70BD1C" x="0" y="24" width="100" height="16"></rect>
            <rect id="Rectangle-16-Copy-2" fill="#72E300" x="0" y="45" width="120" height="16"></rect>
            <rect id="Rectangle-16-Copy-3" fill="#F8E71C" x="0" y="66" width="140" height="16"></rect>
            <rect id="Rectangle-16-Copy-4" fill="#F5A623" x="0" y="87" width="160" height="16"></rect>
            <rect id="Rectangle-16-Copy-5" fill="#F57023" x="0" y="108" width="180" height="16"></rect>
            <rect id="Rectangle-16-Copy-6" fill="#D0021B" x="0" y="129" width="200" height="16"></rect>
            <path d="M100.436,17 L97.86,17 L96.836,14.488 L92.1,14.488 L91.076,17 L88.564,17 L93.364,5.72 L95.636,5.72 L100.436,17 Z M95.956,12.312 L94.468,8.68 L92.98,12.312 L95.956,12.312 Z" id="A" fill="#417505"></path>
            <path d="M119.588,33.928 C119.588,35.976 117.924,37 115.396,37 L110.068,37 L110.068,25.8 L115.268,25.8 C117.556,25.8 118.964,26.936 118.964,28.696 L118.964,28.728 C118.964,29.992 118.292,30.696 117.492,31.144 C118.788,31.64 119.588,32.392 119.588,33.896 L119.588,33.928 Z M116.516,29.144 L116.516,29.112 C116.516,28.376 115.94,27.96 114.9,27.96 L112.468,27.96 L112.468,30.328 L114.74,30.328 C115.828,30.328 116.516,29.976 116.516,29.144 Z M117.14,33.624 L117.14,33.592 C117.14,32.84 116.58,32.376 115.316,32.376 L112.468,32.376 L112.468,34.84 L115.396,34.84 C116.484,34.84 117.14,34.456 117.14,33.624 Z" id="B" fill="#70BD1C"></path>
            <path d="M139.78,56.192 L138.212,54.608 C137.332,55.408 136.548,55.92 135.268,55.92 C133.348,55.92 132.02,54.32 132.02,52.4 L132.02,52.368 C132.02,50.448 133.38,48.88 135.268,48.88 C136.388,48.88 137.268,49.36 138.132,50.144 L139.7,48.336 C138.66,47.312 137.396,46.608 135.284,46.608 C131.844,46.608 129.444,49.216 129.444,52.4 L129.444,52.432 C129.444,55.648 131.892,58.192 135.188,58.192 C137.348,58.192 138.628,57.424 139.78,56.192 Z" id="C" fill="#72E300"></path>
            <path d="M159.908,73.4 C159.908,76.552 157.476,79 153.956,79 L149.588,79 L149.588,67.8 L153.956,67.8 C157.476,67.8 159.908,70.216 159.908,73.368 L159.908,73.4 Z M157.332,73.432 L157.332,73.4 C157.332,71.416 155.972,70.024 153.956,70.024 L152.052,70.024 L152.052,76.776 L153.956,76.776 C155.972,76.776 157.332,75.416 157.332,73.432 Z" id="D" fill="#F8E71C"></path>
            <polygon id="E" fill="#F5A623" points="179.012 100 179.012 97.808 172.932 97.808 172.932 95.456 178.212 95.456 178.212 93.264 172.932 93.264 172.932 90.992 178.932 90.992 178.932 88.8 170.484 88.8 170.484 100"></polygon>
            <polygon id="F" fill="#F57023" points="199.124 112.04 199.124 109.8 190.596 109.8 190.596 121 193.06 121 193.06 116.664 198.404 116.664 198.404 114.424 193.06 114.424 193.06 112.04"></polygon>
            <path d="M219.748,141.416 L219.748,136.552 L214.884,136.552 L214.884,138.68 L217.364,138.68 L217.364,140.28 C216.74,140.728 215.94,140.952 215.044,140.952 C213.06,140.952 211.652,139.448 211.652,137.4 L211.652,137.368 C211.652,135.464 213.076,133.88 214.868,133.88 C216.164,133.88 216.932,134.296 217.796,135.016 L219.348,133.144 C218.18,132.152 216.964,131.608 214.948,131.608 C211.556,131.608 209.076,134.216 209.076,137.4 L209.076,137.432 C209.076,140.744 211.476,143.192 214.964,143.192 C217.012,143.192 218.596,142.392 219.748,141.416 Z" id="G" fill="#D0021B"></path>
            <path d="M12.589,10.93 C12.589,13.416 11.357,15.132 9.289,15.132 C8.222,15.132 7.474,14.747 6.825,14.208 L7.562,13.174 C8.145,13.669 8.662,13.9 9.322,13.9 C10.455,13.9 11.137,12.899 11.181,11.48 C10.796,11.942 10.202,12.294 9.377,12.294 C7.738,12.294 6.649,11.337 6.649,9.841 C6.649,8.323 7.815,7.168 9.52,7.168 C10.488,7.168 11.115,7.443 11.654,7.982 C12.226,8.554 12.589,9.401 12.589,10.93 Z M11.137,9.764 C11.137,8.95 10.51,8.334 9.531,8.334 C8.574,8.334 8.002,8.972 8.002,9.775 C8.002,10.589 8.618,11.161 9.575,11.161 C10.554,11.161 11.137,10.523 11.137,9.764 Z M16.604,8.4 C17.308,8.4 17.847,8.84 17.847,9.599 C17.847,10.292 17.462,10.787 16.406,11.678 L13.755,13.933 L13.755,15 L19.321,15 L19.321,13.812 L15.658,13.812 L17.242,12.492 C18.606,11.381 19.244,10.721 19.244,9.5 C19.244,8.125 18.243,7.19 16.703,7.19 C15.328,7.19 14.602,7.773 13.865,8.807 L14.822,9.555 C15.416,8.785 15.9,8.4 16.604,8.4 Z M23.831,12.283 L23.831,10.974 L20.575,10.974 L20.575,12.283 L23.831,12.283 Z M24.733,7.905 L25.019,9.005 L26.405,8.62 L26.405,15 L27.747,15 L27.747,7.245 L26.801,7.245 L24.733,7.905 Z M36.14,11.139 C36.14,13.35 34.798,15.132 32.774,15.132 C30.75,15.132 29.43,13.372 29.43,11.161 C29.43,8.95 30.772,7.168 32.796,7.168 C34.82,7.168 36.14,8.928 36.14,11.139 Z M34.743,11.161 C34.743,9.632 33.973,8.389 32.774,8.389 C31.575,8.389 30.827,9.599 30.827,11.139 C30.827,12.679 31.597,13.911 32.796,13.911 C33.995,13.911 34.743,12.69 34.743,11.161 Z M44.104,11.139 C44.104,13.35 42.762,15.132 40.738,15.132 C38.714,15.132 37.394,13.372 37.394,11.161 C37.394,8.95 38.736,7.168 40.76,7.168 C42.784,7.168 44.104,8.928 44.104,11.139 Z M42.707,11.161 C42.707,9.632 41.937,8.389 40.738,8.389 C39.539,8.389 38.791,9.599 38.791,11.139 C38.791,12.679 39.561,13.911 40.76,13.911 C41.959,13.911 42.707,12.69 42.707,11.161 Z" id="92-100" fill="#FFFFFF"></path>
            <path d="M6.286,133.905 L6.572,135.005 L7.958,134.62 L7.958,141 L9.3,141 L9.3,133.245 L8.354,133.245 L6.286,133.905 Z M14.228,138.283 L14.228,136.974 L10.972,136.974 L10.972,138.283 L14.228,138.283 Z M18.232,134.4 C18.936,134.4 19.475,134.84 19.475,135.599 C19.475,136.292 19.09,136.787 18.034,137.678 L15.383,139.933 L15.383,141 L20.949,141 L20.949,139.812 L17.286,139.812 L18.87,138.492 C20.234,137.381 20.872,136.721 20.872,135.5 C20.872,134.125 19.871,133.19 18.331,133.19 C16.956,133.19 16.23,133.773 15.493,134.807 L16.45,135.555 C17.044,134.785 17.528,134.4 18.232,134.4 Z M28.924,137.139 C28.924,139.35 27.582,141.132 25.558,141.132 C23.534,141.132 22.214,139.372 22.214,137.161 C22.214,134.95 23.556,133.168 25.58,133.168 C27.604,133.168 28.924,134.928 28.924,137.139 Z M27.527,137.161 C27.527,135.632 26.757,134.389 25.558,134.389 C24.359,134.389 23.611,135.599 23.611,137.139 C23.611,138.679 24.381,139.911 25.58,139.911 C26.779,139.911 27.527,138.69 27.527,137.161 Z" id="1-20" fill="#FFFFFF"></path>
            <path d="M9.388,113.4 C10.092,113.4 10.631,113.84 10.631,114.599 C10.631,115.292 10.246,115.787 9.19,116.678 L6.539,118.933 L6.539,120 L12.105,120 L12.105,118.812 L8.442,118.812 L10.026,117.492 C11.39,116.381 12.028,115.721 12.028,114.5 C12.028,113.125 11.027,112.19 9.487,112.19 C8.112,112.19 7.386,112.773 6.649,113.807 L7.606,114.555 C8.2,113.785 8.684,113.4 9.388,113.4 Z M13.029,112.905 L13.315,114.005 L14.701,113.62 L14.701,120 L16.043,120 L16.043,112.245 L15.097,112.245 L13.029,112.905 Z M20.971,117.283 L20.971,115.974 L17.715,115.974 L17.715,117.283 L20.971,117.283 Z M25.822,113.477 L23.743,115.688 L23.963,116.535 L24.59,116.535 C25.679,116.535 26.361,116.964 26.361,117.734 C26.361,118.449 25.789,118.911 25.03,118.911 C24.172,118.911 23.556,118.548 23.006,117.899 L22.06,118.779 C22.709,119.571 23.666,120.132 25.008,120.132 C26.603,120.132 27.703,119.12 27.703,117.69 C27.703,116.249 26.614,115.666 25.437,115.512 L27.582,113.312 L27.582,112.3 L22.489,112.3 L22.489,113.477 L25.822,113.477 Z M34.787,117.866 C34.787,119.252 33.533,120.11 31.85,120.11 C30.167,120.11 28.913,119.23 28.913,117.899 C28.913,116.953 29.43,116.37 30.299,116.007 C29.65,115.666 29.177,115.149 29.177,114.28 C29.177,113.092 30.31,112.19 31.85,112.19 C33.39,112.19 34.523,113.092 34.523,114.28 C34.523,115.149 34.05,115.666 33.401,116.007 C34.237,116.392 34.787,116.942 34.787,117.866 Z M33.225,114.412 C33.225,113.807 32.675,113.323 31.85,113.323 C31.025,113.323 30.475,113.807 30.475,114.401 C30.475,115.083 31.058,115.556 31.85,115.556 C32.642,115.556 33.225,115.083 33.225,114.412 Z M33.467,117.811 C33.467,117.096 32.763,116.634 31.85,116.634 C30.937,116.634 30.233,117.096 30.233,117.811 C30.233,118.46 30.838,118.977 31.85,118.977 C32.862,118.977 33.467,118.46 33.467,117.811 Z" id="21-38" fill="#FFFFFF"></path>
            <path d="M10.235,92.477 L8.156,94.688 L8.376,95.535 L9.003,95.535 C10.092,95.535 10.774,95.964 10.774,96.734 C10.774,97.449 10.202,97.911 9.443,97.911 C8.585,97.911 7.969,97.548 7.419,96.899 L6.473,97.779 C7.122,98.571 8.079,99.132 9.421,99.132 C11.016,99.132 12.116,98.12 12.116,96.69 C12.116,95.249 11.027,94.666 9.85,94.512 L11.995,92.312 L11.995,91.3 L6.902,91.3 L6.902,92.477 L10.235,92.477 Z M19.387,94.93 C19.387,97.416 18.155,99.132 16.087,99.132 C15.02,99.132 14.272,98.747 13.623,98.208 L14.36,97.174 C14.943,97.669 15.46,97.9 16.12,97.9 C17.253,97.9 17.935,96.899 17.979,95.48 C17.594,95.942 17,96.294 16.175,96.294 C14.536,96.294 13.447,95.337 13.447,93.841 C13.447,92.323 14.613,91.168 16.318,91.168 C17.286,91.168 17.913,91.443 18.452,91.982 C19.024,92.554 19.387,93.401 19.387,94.93 Z M17.935,93.764 C17.935,92.95 17.308,92.334 16.329,92.334 C15.372,92.334 14.8,92.972 14.8,93.775 C14.8,94.589 15.416,95.161 16.373,95.161 C17.352,95.161 17.935,94.523 17.935,93.764 Z M23.886,96.283 L23.886,94.974 L20.63,94.974 L20.63,96.283 L23.886,96.283 Z M25.536,95.073 L26.35,95.612 C26.746,95.425 27.219,95.271 27.769,95.271 C28.726,95.271 29.364,95.766 29.364,96.558 C29.364,97.372 28.759,97.9 27.835,97.9 C27.12,97.9 26.471,97.548 25.855,96.976 L25.019,97.955 C25.745,98.659 26.669,99.132 27.846,99.132 C29.551,99.132 30.695,98.098 30.695,96.514 C30.695,94.875 29.529,94.083 28.022,94.083 C27.505,94.083 27.164,94.171 26.801,94.303 L26.922,92.499 L30.354,92.499 L30.354,91.3 L25.756,91.3 L25.536,95.073 Z M36.019,91.245 L37.174,91.245 L37.174,96.162 L38.274,96.162 L38.274,97.273 L37.174,97.273 L37.174,99 L35.876,99 L35.876,97.273 L31.993,97.273 L31.74,96.305 L36.019,91.245 Z M35.876,96.162 L35.876,93.115 L33.346,96.162 L35.876,96.162 Z" id="39-54" fill="#FFFFFF"></path>
            <path d="M7.034,74.073 L7.848,74.612 C8.244,74.425 8.717,74.271 9.267,74.271 C10.224,74.271 10.862,74.766 10.862,75.558 C10.862,76.372 10.257,76.9 9.333,76.9 C8.618,76.9 7.969,76.548 7.353,75.976 L6.517,76.955 C7.243,77.659 8.167,78.132 9.344,78.132 C11.049,78.132 12.193,77.098 12.193,75.514 C12.193,73.875 11.027,73.083 9.52,73.083 C9.003,73.083 8.662,73.171 8.299,73.303 L8.42,71.499 L11.852,71.499 L11.852,70.3 L7.254,70.3 L7.034,74.073 Z M13.876,74.073 L14.69,74.612 C15.086,74.425 15.559,74.271 16.109,74.271 C17.066,74.271 17.704,74.766 17.704,75.558 C17.704,76.372 17.099,76.9 16.175,76.9 C15.46,76.9 14.811,76.548 14.195,75.976 L13.359,76.955 C14.085,77.659 15.009,78.132 16.186,78.132 C17.891,78.132 19.035,77.098 19.035,75.514 C19.035,73.875 17.869,73.083 16.362,73.083 C15.845,73.083 15.504,73.171 15.141,73.303 L15.262,71.499 L18.694,71.499 L18.694,70.3 L14.096,70.3 L13.876,74.073 Z M23.556,75.283 L23.556,73.974 L20.3,73.974 L20.3,75.283 L23.556,75.283 Z M30.453,71.026 L29.727,72.071 C29.188,71.653 28.726,71.4 28.055,71.4 C26.911,71.4 26.273,72.434 26.207,73.842 C26.614,73.446 27.142,73.072 28.044,73.072 C29.54,73.072 30.739,73.952 30.739,75.503 C30.739,77.054 29.496,78.132 27.879,78.132 C26.933,78.132 26.251,77.835 25.734,77.329 C25.151,76.735 24.799,75.932 24.799,74.37 C24.799,72.005 25.921,70.168 28.099,70.168 C29.1,70.168 29.782,70.487 30.453,71.026 Z M29.386,75.558 C29.386,74.777 28.77,74.205 27.813,74.205 C26.856,74.205 26.251,74.821 26.251,75.569 C26.251,76.372 26.878,76.966 27.846,76.966 C28.803,76.966 29.386,76.361 29.386,75.558 Z M37.79,75.866 C37.79,77.252 36.536,78.11 34.853,78.11 C33.17,78.11 31.916,77.23 31.916,75.899 C31.916,74.953 32.433,74.37 33.302,74.007 C32.653,73.666 32.18,73.149 32.18,72.28 C32.18,71.092 33.313,70.19 34.853,70.19 C36.393,70.19 37.526,71.092 37.526,72.28 C37.526,73.149 37.053,73.666 36.404,74.007 C37.24,74.392 37.79,74.942 37.79,75.866 Z M36.228,72.412 C36.228,71.807 35.678,71.323 34.853,71.323 C34.028,71.323 33.478,71.807 33.478,72.401 C33.478,73.083 34.061,73.556 34.853,73.556 C35.645,73.556 36.228,73.083 36.228,72.412 Z M36.47,75.811 C36.47,75.096 35.766,74.634 34.853,74.634 C33.94,74.634 33.236,75.096 33.236,75.811 C33.236,76.46 33.841,76.977 34.853,76.977 C35.865,76.977 36.47,76.46 36.47,75.811 Z" id="55-68" fill="#FFFFFF"></path>
            <path d="M12.281,50.026 L11.555,51.071 C11.016,50.653 10.554,50.4 9.883,50.4 C8.739,50.4 8.101,51.434 8.035,52.842 C8.442,52.446 8.97,52.072 9.872,52.072 C11.368,52.072 12.567,52.952 12.567,54.503 C12.567,56.054 11.324,57.132 9.707,57.132 C8.761,57.132 8.079,56.835 7.562,56.329 C6.979,55.735 6.627,54.932 6.627,53.37 C6.627,51.005 7.749,49.168 9.927,49.168 C10.928,49.168 11.61,49.487 12.281,50.026 Z M11.214,54.558 C11.214,53.777 10.598,53.205 9.641,53.205 C8.684,53.205 8.079,53.821 8.079,54.569 C8.079,55.372 8.706,55.966 9.674,55.966 C10.631,55.966 11.214,55.361 11.214,54.558 Z M19.805,52.93 C19.805,55.416 18.573,57.132 16.505,57.132 C15.438,57.132 14.69,56.747 14.041,56.208 L14.778,55.174 C15.361,55.669 15.878,55.9 16.538,55.9 C17.671,55.9 18.353,54.899 18.397,53.48 C18.012,53.942 17.418,54.294 16.593,54.294 C14.954,54.294 13.865,53.337 13.865,51.841 C13.865,50.323 15.031,49.168 16.736,49.168 C17.704,49.168 18.331,49.443 18.87,49.982 C19.442,50.554 19.805,51.401 19.805,52.93 Z M18.353,51.764 C18.353,50.95 17.726,50.334 16.747,50.334 C15.79,50.334 15.218,50.972 15.218,51.775 C15.218,52.589 15.834,53.161 16.791,53.161 C17.77,53.161 18.353,52.523 18.353,51.764 Z M24.304,54.283 L24.304,52.974 L21.048,52.974 L21.048,54.283 L24.304,54.283 Z M31.322,54.866 C31.322,56.252 30.068,57.11 28.385,57.11 C26.702,57.11 25.448,56.23 25.448,54.899 C25.448,53.953 25.965,53.37 26.834,53.007 C26.185,52.666 25.712,52.149 25.712,51.28 C25.712,50.092 26.845,49.19 28.385,49.19 C29.925,49.19 31.058,50.092 31.058,51.28 C31.058,52.149 30.585,52.666 29.936,53.007 C30.772,53.392 31.322,53.942 31.322,54.866 Z M29.76,51.412 C29.76,50.807 29.21,50.323 28.385,50.323 C27.56,50.323 27.01,50.807 27.01,51.401 C27.01,52.083 27.593,52.556 28.385,52.556 C29.177,52.556 29.76,52.083 29.76,51.412 Z M30.002,54.811 C30.002,54.096 29.298,53.634 28.385,53.634 C27.472,53.634 26.768,54.096 26.768,54.811 C26.768,55.46 27.373,55.977 28.385,55.977 C29.397,55.977 30.002,55.46 30.002,54.811 Z M39.187,53.139 C39.187,55.35 37.845,57.132 35.821,57.132 C33.797,57.132 32.477,55.372 32.477,53.161 C32.477,50.95 33.819,49.168 35.843,49.168 C37.867,49.168 39.187,50.928 39.187,53.139 Z M37.79,53.161 C37.79,51.632 37.02,50.389 35.821,50.389 C34.622,50.389 33.874,51.599 33.874,53.139 C33.874,54.679 34.644,55.911 35.843,55.911 C37.042,55.911 37.79,54.69 37.79,53.161 Z" id="69-80" fill="#FFFFFF"></path>
            <path d="M12.402,33.866 C12.402,35.252 11.148,36.11 9.465,36.11 C7.782,36.11 6.528,35.23 6.528,33.899 C6.528,32.953 7.045,32.37 7.914,32.007 C7.265,31.666 6.792,31.149 6.792,30.28 C6.792,29.092 7.925,28.19 9.465,28.19 C11.005,28.19 12.138,29.092 12.138,30.28 C12.138,31.149 11.665,31.666 11.016,32.007 C11.852,32.392 12.402,32.942 12.402,33.866 Z M10.84,30.412 C10.84,29.807 10.29,29.323 9.465,29.323 C8.64,29.323 8.09,29.807 8.09,30.401 C8.09,31.083 8.673,31.556 9.465,31.556 C10.257,31.556 10.84,31.083 10.84,30.412 Z M11.082,33.811 C11.082,33.096 10.378,32.634 9.465,32.634 C8.552,32.634 7.848,33.096 7.848,33.811 C7.848,34.46 8.453,34.977 9.465,34.977 C10.477,34.977 11.082,34.46 11.082,33.811 Z M13.216,28.905 L13.502,30.005 L14.888,29.62 L14.888,36 L16.23,36 L16.23,28.245 L15.284,28.245 L13.216,28.905 Z M21.158,33.283 L21.158,31.974 L17.902,31.974 L17.902,33.283 L21.158,33.283 Z M28.363,31.93 C28.363,34.416 27.131,36.132 25.063,36.132 C23.996,36.132 23.248,35.747 22.599,35.208 L23.336,34.174 C23.919,34.669 24.436,34.9 25.096,34.9 C26.229,34.9 26.911,33.899 26.955,32.48 C26.57,32.942 25.976,33.294 25.151,33.294 C23.512,33.294 22.423,32.337 22.423,30.841 C22.423,29.323 23.589,28.168 25.294,28.168 C26.262,28.168 26.889,28.443 27.428,28.982 C28,29.554 28.363,30.401 28.363,31.93 Z M26.911,30.764 C26.911,29.95 26.284,29.334 25.305,29.334 C24.348,29.334 23.776,29.972 23.776,30.775 C23.776,31.589 24.392,32.161 25.349,32.161 C26.328,32.161 26.911,31.523 26.911,30.764 Z M29.276,28.905 L29.562,30.005 L30.948,29.62 L30.948,36 L32.29,36 L32.29,28.245 L31.344,28.245 L29.276,28.905 Z" id="81-91" fill="#FFFFFF"></path>
            <polygon id="Triangle-Copy-4" fill="#F5A623" transform="translate(235.500000, 95.500000) rotate(-90.000000) translate(-235.500000, -95.500000) " points="235.5 91 241.5 100 229.5 100"></polygon>
        </g>
    </g>
</svg>