<?xml version="1.0"  encoding="UTF-8"?>
<svg version="1.0" xmlns="http://www.w3.org/2000/svg"
 viewBox="0 0 200 200">
    <g transform="translate(0,200) scale(0.1,-0.1)">
        <path d="M1478 1888 l112 -113 -325 -325 -325 -325 93 -93 92 -92 325 325 325
        325 112 -112 113 -113 0 318 0 317 -317 0 -318 0 113 -112z"/>
        <path d="M0 875 l0 -875 875 0 875 0 0 500 0 500 -125 0 -125 0 0 -375 0 -375
        -625 0 -625 0 0 625 0 625 375 0 375 0 0 125 0 125 -500 0 -500 0 0 -875z"/>
    </g>
</svg>
