<?xml version="1.0" encoding="UTF-8"?>
<svg viewBox="0 0 20 20" version="1.1" xmlns="http://www.w3.org/2000/svg" xmlns:xlink="http://www.w3.org/1999/xlink">
    <!-- Generator: Sketch 47.1 (45422) - http://www.bohemiancoding.com/sketch -->
    <desc>Created with Sketch.</desc>
    <defs></defs>
    <g stroke="none" stroke-width="1" fill-rule="evenodd">
        <g fill-rule="nonzero">
            <path d="M20,4.20454545 C20,3.94886364 19.9526515,3.61505682 19.8579545,3.203125 C19.7632576,2.79119318 19.6638258,2.46685606 19.5596591,2.23011364 C19.3607955,1.75662879 18.7831439,1.25473485 17.8267045,0.724431818 C16.936553,0.241477273 16.0558712,0 15.1846591,0 C14.9289773,0 14.6803977,0.0165719697 14.4389205,0.0497159091 C14.1974432,0.0828598485 13.9251894,0.142045455 13.6221591,0.227272727 C13.3191288,0.3125 13.0942235,0.381155303 12.9474432,0.433238636 C12.8006629,0.48532197 12.5378788,0.582386364 12.1590909,0.724431818 C11.780303,0.866477273 11.5482955,0.951704545 11.4630682,0.980113636 C10.5350379,1.31155303 9.70643939,1.70454545 8.97727273,2.15909091 C7.76515152,2.90719697 6.51278409,3.92755682 5.22017045,5.22017045 C3.92755682,6.51278409 2.90719697,7.76515152 2.15909091,8.97727273 C1.70454545,9.70643939 1.31155303,10.5350379 0.980113636,11.4630682 C0.951704545,11.5482955 0.866477273,11.780303 0.724431818,12.1590909 C0.582386364,12.5378788 0.48532197,12.8006629 0.433238636,12.9474432 C0.381155303,13.0942235 0.3125,13.3191288 0.227272727,13.6221591 C0.142045455,13.9251894 0.0828598485,14.1974432 0.0497159091,14.4389205 C0.0165719697,14.6803977 0,14.9289773 0,15.1846591 C0,16.0558712 0.241477273,16.936553 0.724431818,17.8267045 C1.25473485,18.7831439 1.75662879,19.3607955 2.23011364,19.5596591 C2.46685606,19.6638258 2.79119318,19.7632576 3.203125,19.8579545 C3.61505682,19.9526515 3.94886364,20 4.20454545,20 C4.33712121,20 4.43655303,19.9857955 4.50284091,19.9573864 C4.67329545,19.9005682 4.92424242,19.5407197 5.25568182,18.8778409 C5.35984848,18.6979167 5.50189394,18.4422348 5.68181818,18.1107955 C5.86174242,17.7793561 6.02746212,17.4786932 6.17897727,17.2088068 C6.33049242,16.9389205 6.47727273,16.6856061 6.61931818,16.4488636 C6.64772727,16.4109848 6.73058712,16.2926136 6.86789773,16.09375 C7.00520833,15.8948864 7.10700758,15.7267992 7.17329545,15.5894886 C7.23958333,15.452178 7.27272727,15.3172348 7.27272727,15.1846591 C7.27272727,14.9952652 7.13778409,14.7585227 6.86789773,14.4744318 C6.59801136,14.1903409 6.30445076,13.9299242 5.98721591,13.6931818 C5.66998106,13.4564394 5.37642045,13.2054924 5.10653409,12.9403409 C4.83664773,12.6751894 4.70170455,12.4573864 4.70170455,12.2869318 C4.70170455,12.2017045 4.72537879,12.0951705 4.77272727,11.9673295 C4.82007576,11.8394886 4.86032197,11.7424242 4.89346591,11.6761364 C4.92660985,11.6098485 4.99289773,11.4962121 5.09232955,11.3352273 C5.19176136,11.1742424 5.24621212,11.0842803 5.25568182,11.0653409 C5.97537879,9.76799242 6.79924242,8.65530303 7.72727273,7.72727273 C8.65530303,6.79924242 9.76799242,5.97537879 11.0653409,5.25568182 C11.0842803,5.24621212 11.1742424,5.19176136 11.3352273,5.09232955 C11.4962121,4.99289773 11.6098485,4.92660985 11.6761364,4.89346591 C11.7424242,4.86032197 11.8394886,4.82007576 11.9673295,4.77272727 C12.0951705,4.72537879 12.2017045,4.70170455 12.2869318,4.70170455 C12.4573864,4.70170455 12.6751894,4.83664773 12.9403409,5.10653409 C13.2054924,5.37642045 13.4564394,5.66998106 13.6931818,5.98721591 C13.9299242,6.30445076 14.1903409,6.59801136 14.4744318,6.86789773 C14.7585227,7.13778409 14.9952652,7.27272727 15.1846591,7.27272727 C15.3172348,7.27272727 15.452178,7.23958333 15.5894886,7.17329545 C15.7267992,7.10700758 15.8948864,7.00520833 16.09375,6.86789773 C16.2926136,6.73058712 16.4109848,6.64772727 16.4488636,6.61931818 C16.6856061,6.47727273 16.9389205,6.33049242 17.2088068,6.17897727 C17.4786932,6.02746212 17.7793561,5.86174242 18.1107955,5.68181818 C18.4422348,5.50189394 18.6979167,5.35984848 18.8778409,5.25568182 C19.5407197,4.92424242 19.9005682,4.67329545 19.9573864,4.50284091 C19.9857955,4.43655303 20,4.33712121 20,4.20454545 Z" transform="translate(10.000000, 10.000000) rotate(-90.000000) translate(-10.000000, -10.000000) "></path>
        </g>
    </g>
</svg>