<?xml version="1.0" encoding="UTF-8"?>
<svg width="103px" height="266px" viewBox="0 0 103 266" version="1.1" xmlns="http://www.w3.org/2000/svg" xmlns:xlink="http://www.w3.org/1999/xlink">
    <!-- Generator: Sketch 47.1 (45422) - http://www.bohemiancoding.com/sketch -->
    <desc>Created with Sketch.</desc>
    <defs></defs>
    <g stroke="none" stroke-width="1" fill="none" fill-rule="evenodd">
        <g>
            <g>
                <rect fill="#FFFFFF" x="0" y="123" width="103" height="143"></rect>
                <path d="M38,118.360215 L38,0.632830967" stroke="#FFFFFF" stroke-width="10"></path>
                <path d="M68,118.360215 L68,0.632830967" stroke="#FFFFFF" stroke-width="10"></path>
                <g transform="translate(30.000000, 198.000000)">
                    <path d="M20,0.0289407764 C20,-0.960590581 40,23.6613388 40,37.6347042 C40,51.6080696 31.7406546,57.96675 20,63 C8.25934536,57.96675 0,51.6080696 0,37.6347042 C0,23.6613388 20.3173649,0.911757968 20,0.0289407764 Z" fill="#29759B"></path>
                    <path d="M20.5,17.0211314 C20.5,16.2986164 35,34.2765331 35,44.4793078 C35,54.6820826 29.0119746,59.3249286 20.5,63 C11.9880254,59.3249286 6,54.6820826 6,44.4793078 C6,34.2765331 20.7300896,17.665728 20.5,17.0211314 Z" fill="#01ABCE"></path>
                    <path d="M20,36.1112875 C24.6979037,38.2964589 28,43.4681116 28,49.5 C28,55.5318884 24.6979037,60.7035411 20,62.8887125 C15.3020963,60.7035411 12,55.5318884 12,49.5 C12,43.4681116 15.3020963,38.2964589 20,36.1112875 Z" fill="#FFFFFF"></path>
                </g>
                <path d="M31.5,51.5 L45.5,51.5" stroke="#FFFFFF" stroke-width="3" stroke-linecap="square"></path>
                <path d="M61.5,51.5 L75.5,51.5" stroke="#FFFFFF" stroke-width="3" stroke-linecap="square"></path>
            </g>
        </g>
    </g>
</svg>