<?xml version="1.0" encoding="UTF-8"?>
<svg width="132px" height="110px" viewBox="0 0 132 110" version="1.1" xmlns="http://www.w3.org/2000/svg" xmlns:xlink="http://www.w3.org/1999/xlink">
    <!-- Generator: Sketch 47.1 (45422) - http://www.bohemiancoding.com/sketch -->
    <desc>Created with Sketch.</desc>
    <defs></defs>
    <g id="Assets" stroke="none" stroke-width="1" fill="none" fill-rule="evenodd">
        <g id="image/home-calc">
            <g id="Group">
                <polygon id="Fill-1" fill="#29759B" points="66 0 0 69.0113065 24.5893283 69.0113065 24.5893283 109 30.488275 109 30.488275 63.0640497 13.8866256 63.0640497 66 8.57065778 118.113374 63.0640497 101.508446 63.0640497 101.508446 109 107.410672 109 107.410672 69.0113065 132 69.0113065"></polygon>
                <polygon id="Fill-2" fill="#01ABCE" points="22 59.3908666 34.1172778 59.3908666 34.1172778 109 40.0684647 109 40.0684647 53.4126622 35.9985141 53.4126622 66.4983469 21.6152569 96.9981797 53.4126622 92.9315353 53.4126622 92.9315353 109 98.8827222 109 98.8827222 59.3908666 111 59.3908666 66.4983469 13"></polygon>
                <polygon id="Fill-3" fill="#50E2E3" points="43 51.5712904 43 109 48.9453984 109 48.9453984 53.9404939 66.0016524 36.4651706 83.0512968 53.9404939 83.0512968 109 89 109 89 51.5712904 66.0016524 28"></polygon>
                <polygon id="Fill-4" fill="#FFFFFF" points="53 56.0366323 53 109.142857 58.6720398 109.142857 58.6720398 58.2474698 66.0015756 50.8993283 73.3279602 58.2474698 73.3279602 109.142857 79 109.142857 79 56.0366323 66.0015756 43"></polygon>
            </g>
        </g>
    </g>
</svg>