<svg id="Layer_1" data-name="Layer 1" xmlns="http://www.w3.org/2000/svg" width="650" height="240" viewBox="0 0 650 240"><defs><style>.cls-1{fill:#f5f5f5;}.cls-2{fill:#fff;}.cls-3{fill:#ccc;}.cls-4{fill:#e50046;}.cls-5{fill:#7ed321;}.cls-6{fill:#006280;}.cls-7{fill:#01abce;}</style></defs><title>troubleshoot-04</title><rect class="cls-1" x="274.92" y="21.51" width="168.96" height="196.98"/><circle class="cls-2" cx="359.4" cy="120" r="55.61"/><circle class="cls-1" cx="359.61" cy="120" r="42.45"/><path class="cls-3" d="M359.61,165a45,45,0,1,1,45-45A45.05,45.05,0,0,1,359.61,165Zm0-84.91A39.91,39.91,0,1,0,399.51,120,40,40,0,0,0,359.61,80.09Z"/><path class="cls-4" d="M381.82,141.58l-6-6a22.94,22.94,0,0,0,0-32.42l6-6a31.42,31.42,0,0,1,0,44.43Z"/><path class="cls-5" d="M328.21,120.34A31.4,31.4,0,0,1,359.61,88a31.21,31.21,0,0,1,22.21,9.2l-6,6a22.93,22.93,0,0,0-39.13,16.93Z"/><path class="cls-4" d="M337.39,141.58a31.34,31.34,0,0,1-9.18-21.24l8.48-.26a22.88,22.88,0,0,0,6.71,15.49Z"/><rect class="cls-1" x="358.97" y="86.1" width="1.7" height="67.92"/><rect class="cls-1" x="325.86" y="119.21" width="67.92" height="1.7"/><rect class="cls-1" x="325.86" y="119.21" width="67.93" height="1.7" transform="translate(20.49 289.6) rotate(-45)"/><circle class="cls-6" cx="358.97" cy="120.21" r="8.49"/><rect class="cls-6" x="350.06" y="91.63" width="5.09" height="44.43" transform="translate(22.78 282.68) rotate(-45)"/><circle class="cls-7" cx="216.9" cy="119" r="14"/><path class="cls-3" d="M216.9,140.35a40,40,0,0,1-34.48-19.92l-.83-1.43.83-1.43a39.79,39.79,0,0,1,69,0l.83,1.43-.83,1.43A40,40,0,0,1,216.9,140.35ZM188.25,119a34.06,34.06,0,0,0,57.3,0,34.06,34.06,0,0,0-57.3,0Z"/><circle class="cls-2" cx="210.9" cy="114" r="3"/></svg>