<svg id="Layer_1" data-name="Layer 1" xmlns="http://www.w3.org/2000/svg" width="650" height="240" viewBox="0 0 650 240"><defs><style>.cls-1{fill:#fff;}.cls-2{fill:#ccc;}.cls-3{fill:#f5f5f5;}.cls-4{fill:#e50046;}.cls-4,.cls-5{fill-rule:evenodd;}.cls-5{fill:#aae4ef;}.cls-6{fill:#01abce;}</style></defs><title>troubleshoot-05</title><rect class="cls-1" x="274.92" y="22.07" width="190.19" height="195.86"/><circle class="cls-2" cx="370.01" cy="120" r="61.13"/><path class="cls-3" d="M370,184.73A64.73,64.73,0,1,1,434.74,120,64.81,64.81,0,0,1,370,184.73Zm0-122.27A57.54,57.54,0,1,0,427.55,120,57.6,57.6,0,0,0,370,62.46Z"/><circle class="cls-3" cx="370.01" cy="120" r="53.29"/><path class="cls-2" d="M370,176.43A56.43,56.43,0,1,1,426.44,120,56.49,56.49,0,0,1,370,176.43Zm0-106.59A50.16,50.16,0,1,0,420.17,120,50.21,50.21,0,0,0,370,69.84Z"/><path class="cls-4" d="M370,83.79c0-1.2,24.16,28.55,24.16,45.43s-10,24.57-24.16,30.65c-14.19-6.08-24.17-13.76-24.17-30.65S370.39,84.85,370,83.79Z"/><path class="cls-5" d="M370.61,104.32c0-.88,17.52,20.85,17.52,33.17s-7.23,17.94-17.52,22.38c-10.28-4.44-17.52-10.05-17.52-22.38S370.89,105.1,370.61,104.32Z"/><ellipse class="cls-1" cx="370.01" cy="143.56" rx="9.67" ry="16.18"/><circle class="cls-6" cx="216.9" cy="119" r="14"/><path class="cls-2" d="M216.9,140.35a40,40,0,0,1-34.48-19.92l-.83-1.43.83-1.43a39.79,39.79,0,0,1,69,0l.83,1.43-.83,1.43A40,40,0,0,1,216.9,140.35ZM188.25,119a34.06,34.06,0,0,0,57.3,0,34.06,34.06,0,0,0-57.3,0Z"/><circle class="cls-1" cx="210.9" cy="114" r="3"/></svg>