<?xml version="1.0" encoding="UTF-8"?>
<svg width="650px" height="240px" viewBox="0 0 650 240" version="1.1" xmlns="http://www.w3.org/2000/svg" xmlns:xlink="http://www.w3.org/1999/xlink">
    <!-- Generator: Sketch 50.2 (55047) - http://www.bohemiancoding.com/sketch -->
    <title>troubleshoot-03</title>
    <desc>Created with Sketch.</desc>
    <defs></defs>
    <g id="troubleshoot-03" stroke="none" stroke-width="1" fill="none" fill-rule="evenodd">
        <g transform="translate(168.000000, 29.000000)" fill-rule="nonzero">
            <rect id="Rectangle-path" fill="#DDDDDD" x="162.13" y="0.15" width="151.75" height="181.7"></rect>
            <rect id="Rectangle-path" fill="#FFFFFF" x="162.13" y="0.15" width="37.94" height="181.7"></rect>
            <rect id="Rectangle-path" fill="#AAE4EF" x="221.65" y="23.2" width="72.26" height="37.98"></rect>
            <circle id="Oval" fill="#E50046" cx="233.13" cy="85.17" r="11.48"></circle>
            <circle id="Oval" fill="#006280" cx="233.13" cy="116.46" r="11.48"></circle>
            <circle id="Oval" fill="#006280" cx="233.13" cy="148.41" r="11.48"></circle>
            <path d="M257.72,89.13 L256.22,86.89 L255,86.89 L255,89.13 L253.46,89.13 L253.46,82.13 L256.65,82.13 C258.3,82.13 259.29,83 259.29,84.44 C259.339951,85.4174977 258.723375,86.3053673 257.79,86.6 L259.5,89.1 L257.72,89.13 Z M257.72,84.53 C257.72,83.87 257.26,83.53 256.51,83.53 L255,83.53 L255,85.53 L256.55,85.53 C257.3,85.53 257.73,85.13 257.73,84.53 L257.72,84.53 Z" id="Shape" fill="#006280"></path>
            <polygon id="Shape" fill="#006280" points="260.7 89.13 260.7 82.13 266 82.13 266 83.5 262.25 83.5 262.25 84.92 265.55 84.92 265.55 86.29 262.25 86.29 262.25 87.75 266 87.75 266 89.12"></polygon>
            <path d="M269.87,89.23 C268.765329,89.243798 267.695364,88.8443445 266.87,88.11 L267.77,87.02 C268.34086,87.5469006 269.08343,87.8489029 269.86,87.87 C270.49,87.87 270.86,87.62 270.86,87.21 C270.86,86.82 270.62,86.63 269.45,86.33 C268.04,85.97 267.14,85.58 267.14,84.19 C267.155313,83.576078 267.428858,82.99709 267.893375,82.5953963 C268.357893,82.1937025 268.970293,82.0065662 269.58,82.08 C270.523906,82.0645771 271.443548,82.3793774 272.18,82.97 L271.38,84.13 C270.857123,83.7211486 270.222507,83.4805527 269.56,83.44 C268.97,83.44 268.66,83.71 268.66,84.05 C268.66,84.51 268.96,84.66 270.17,84.97 C271.59,85.34 272.39,85.85 272.39,87.06 C272.44,88.45 271.38,89.23 269.87,89.23 Z" id="Shape" fill="#006280"></path>
            <polygon id="Shape" fill="#006280" points="273.78 89.13 273.78 82.13 279 82.13 279 83.5 275.3 83.5 275.3 84.92 278.6 84.92 278.6 86.29 275.3 86.29 275.3 87.75 279.09 87.75 279.09 89.12"></polygon>
            <polygon id="Shape" fill="#006280" points="283.63 83.56 283.63 89.13 282.09 89.13 282.09 83.56 280 83.56 280 82.14 285.79 82.14 285.79 83.56"></polygon>
            <path d="M131.42,74 L54.87,74 L67,61.86 C70.4726217,58.3891648 71.8297879,53.3293592 70.5602672,48.586563 C69.2907466,43.8437669 65.5874094,40.1385237 60.8452671,38.8665629 C56.1031247,37.594602 51.0426215,38.9491646 47.57,42.42 L12.07,77.91 C4.81021921,85.1368021 0.741536311,94.966452 0.77,105.21 L0.77,116.21 C0.792047677,137.524575 18.0654249,154.797952 39.38,154.82 L75.52,154.82 C83.1083925,154.82 89.26,148.668392 89.26,141.08 C89.2560234,140.098138 89.1487665,139.119419 88.94,138.16 L71.87,138.16 C71.123792,138.097654 70.5498958,137.473808 70.5498958,136.725 C70.5498958,135.976192 71.123792,135.352346 71.87,135.29 L88,135.29 C92.9493275,134.018173 96.4121324,129.56012 96.42,124.45 C96.4239557,122.323586 95.8164954,120.240865 94.67,118.45 L75.75,118.45 C74.9602328,118.45 74.32,117.809767 74.32,117.02 C74.3199809,116.228599 74.958618,115.585496 75.75,115.58 L92,115.58 C91.9624863,115.559026 91.9286975,115.531995 91.9,115.5 C95.6301838,115.192294 98.9589314,113.038397 100.768082,109.761824 C102.577232,106.485252 102.62675,102.520736 100.9,99.2 L81,99.2 C80.2102328,99.2 79.57,98.5597672 79.57,97.77 C79.57,96.9802328 80.2102328,96.34 81,96.34 L131.39,96.34 C137.575589,96.34 142.59,91.3255892 142.59,85.14 C142.59,78.9544108 137.575589,73.94 131.39,73.94 L131.42,74 Z" id="Shape" fill="#FFFFFF"></path>
        </g>
    </g>
</svg>