<?xml version="1.0" encoding="UTF-8"?>
<svg width="650px" height="240px" viewBox="0 0 650 240" version="1.1" xmlns="http://www.w3.org/2000/svg" xmlns:xlink="http://www.w3.org/1999/xlink">
    <g stroke="none" stroke-width="1" fill="none" fill-rule="evenodd">
        <g transform="translate(183.000000, 22.000000)">
            <rect id="Rectangle-path" fill="#FFFFFF" fill-rule="nonzero" x="93.92" y="0.07" width="190.19" height="195.86"></rect>
            <circle id="Oval" fill="#CCCCCC" fill-rule="nonzero" cx="189.01" cy="98" r="61.13"></circle>
            <path d="M189,162.73 C153.25191,162.724477 124.276319,133.741424 124.28,97.9933344 C124.283682,62.2452445 153.265243,33.2681603 189.013333,33.2700009 C224.761423,33.2718415 253.74,62.25191 253.74,98 C253.69591,133.735017 224.735023,162.69143 189,162.73 Z M189,40.46 C157.222838,40.4655226 131.466319,66.2295031 131.47,98.0066655 C131.473682,129.783828 157.23617,155.54184 189.013333,155.539999 C220.790495,155.538158 246.55,129.777163 246.55,98 C246.51692,66.2313442 220.768661,40.4875597 189,40.46 Z" id="Shape" fill="#F5F5F5" fill-rule="nonzero"></path>
            <circle id="Oval" fill="#F5F5F5" fill-rule="nonzero" cx="189.01" cy="98" r="53.29"></circle>
            <path d="M189,154.43 C157.835874,154.424477 132.576319,129.157461 132.58,97.9933345 C132.583682,66.8292082 157.849206,41.5681604 189.013333,41.570001 C220.177459,41.5718415 245.44,66.8358734 245.44,98 C245.406921,129.15562 220.155625,154.402441 189,154.43 Z M189,47.84 C161.298699,47.8455226 138.846319,70.3053644 138.85,98.0066653 C138.853682,125.707966 161.312032,148.161839 189.013333,148.159999 C216.714634,148.158158 239.169999,125.701301 239.17,98 C239.14243,70.3049212 216.695084,47.8620497 189,47.84 Z" id="Shape" fill="#CCCCCC" fill-rule="nonzero"></path>
            <path d="M189,61.79 C189,60.59 213.16,90.34 213.16,107.22 C213.16,124.1 203.16,131.79 189,137.87 C174.81,131.79 164.83,124.11 164.83,107.22 C164.83,90.33 189.39,62.85 189,61.79 Z" id="Shape" fill="#E50046"></path>
            <path d="M189.61,82.32 C189.61,81.44 207.13,103.17 207.13,115.49 C207.13,127.81 199.9,133.43 189.61,137.87 C179.33,133.43 172.09,127.82 172.09,115.49 C172.09,103.16 189.89,83.1 189.61,82.32 Z" id="Shape" fill="#AAE4EF"></path>
            <ellipse id="Oval" fill="#FFFFFF" fill-rule="nonzero" cx="189.01" cy="121.56" rx="9.67" ry="16.18"></ellipse>
            <circle id="Oval" fill="#01ABCE" fill-rule="nonzero" cx="35.9" cy="97" r="14"></circle>
            <path d="M35.9,118.35 C21.6833804,118.309198 8.55671386,110.725579 1.42,98.43 L0.59,97 L1.42,95.57 C8.51703116,83.2189809 21.675158,75.6040788 35.92,75.6040788 C50.164842,75.6040788 63.3229688,83.2189809 70.42,95.57 L71.25,97 L70.42,98.43 C63.2760928,110.737894 50.1309155,118.323408 35.9,118.35 Z M7.25,97 C13.517141,106.748259 24.3109703,112.640958 35.9,112.640958 C47.4890297,112.640958 58.282859,106.748259 64.55,97 C58.282859,87.251741 47.4890297,81.3590418 35.9,81.3590418 C24.3109703,81.3590418 13.517141,87.251741 7.25,97 Z" id="Shape" fill="#CCCCCC" fill-rule="nonzero"></path>
            <circle id="Oval" fill="#FFFFFF" fill-rule="nonzero" cx="29.9" cy="92" r="3"></circle>
        </g>
    </g>
</svg>