<svg data-name="Layer 1" xmlns="http://www.w3.org/2000/svg" width="650" height="240" viewBox="0 0 650 240">
    <defs>
        <style>.cls-1{fill:#ddd;}.cls-2{fill:#fff;}.cls-3{fill:#aae4ef;}.cls-4{fill:#e50046;}.cls-5{fill:#006280;}
        </style>
    </defs>
    <rect class="cls-1" x="291.13" y="29.15" width="151.75" height="181.7"/>
    <rect class="cls-2" x="291.13" y="29.15" width="37.94" height="181.7"/>
    <rect class="cls-3" x="350.65" y="52.2" width="72.26" height="37.98"/>
    <circle class="cls-4" cx="362.13" cy="114.17" r="11.48"/>
    <circle class="cls-5" cx="362.13" cy="145.46" r="11.48"/>
    <circle class="cls-5" cx="362.13" cy="177.41" r="11.48"/>
    <path class="cls-5"
          d="M386.72,118.13l-1.5-2.24H384v2.24h-1.54v-7h3.19c1.65,0,2.64.87,2.64,2.31v0a2.15,2.15,0,0,1-1.5,2.16l1.71,2.5Zm0-4.6c0-.66-.46-1-1.21-1H384v2h1.55c.75,0,1.18-.4,1.18-1Z"/>
    <path class="cls-5" d="M389.7,118.13v-7H395v1.37h-3.75v1.42h3.3v1.37h-3.3v1.46H395v1.37Z"/>
    <path class="cls-5"
          d="M398.87,118.23a4.43,4.43,0,0,1-3-1.12l.9-1.09a3.21,3.21,0,0,0,2.09.85c.63,0,1-.25,1-.66v0c0-.39-.24-.58-1.41-.88-1.41-.36-2.31-.75-2.31-2.14v0a2.18,2.18,0,0,1,2.44-2.11,4.05,4.05,0,0,1,2.6.89l-.8,1.16a3.28,3.28,0,0,0-1.82-.69c-.59,0-.9.27-.9.61v0c0,.46.3.61,1.51.92,1.42.37,2.22.88,2.22,2.09v0C401.44,117.45,400.38,118.23,398.87,118.23Z"/>
    <path class="cls-5" d="M402.78,118.13v-7H408v1.37H404.3v1.42h3.3v1.37h-3.3v1.46h3.79v1.37Z"/>
    <path class="cls-5" d="M412.63,112.56v5.57h-1.54v-5.57H409v-1.42h5.79v1.42Z"/>
    <path class="cls-2"
          d="M260.42,103H183.87L196,90.86a13.74,13.74,0,1,0-19.43-19.44l-35.5,35.49a38.37,38.37,0,0,0-11.3,27.3v11a38.65,38.65,0,0,0,38.61,38.61h36.14a13.74,13.74,0,0,0,13.74-13.74,14,14,0,0,0-.32-2.92H200.87a1.44,1.44,0,0,1,0-2.87H217a11.21,11.21,0,0,0,8.42-10.84,11.09,11.09,0,0,0-1.75-6H204.75a1.43,1.43,0,0,1-1.43-1.43h0a1.44,1.44,0,0,1,1.43-1.44H221a.39.39,0,0,1-.1-.08,11.18,11.18,0,0,0,9-16.3H210a1.43,1.43,0,0,1,0-2.86h50.39a11.2,11.2,0,0,0,0-22.4Z"/>
</svg>