<?xml version="1.0" encoding="UTF-8"?>
<svg width="650px" height="240px" viewBox="0 0 650 240" version="1.1" xmlns="http://www.w3.org/2000/svg" xmlns:xlink="http://www.w3.org/1999/xlink">
    <g stroke="none" stroke-width="1" fill="none" fill-rule="evenodd">
        <g transform="translate(194.000000, 21.000000)" fill-rule="nonzero">
            <rect id="Rectangle-path" fill="#F5F5F5" x="93.92" y="0.51" width="168.96" height="196.98"></rect>
            <circle id="Oval" fill="#FFFFFF" cx="178.4" cy="99" r="55.61"></circle>
            <circle id="Oval" fill="#F5F5F5" cx="178.61" cy="99" r="42.45"></circle>
            <path d="M178.61,144 C160.409199,144 144.000566,133.036102 137.035421,116.220754 C130.070276,99.4054069 133.920285,80.0501047 146.790195,67.1801948 C159.660105,54.310285 179.015407,50.460276 195.830754,57.425421 C212.646102,64.390566 223.61,80.799199 223.61,99 C223.582444,123.841391 203.451391,143.972444 178.61,144 Z M178.61,59.09 C162.467002,59.0859551 147.911299,68.8071495 141.730839,83.7201738 C135.550378,98.6331981 138.96244,115.800841 150.375833,127.217094 C161.789226,138.633348 178.956013,142.049711 193.870585,135.872988 C208.785158,129.696265 218.509999,115.142998 218.51,99 C218.46053,76.9827408 200.627246,59.1449877 178.61,59.09 Z" id="Shape" fill="#CCCCCC"></path>
            <path d="M200.82,120.58 L194.82,114.58 C203.763931,105.623902 203.763931,91.1160982 194.82,82.16 L200.82,76.16 C213.087213,88.429748 213.087213,108.320252 200.82,120.59 L200.82,120.58 Z" id="Shape" fill="#E50046"></path>
            <path d="M147.21,99.34 C146.955743,90.8505544 150.151359,82.6202026 156.067784,76.5266614 C161.98421,70.4331202 170.116749,66.9961934 178.61,67 C186.944793,66.9779832 194.942124,70.2907003 200.82,76.2 L194.82,82.2 C188.169507,75.5518571 178.134096,73.6380759 169.503693,77.3721091 C160.87329,81.1061423 155.397527,89.7309939 155.69,99.13 L147.21,99.34 Z" id="Shape" fill="#7ED321"></path>
            <path d="M156.39,120.58 C150.73269,114.930183 147.448637,107.331786 147.21,99.34 L155.69,99.08 C155.870523,104.909858 158.27071,110.450679 162.4,114.57 L156.39,120.58 Z" id="Shape" fill="#E50046"></path>
            <rect id="Rectangle-path" fill="#F5F5F5" x="177.97" y="65.1" width="1.7" height="67.92"></rect>
            <rect id="Rectangle-path" fill="#F5F5F5" x="144.86" y="98.21" width="67.92" height="1.7"></rect>
            <rect id="Rectangle-path" fill="#F5F5F5" transform="translate(178.819938, 99.060543) rotate(-45.000000) translate(-178.819938, -99.060543) " x="144.854938" y="98.2105426" width="67.93" height="1.7"></rect>
            <circle id="Oval" fill="#006280" cx="177.97" cy="99.21" r="8.49"></circle>
            <rect id="Rectangle-path" fill="#006280" transform="translate(171.609958, 92.851185) rotate(-45.000000) translate(-171.609958, -92.851185) " x="169.064958" y="70.6361849" width="5.09" height="44.43"></rect>
            <circle id="Oval" fill="#01ABCE" cx="35.9" cy="98" r="14"></circle>
            <path d="M35.9,119.35 C21.6833804,119.309198 8.55671386,111.725579 1.42,99.43 L0.59,98 L1.42,96.57 C8.51703116,84.2189809 21.675158,76.6040788 35.92,76.6040788 C50.164842,76.6040788 63.3229688,84.2189809 70.42,96.57 L71.25,98 L70.42,99.43 C63.2760928,111.737894 50.1309155,119.323408 35.9,119.35 Z M7.25,98 C13.517141,107.748259 24.3109703,113.640958 35.9,113.640958 C47.4890297,113.640958 58.282859,107.748259 64.55,98 C58.282859,88.251741 47.4890297,82.3590418 35.9,82.3590418 C24.3109703,82.3590418 13.517141,88.251741 7.25,98 Z" id="Shape" fill="#CCCCCC"></path>
            <circle id="Oval" fill="#FFFFFF" cx="29.9" cy="93" r="3"></circle>
        </g>
    </g>
</svg>