<?xml version="1.0" encoding="UTF-8"?>
<svg width="650px" height="240px" viewBox="0 0 650 240" version="1.1" xmlns="http://www.w3.org/2000/svg" xmlns:xlink="http://www.w3.org/1999/xlink">
    <g stroke="none" stroke-width="1" fill="none" fill-rule="evenodd">
        <g transform="translate(10.000000, 32.000000)" fill-rule="nonzero">
            <path d="M450.31,176.24 L221.48,176.24 C213.124374,176.243907 206.193167,169.775945 205.62,161.44 L203.62,133.04 C201.619987,103.877584 201.619987,74.6124158 203.62,45.45 L205.62,17.05 C206.193167,8.71405521 213.124374,2.24609346 221.48,2.25 L450.31,2.25 C458.661774,2.2513512 465.587097,8.71789829 466.16,17.05 L468.11,45.45 C470.110013,74.6124158 470.110013,103.877584 468.11,133.04 L466.16,161.44 C465.587097,169.772102 458.661774,176.238649 450.31,176.24 Z" id="Shape" fill="#F5F5F5"></path>
            <rect id="Rectangle-path" fill="#DDDDDD" x="250.99" y="20.93" width="169.81" height="129.06"></rect>
            <rect id="Rectangle-path" fill="#DDDDDD" x="226.76" y="32.81" width="47.55" height="84.91" rx="23.77"></rect>
            <circle id="Oval" fill="#006280" cx="250.34" cy="56.39" r="10.19"></circle>
            <circle id="Oval" fill="#006280" cx="250.53" cy="94.03" r="10.19"></circle>
            <rect id="Rectangle-path" fill="#DDDDDD" x="396.57" y="32.81" width="47.55" height="84.91" rx="23.77"></rect>
            <circle id="Oval" fill="#006280" cx="420.34" cy="94.03" r="10.19"></circle>
            <rect id="Rectangle-path" fill="#AAE4EF" x="273.75" y="33.74" width="124.28" height="83.87"></rect>
            <circle id="Oval" fill="#006280" cx="420.15" cy="56.4" r="10.19"></circle>
            <rect id="Rectangle-path" fill="#E50046" x="410.15" y="71.87" width="20.38" height="6.79"></rect>
            <rect id="Rectangle-path" fill="#F5F5F5" x="0" y="20.93" width="129.06" height="136.7"></rect>
            <path d="M64.53,145.74 C39.6771863,145.74 19.53,125.592814 19.53,100.74 C19.53,75.8871863 39.6771863,55.74 64.53,55.74 C89.3828137,55.74 109.53,75.8871863 109.53,100.74 C109.502444,125.581391 89.3713909,145.712444 64.53,145.74 Z M64.53,60.83 C48.3870024,60.8259551 33.8312994,70.5471495 27.6508388,85.4601738 C21.4703781,100.373198 24.8824395,117.540841 36.2958326,128.957094 C47.7092257,140.373348 64.8760126,143.789711 79.7905852,137.612988 C94.7051578,131.436265 104.429999,116.882998 104.43,100.74 C104.38053,78.7227408 86.5472461,60.8849877 64.53,60.83 Z" id="Shape" fill="#CCCCCC"></path>
            <rect id="Rectangle-path" fill="#E50046" x="61.98" y="40.46" width="5.09" height="11.89"></rect>
            <path d="M129.06,20.93 L0,20.93 C-1.77635684e-15,15.3022184 4.5622184,10.74 10.19,10.74 L118.87,10.74 C124.497782,10.74 129.06,15.3022184 129.06,20.93 Z" id="Shape" fill="#EEEEEE"></path>
            <path d="M118.87,167 L10.19,167 C7.4822381,167.000012 4.88581494,165.922308 2.97395452,164.004819 C1.06209411,162.08733 -0.00797182113,159.48775 -4.42241748e-05,156.78 L129.060044,156.78 C129.067972,159.48775 127.997906,162.08733 126.086045,164.004819 C124.174185,165.922308 121.577762,167.000012 118.87,167 Z" id="Shape" fill="#EEEEEE"></path>
            <path d="M81,79.09 L84.5,73.02 L80,70.48 L76.58,76.41 C78.1344081,77.1622118 79.6143106,78.0595282 81,79.09 Z" id="Shape" fill="#006280"></path>
            <path d="M70.91,74.33 L72.1,67.59 L70.43,67.29 L69.25,74 C69.81,74.08 70.36,74.2 70.91,74.33 Z" id="Shape" fill="#006280"></path>
            <path d="M61.49,73.74 L60.3,67 L58.63,67.29 L59.81,74 C60.37,73.89 60.93,73.8 61.49,73.74 Z" id="Shape" fill="#006280"></path>
            <path d="M90.59,93.06 L97.02,90.72 L96.44,89.12 L90.07,91.44 C90.26,92 90.43,92.51 90.59,93.06 Z" id="Shape" fill="#006280"></path>
            <path d="M86.39,84.61 L91.64,80.21 L90.54,78.91 L85.34,83.28 C85.7,83.71 86.05,84.15 86.39,84.61 Z" id="Shape" fill="#006280"></path>
            <path d="M39.63,89.87 L33.2,87.53 L32.61,89.12 L39,91.44 C39.19,90.91 39.4,90.39 39.63,89.87 Z" id="Shape" fill="#006280"></path>
            <path d="M54,75.69 L50.5,69.63 L46.09,72.17 L49.51,78.1 C50.9281023,77.1581805 52.4313402,76.3513201 54,75.69 Z" id="Shape" fill="#006280"></path>
            <path d="M37.36,100.74 C37.3625753,99.603195 37.4360513,98.4676573 37.58,97.34 L30.58,97.34 L30.58,102.44 L37.43,102.44 C37.38,101.87 37.36,101.31 37.36,100.74 Z" id="Shape" fill="#006280"></path>
            <path d="M91.64,99 C91.64,99.56 91.7,100.13 91.7,100.7 C91.6977395,101.833492 91.6242615,102.965723 91.48,104.09 L98.48,104.09 L98.48,99 L91.64,99 Z" id="Shape" fill="#006280"></path>
            <path d="M44.85,82 L39.6,77.6 L38.51,78.9 L43.72,83.27 C44.08,82.84 44.46,82.42 44.85,82 Z" id="Shape" fill="#006280"></path>
            <path d="M621.48,44.62 L614.76,0 L609,0 L615.95,44.57 C616.014134,44.8897182 615.928975,45.2212323 615.718691,45.4704581 C615.508407,45.719684 615.195951,45.8594167 614.87,45.85 C614.137971,45.8271622 613.523293,45.2919332 613.4,44.57 L607,0 L600.38,0 L604.8,44.57 C604.844077,44.8982214 604.741956,45.2292576 604.520629,45.475604 C604.299302,45.7219504 603.981051,45.8588078 603.65,45.85 C602.928829,45.8382666 602.331015,45.2877614 602.26,44.57 L598.41,0 L591.78,0 L593.68,44.57 C593.699406,44.9046038 593.579155,45.2322679 593.347911,45.4748842 C593.116668,45.7175006 592.79515,45.8533323 592.46,45.85 C591.746324,45.8503277 591.161626,45.2833487 591.14,44.57 L589.82,0 L583.19,0 L582.57,44.57 C582.559073,45.2801476 581.980232,45.8500841 581.27,45.85 C580.930695,45.8583133 580.602813,45.7271814 580.362816,45.4871844 C580.122819,45.2471874 579.991687,44.9193052 580,44.58 L581.22,0 L574.6,0 L571.45,44.57 C571.393143,45.2867923 570.798998,45.8419055 570.08,45.85 C569.747929,45.8543121 569.429671,45.7173016 569.204573,45.4731279 C568.979475,45.2289542 568.868749,44.9006253 568.9,44.57 L572.63,0 L566,0 L560.33,44.57 C560.22367,45.2892825 559.616788,45.8287328 558.89,45.85 C558.561833,45.8618009 558.246122,45.7236551 558.032095,45.4746057 C557.818068,45.2255563 557.728977,44.8926597 557.79,44.57 L564,0 L558.85,0 L552.13,44.61 L552.13,44.85 L552.13,45.09 L552.13,75 L621.58,75 L621.58,44.62 L621.48,44.62 Z" id="Shape" fill="#F5F5F5"></path>
            <path d="M611.67,53.3 L606.76,75 L566.42,75 L561.52,53.29 L543.18,53.29 L548.28,102.29 C549.224321,111.479612 556.972005,118.462466 566.21,118.45 L607.38,118.45 C616.673897,118.460074 624.447411,111.392849 625.32,102.14 L630,53.3 L611.67,53.3 Z" id="Shape" fill="#AAE4EF"></path>
            <path d="M586.86,70.67 C585.663817,70.6645254 584.695475,69.6961829 584.69,68.5 L584.69,57.64 C584.69,56.4415421 585.661542,55.47 586.86,55.47 C588.058458,55.47 589.03,56.4415421 589.03,57.64 L589.03,68.5 C589.03,69.6984579 588.058458,70.67 586.86,70.67 Z" id="Shape" fill="#E50046"></path>
            <rect id="Rectangle-path" fill="#006280" x="598.8" y="57.64" width="2.17" height="10.85"></rect>
            <rect id="Rectangle-path" fill="#006280" x="572.76" y="57.64" width="2.17" height="10.85"></rect>
            <rect id="Rectangle-path" fill="#01ABCE" x="569.5" y="120.82" width="34.73" height="18.94"></rect>
            <rect id="Rectangle-path" fill="#F5F5F5" x="561.56" y="155.04" width="14.52" height="15.19"></rect>
            <rect id="Rectangle-path" fill="#F5F5F5" x="578.18" y="141.93" width="17.36" height="33.35"></rect>
            <rect id="Rectangle-path" fill="#CCCCCC" x="575.86" y="155.04" width="22.01" height="15.19"></rect>
        </g>
    </g>
</svg>