<svg data-name="Layer 1" xmlns="http://www.w3.org/2000/svg" width="650" height="240" viewBox="0 0 650 240">
    <defs>
        <style>
            .cls-1{fill:#f5f5f5;}.cls-2{fill:#ddd;}.cls-3{fill:#006280;}.cls-4{fill:#aae4ef;}.cls-5{fill:#e50046;}.cls-6{fill:#ccc;}.cls-7{fill:#eee;}.cls-8{fill:#01abce;}
        </style>
    </defs>
    <path class="cls-1"
          d="M460.31,211.24H231.48a15.89,15.89,0,0,1-15.86-14.8l-2-28.4a640.08,640.08,0,0,1,0-87.59l2-28.4a15.89,15.89,0,0,1,15.86-14.8H460.31a15.89,15.89,0,0,1,15.85,14.8l1.95,28.4a640.08,640.08,0,0,1,0,87.59l-1.95,28.4A15.89,15.89,0,0,1,460.31,211.24Z"/>
    <rect class="cls-2" x="260.99" y="55.93" width="169.81" height="129.06"/>
    <rect class="cls-2" x="236.76" y="67.81" width="47.55" height="84.91" rx="23.77" ry="23.77"/>
    <circle class="cls-3" cx="260.34" cy="91.39" r="10.19"/>
    <circle class="cls-3" cx="260.53" cy="129.03" r="10.19"/>
    <rect class="cls-2" x="406.57" y="67.81" width="47.55" height="84.91" rx="23.77" ry="23.77"/>
    <circle class="cls-3" cx="430.34" cy="129.03" r="10.19"/>
    <rect class="cls-4" x="283.75" y="68.74" width="124.28" height="83.87"/>
    <circle class="cls-3" cx="430.15" cy="91.4" r="10.19"/>
    <rect class="cls-5" x="420.15" y="106.87" width="20.38" height="6.79"/>
    <rect class="cls-1" x="10" y="55.93" width="129.06" height="136.7"/>
    <path class="cls-6"
          d="M74.53,180.74a45,45,0,1,1,45-45A45.05,45.05,0,0,1,74.53,180.74Zm0-84.91a39.91,39.91,0,1,0,39.9,39.91A40,40,0,0,0,74.53,95.83Z"/>
    <rect class="cls-5" x="71.98" y="75.46" width="5.09" height="11.89"/>
    <path class="cls-7" d="M139.06,55.93H10A10.19,10.19,0,0,1,20.19,45.74H128.87a10.19,10.19,0,0,1,10.19,10.19Z"/>
    <path class="cls-7" d="M128.87,202H20.19A10.19,10.19,0,0,1,10,191.78H139.06A10.19,10.19,0,0,1,128.87,202Z"/>
    <path class="cls-3" d="M91,114.09l3.5-6.07L90,105.48l-3.42,5.93A27.43,27.43,0,0,1,91,114.09Z"/>
    <path class="cls-3" d="M80.91,109.33l1.19-6.74-1.67-.3L79.25,109C79.81,109.08,80.36,109.2,80.91,109.33Z"/>
    <path class="cls-3" d="M71.49,108.74,70.3,102l-1.67.29L69.81,109C70.37,108.89,70.93,108.8,71.49,108.74Z"/>
    <path class="cls-3" d="M100.59,128.06l6.43-2.34-.58-1.6-6.37,2.32C100.26,127,100.43,127.51,100.59,128.06Z"/>
    <path class="cls-3" d="M96.39,119.61l5.25-4.4-1.1-1.3-5.2,4.37C95.7,118.71,96.05,119.15,96.39,119.61Z"/>
    <path class="cls-3" d="M49.63,124.87l-6.43-2.34-.59,1.59L49,126.44C49.19,125.91,49.4,125.39,49.63,124.87Z"/>
    <path class="cls-3" d="M64,110.69l-3.5-6.06-4.41,2.54,3.42,5.93A27.25,27.25,0,0,1,64,110.69Z"/>
    <path class="cls-3"
          d="M47.36,135.74a27.34,27.34,0,0,1,.22-3.4h-7v5.1h6.85C47.38,136.87,47.36,136.31,47.36,135.74Z"/>
    <path class="cls-3" d="M101.64,134c0,.56.06,1.13.06,1.7a27.06,27.06,0,0,1-.22,3.39h7V134Z"/>
    <path class="cls-3" d="M54.85,117l-5.25-4.4-1.09,1.3,5.21,4.37C54.08,117.84,54.46,117.42,54.85,117Z"/>
    <path class="cls-1"
          d="M631.48,79.62,624.76,35H619l6.95,44.57a1.07,1.07,0,0,1-1.08,1.28,1.54,1.54,0,0,1-1.47-1.28L617,35h-6.62l4.42,44.57a1.13,1.13,0,0,1-1.15,1.28,1.42,1.42,0,0,1-1.39-1.28L608.41,35h-6.63l1.9,44.57a1.21,1.21,0,0,1-1.22,1.28,1.32,1.32,0,0,1-1.32-1.28L599.82,35h-6.63l-.62,44.57a1.3,1.3,0,0,1-1.3,1.28A1.24,1.24,0,0,1,590,79.58L591.22,35H584.6l-3.15,44.57a1.39,1.39,0,0,1-1.37,1.28,1.17,1.17,0,0,1-1.18-1.28L582.63,35H576l-5.67,44.57a1.5,1.5,0,0,1-1.44,1.28,1.08,1.08,0,0,1-1.1-1.28L574,35h-5.15l-6.72,44.61h0v.24l0,.24h0V110h69.45V79.62Z"/>
    <path class="cls-4"
          d="M621.67,88.3,616.76,110H576.42l-4.9-21.71H553.18l5.1,49a18,18,0,0,0,17.93,16.16h41.17a18,18,0,0,0,17.94-16.31L640,88.3Z"/>
    <path class="cls-5"
          d="M596.86,105.67a2.18,2.18,0,0,1-2.17-2.17V92.64a2.17,2.17,0,1,1,4.34,0V103.5A2.17,2.17,0,0,1,596.86,105.67Z"/>
    <rect class="cls-3" x="608.8" y="92.64" width="2.17" height="10.85"/>
    <rect class="cls-3" x="582.76" y="92.64" width="2.17" height="10.85"/>
    <rect class="cls-8" x="579.5" y="155.82" width="34.73" height="18.94"/>
    <rect class="cls-1" x="571.56" y="190.04" width="14.52" height="15.19"/>
    <rect class="cls-1" x="588.18" y="176.93" width="17.36" height="33.35"/>
    <rect class="cls-6" x="585.86" y="190.04" width="22.01" height="15.19"/>
</svg>