<svg data-name="Layer 1" xmlns="http://www.w3.org/2000/svg" width="650" height="240" viewBox="0 0 650 240">
    <defs>
        <style>
            .cls-1{fill:#ddd;}.cls-2{fill:#fff;}.cls-3{fill:#e50046;}.cls-4{fill:#01abce;}.cls-5{fill:#aae4ef;}.cls-6{fill:#006280;}.cls-7{fill:#ccc;}
        </style>
    </defs>
    <path class="cls-1"
          d="M245.06,164.31H66.49a12.4,12.4,0,0,1-12.37-11.55L52.6,130.6a499.7,499.7,0,0,1,0-68.35l1.52-22.17A12.4,12.4,0,0,1,66.49,28.53H245.06a12.4,12.4,0,0,1,12.37,11.55L259,62.25a499.7,499.7,0,0,1,0,68.35l-1.52,22.16A12.4,12.4,0,0,1,245.06,164.31Z"/>
    <path class="cls-2"
          d="M66.49,28.53A12.4,12.4,0,0,0,54.12,40.08L52.6,62.25a499.7,499.7,0,0,0,0,68.35l1.52,22.16a12.4,12.4,0,0,0,12.37,11.55h49.72V28.53Z"/>
    <circle class="cls-3" cx="151.9" cy="111.55" r="12.41"/>
    <circle class="cls-4" cx="186.81" cy="111.55" r="12.41"/>
    <rect class="cls-5" x="139.48" y="58.01" width="96.98" height="26.38"/>
    <rect class="cls-5" x="139.48" y="150.34" width="59.74" height="59.74"/>
    <rect class="cls-6" x="139.48" y="150.34" width="59.74" height="3.1"/>
    <rect class="cls-2" x="118.33" y="136.69" width="140.25" height="1.7"/>
    <rect class="cls-1" x="52.74" y="136.69" width="61.4" height="1.7"/>
    <rect class="cls-7" x="113.66" y="28.53" width="5.09" height="135.78"/>
    <polygon class="cls-2"
             points="492.01 28.53 490.18 28.53 396.48 28.53 424.04 211.47 490.18 211.47 492.01 211.47 558.15 211.47 585.71 28.53 492.01 28.53"/>
    <rect class="cls-2" x="383.62" y="28.53" width="214.95" height="60.98"/>
    <polygon class="cls-5"
             points="407.73 103.23 424.04 211.47 490.18 211.47 492.01 211.47 558.15 211.47 574.46 103.23 407.73 103.23"/>
    <rect class="cls-5" x="337.88" y="51.4" width="70.13" height="15.24"/>
    <rect class="cls-7" x="379.05" y="43.78" width="9.15" height="30.49" rx="4.57" ry="4.57"/>
    <rect class="cls-7" x="406.49" y="50.89" width="3.05" height="10.16" rx="1.52" ry="1.52"/>
    <rect class="cls-7" x="406.49" y="56.99" width="3.05" height="10.16" rx="1.52" ry="1.52"/>
    <rect class="cls-3" x="348.56" y="20.91" width="9.15" height="30.49" rx="4.57" ry="4.57"
          transform="translate(316.98 389.28) rotate(-90)"/>
    <rect class="cls-6" x="348.94" y="43.78" width="7.24" height="22.87"/>
    <rect class="cls-6" x="344.17" y="49.87" width="16.77" height="18.29" rx="2.94" ry="2.94"/>
    <path class="cls-6"
          d="M496.62,105.59a2.18,2.18,0,0,1-.78-.14L407,73.12a2.28,2.28,0,0,1,1.57-4.29l88.82,32.32a2.29,2.29,0,0,1-.79,4.44Z"/>
    <circle class="cls-2" cx="513.46" cy="109.43" r="19.82"/>
    <path class="cls-7" d="M519.88,90.68a19.82,19.82,0,1,0-13.56,37.24Z"/>
    <rect class="cls-3" x="493.64" y="107.9" width="39.64" height="3.05" transform="translate(235 554.48) rotate(-70)"/>
</svg>