<?xml version="1.0" encoding="UTF-8"?>
<svg width="650px" height="240px" viewBox="0 0 650 240" version="1.1" xmlns="http://www.w3.org/2000/svg" xmlns:xlink="http://www.w3.org/1999/xlink">
    <!-- Generator: Sketch 50.2 (55047) - http://www.bohemiancoding.com/sketch -->
    <title>troubleshoot-06</title>
    <desc>Created with Sketch.</desc>
    <defs></defs>
    <g id="troubleshoot-06" stroke="none" stroke-width="1" fill="none" fill-rule="evenodd">
        <g transform="translate(50.000000, 21.000000)" fill-rule="nonzero">
            <rect id="Rectangle-path" fill="#F5F5F5" x="106.83" y="14.8" width="59.43" height="74.72"></rect>
            <path d="M166.27,70.42 L105.14,70.42 C104.433076,70.42 103.86,69.8469245 103.86,69.14 C103.86,68.4330755 104.433076,67.86 105.14,67.86 L166.27,67.86 C166.976924,67.86 167.55,68.4330755 167.55,69.14 C167.55,69.8469245 166.976924,70.42 166.27,70.42 Z" id="Shape" fill="#FFFFFF"></path>
            <polygon id="Shape" fill="#AAE4EF" points="22.78 165.93 14.29 165.93 14.29 154.24 26.17 150.84 26.17 130.38 131.46 103.2 131.46 89.51 139.95 89.51 139.95 109.78 34.67 136.95 34.67 157.24 22.78 160.64"></polygon>
            <path d="M18.53,170.17 C16.1883127,170.17 14.29,168.271687 14.29,165.93 L14.29,154.24 L26.17,150.84 L26.17,130.38 L64.49,120.49 C65.9847187,120.030388 67.6110923,120.428745 68.7242074,121.527108 C69.8373225,122.625471 70.2573405,124.246386 69.8177098,125.747103 C69.378079,127.24782 68.1498277,128.385879 66.62,128.71 L34.62,136.95 L34.62,157.24 L22.74,160.64 L22.74,165.93 C22.7400583,168.260021 20.8599631,170.153514 18.53,170.17 Z" id="Shape" fill="#01ABCE"></path>
            <polygon id="Shape" fill="#E50046" points="64.38 114.99 52.5 118.38 52.5 14.8 64.38 14.8"></polygon>
            <polygon id="Shape" fill="#E50046" points="52.5 138.76 64.38 135.36 64.38 196.49 52.5 196.49"></polygon>
            <circle id="Oval" fill="#006280" cx="120.2" cy="79.06" r="3.62"></circle>
            <path d="M40.56,107 L38.56,107.52 L39.96,108.34 C40.292147,108.536636 40.452596,108.930481 40.3524163,109.303243 C40.2522366,109.676005 39.9159715,109.936359 39.53,109.94 C39.3753364,109.939361 39.2235729,109.897971 39.09,109.82 L37.69,108.99 L38.21,110.99 L36.49,111.43 L35.49,107.71 L32.21,105.78 L32.21,109.59 L34.9,112.33 L33.64,113.57 L32.19,112.09 L32.19,113.73 C32.1845222,114.201055 31.8010869,114.580032 31.33,114.58 C30.8573405,114.569131 30.4798751,114.182784 30.48,113.71 L30.48,112.08 L29,113.51 L27.76,112.25 L30.5,109.56 L30.5,105.74 L27.34,107.53 L26.34,111.23 L24.63,110.76 L25.19,108.76 L23.6,109.66 C23.4713843,109.731169 23.3269898,109.768987 23.18,109.77 C22.7958493,109.762018 22.4636021,109.500181 22.3660459,109.128538 C22.2684897,108.756895 22.4292974,108.365631 22.76,108.17 L24.34,107.27 L22.34,106.72 L22.82,105.01 L26.52,106.01 L29.67,104.22 L26.55,102.38 L22.83,103.38 L22.39,101.67 L24.39,101.15 L22.83,100.23 C22.5448624,100.085111 22.3636853,99.7939534 22.3596552,99.4741408 C22.3556251,99.1543283 22.5294079,98.8586978 22.8108039,98.7066695 C23.0921998,98.5546413 23.4347188,98.5713322 23.7,98.75 L25.26,99.67 L24.74,97.67 L26.46,97.22 L27.46,100.94 L30.59,102.78 L30.59,99.15 L27.9,96.42 L29.16,95.18 L30.61,96.65 L30.61,94.84 C30.6154778,94.368945 30.9989131,93.9899682 31.47,93.99 C31.941055,93.9954778 32.3200318,94.3789131 32.32,94.85 L32.32,96.67 L33.8,95.22 L35,96.47 L32.26,99.16 L32.26,102.79 L35.58,100.91 L36.58,97.21 L38.28,97.68 L37.73,99.68 L39.15,98.87 C39.5622145,98.6555439 40.0702346,98.8073066 40.2972708,99.2127283 C40.524307,99.6181501 40.3882452,100.130599 39.99,100.37 L38.57,101.17 L40.57,101.72 L40.1,103.43 L36.4,102.43 L33.08,104.31 L36.36,106.25 L40.08,105.25 L40.56,107 Z" id="Shape" fill="#01ABCE"></path>
            <path d="M18.49,92.53 L16.49,93.05 L17.9,93.88 C18.0957762,93.9945997 18.2376206,94.1827025 18.2939648,94.4024449 C18.350309,94.6221873 18.3164776,94.8553353 18.2,95.05 C18.0503224,95.3176707 17.7666672,95.4824974 17.46,95.48 C17.308327,95.480538 17.1594768,95.4389984 17.03,95.36 L15.62,94.53 L16.14,96.53 L14.43,96.98 L13.43,93.26 L10.14,91.33 L10.14,95.14 L12.83,97.88 L11.57,99.12 L10.12,97.64 L10.12,99.27 C10.1145222,99.741055 9.73108689,100.120032 9.26,100.12 C9.03282263,100.120016 8.81509241,100.029091 8.65539589,99.8675157 C8.49569937,99.7059404 8.40732732,99.4871617 8.41,99.26 L8.41,97.63 L6.93,99.08 L5.69,97.82 L8.43,95.12 L8.43,91.31 L5.3,93.1 L4.3,96.8 L2.6,96.33 L3.15,94.33 L1.57,95.22 C1.44363035,95.2977062 1.29834734,95.3392157 1.15,95.34 C0.757078104,95.3442293 0.411261304,95.0815986 0.309867386,94.7019609 C0.208473469,94.3223232 0.377292946,93.922243 0.72,93.73 L2.3,92.84 L0.3,92.28 L0.77,90.58 L4.47,91.58 L7.63,89.8 L4.48,88 L0.77,89 L0.32,87.29 L2.32,86.77 L0.75,85.85 C0.553548506,85.7334784 0.411519662,85.5435935 0.355240075,85.3222271 C0.298960489,85.1008607 0.333053723,84.866199 0.45,84.67 C0.564599667,84.4742238 0.752702513,84.3323794 0.972444919,84.2760352 C1.19218733,84.219691 1.42533526,84.2535224 1.62,84.37 L3.19,85.29 L2.67,83.29 L4.38,82.85 L5.38,86.57 L8.51,88.41 L8.51,84.78 L5.82,82 L7.08,80.76 L8.53,82.24 L8.53,80.42 C8.53547775,79.948945 8.91891311,79.5699682 9.39,79.57 C9.61894241,79.5699366 9.83823032,79.6622301 9.99822384,79.8259882 C10.1582174,79.9897463 10.2453869,80.211121 10.24,80.44 L10.24,82.25 L11.72,80.8 L13,82 L10.26,84.69 L10.26,88.32 L13.58,86.45 L14.58,82.74 L16.29,83.22 L15.73,85.22 L17.15,84.42 C17.4175147,84.2402757 17.7630614,84.2252045 18.045208,84.380955 C18.3273546,84.5367055 18.4987396,84.8371334 18.4892151,85.1592734 C18.4796907,85.4814134 18.2908556,85.7711909 18,85.91 L16.58,86.72 L18.58,87.27 L18.11,88.97 L14.41,87.97 L11,89.85 L14.29,91.78 L18,90.78 L18.49,92.53 Z" id="Shape" fill="#01ABCE"></path>
            <path d="M40.56,78.1 L38.56,78.62 L39.96,79.45 C40.1574652,79.5629226 40.3014296,79.7502818 40.3596899,79.9701676 C40.4179503,80.1900534 40.3856449,80.4241166 40.27,80.62 C40.1147229,80.8807665 39.8334963,81.0403817 39.53,81.04 C39.3753364,81.0393612 39.2235729,80.9979712 39.09,80.92 L37.69,80.1 L38.21,82.1 L36.49,82.54 L35.49,78.83 L32.21,76.89 L32.21,80.71 L34.9,83.44 L33.64,84.68 L32.19,83.21 L32.19,84.84 C32.1845222,85.311055 31.8010869,85.6900318 31.33,85.69 C30.8573405,85.6791314 30.4798751,85.2927844 30.48,84.82 L30.48,83.19 L29,84.64 L27.76,83.38 L30.5,80.69 L30.5,76.88 L27.34,78.66 L26.34,82.36 L24.63,81.89 L25.19,79.89 L23.6,80.78 C23.4732318,80.8556766 23.327589,80.8938211 23.18,80.89 C22.8727535,80.8946987 22.588052,80.729264 22.44,80.46 C22.3251675,80.2628951 22.2943801,80.0279057 22.3545604,79.8078712 C22.4147408,79.5878368 22.5608377,79.401226 22.76,79.29 L24.34,78.39 L22.34,77.84 L22.82,76.14 L26.52,77.14 L29.67,75.35 L26.55,73.51 L22.83,74.51 L22.39,72.8 L24.39,72.28 L22.83,71.36 C22.4232606,71.1210326 22.2849482,70.5990147 22.52,70.19 C22.6348583,69.9918607 22.8240045,69.8477193 23.0455113,69.7895268 C23.267018,69.7313344 23.5025868,69.7638982 23.7,69.88 L25.26,70.8 L24.74,68.8 L26.46,68.36 L27.46,72.07 L30.59,73.91 L30.59,70.29 L27.9,67.54 L29.16,66.3 L30.61,67.77 L30.61,66 C30.6154778,65.528945 30.9989131,65.1499682 31.47,65.15 C31.941055,65.1554778 32.3200318,65.5389131 32.32,66.01 L32.32,67.83 L33.8,66.38 L35,67.6 L32.3,70.29 L32.3,73.92 L35.59,72 L36.59,68.3 L38.29,68.77 L37.74,70.77 L39.16,69.97 C39.5716228,69.7366363 40.0944413,69.8796294 40.33,70.29 C40.4514024,70.493126 40.4848234,70.7369412 40.4225591,70.9652434 C40.3602949,71.1935456 40.2077183,71.3866341 40,71.5 L38.58,72.3 L40.58,72.86 L40.11,74.56 L36.41,73.56 L33.09,75.44 L36.37,77.38 L40.09,76.38 L40.56,78.1 Z" id="Shape" fill="#01ABCE"></path>
            <polygon id="Shape" fill="#F5F5F5" points="397.45 14.27 395.61 14.27 301.92 14.27 329.47 197.21 395.61 197.21 397.45 197.21 463.59 197.21 491.15 14.27"></polygon>
            <rect id="Rectangle-path" fill="#F5F5F5" x="289.06" y="14.27" width="214.95" height="60.98"></rect>
            <polygon id="Shape" fill="#AAE4EF" points="313.17 88.97 329.47 197.21 395.61 197.21 397.45 197.21 463.59 197.21 479.89 88.97"></polygon>
            <rect id="Rectangle-path" fill="#AAE4EF" x="243.32" y="37.14" width="70.13" height="15.24"></rect>
            <rect id="Rectangle-path" fill="#CCCCCC" x="311.92" y="36.63" width="3.05" height="10.16" rx="1.52"></rect>
            <rect id="Rectangle-path" fill="#CCCCCC" x="311.92" y="42.73" width="3.05" height="10.16" rx="1.52"></rect>
            <rect id="Rectangle-path" fill="#AAE4EF" transform="translate(514.675000, 44.770000) rotate(-180.000000) translate(-514.675000, -44.770000) " x="479.61" y="37.15" width="70.13" height="15.24"></rect>
            <rect id="Rectangle-path" fill="#01ABCE" transform="translate(526.965000, 44.770000) rotate(-180.000000) translate(-526.965000, -44.770000) " x="504.19" y="37.15" width="45.55" height="15.24"></rect>
            <rect id="Rectangle-path" fill="#CCCCCC" transform="translate(504.005000, 44.765000) rotate(-180.000000) translate(-504.005000, -44.765000) " x="499.43" y="29.52" width="9.15" height="30.49" rx="4.57"></rect>
            <rect id="Rectangle-path" fill="#CCCCCC" transform="translate(479.615000, 41.720000) rotate(180.000000) translate(-479.615000, -41.720000) " x="478.09" y="36.64" width="3.05" height="10.16" rx="1.52"></rect>
            <rect id="Rectangle-path" fill="#CCCCCC" transform="translate(479.615000, 47.820000) rotate(-180.000000) translate(-479.615000, -47.820000) " x="478.09" y="42.74" width="3.05" height="10.16" rx="1.52"></rect>
            <rect id="Rectangle-path" fill="#F5F5F5" x="278.98" y="147.52" width="70.13" height="15.24"></rect>
            <rect id="Rectangle-path" fill="#01ABCE" x="278.98" y="147.52" width="45.21" height="15.24"></rect>
            <rect id="Rectangle-path" fill="#CCCCCC" transform="translate(324.712945, 155.140520) rotate(-8.000000) translate(-324.712945, -155.140520) " x="320.137945" y="139.89552" width="9.15" height="30.49" rx="4.57"></rect>
            <rect id="Rectangle-path" fill="#CCCCCC" x="347.58" y="147.01" width="3.05" height="10.16" rx="1.52"></rect>
            <rect id="Rectangle-path" fill="#CCCCCC" x="347.58" y="153.11" width="3.05" height="10.16" rx="1.52"></rect>
            <rect id="Rectangle-path" fill="#F5F5F5" x="443.96" y="147.52" width="70.13" height="15.24"></rect>
            <rect id="Rectangle-path" fill="#01ABCE" transform="translate(491.305000, 155.140000) rotate(-180.000000) translate(-491.305000, -155.140000) " x="468.53" y="147.52" width="45.55" height="15.24"></rect>
            <rect id="Rectangle-path" fill="#CCCCCC" transform="translate(468.638750, 154.758150) rotate(-171.950938) translate(-468.638750, -154.758150) " x="464.064436" y="139.515437" width="9.1486274" height="30.4854262" rx="4.57"></rect>
            <rect id="Rectangle-path" fill="#CCCCCC" transform="translate(443.955000, 152.100000) rotate(180.000000) translate(-443.955000, -152.100000) " x="442.43" y="147.02" width="3.05" height="10.16" rx="1.52"></rect>
            <rect id="Rectangle-path" fill="#CCCCCC" transform="translate(443.955000, 158.190000) rotate(180.000000) translate(-443.955000, -158.190000) " x="442.43" y="153.11" width="3.05" height="10.16" rx="1.52"></rect>
            <rect id="Rectangle-path" fill="#01ABCE" x="243.32" y="37.14" width="45.21" height="15.24"></rect>
            <rect id="Rectangle-path" fill="#E50046" transform="translate(258.565000, 21.895000) rotate(-90.000000) translate(-258.565000, -21.895000) " x="253.99" y="6.65" width="9.15" height="30.49" rx="4.57"></rect>
            <rect id="Rectangle-path" fill="#006280" x="254.37" y="29.52" width="7.24" height="22.87"></rect>
            <rect id="Rectangle-path" fill="#006280" x="249.61" y="35.62" width="16.77" height="18.29" rx="2.94"></rect>
            <rect id="Rectangle-path" fill="#CCCCCC" x="284.48" y="29.52" width="9.15" height="30.49" rx="4.57"></rect>
            <path d="M297.21,134.14 L295.21,134.66 L296.61,135.48 C296.942147,135.676636 297.102596,136.070481 297.002416,136.443243 C296.902237,136.816005 296.565972,137.076359 296.18,137.08 C296.025336,137.079361 295.873573,137.037971 295.74,136.96 L294.34,136.13 L294.85,138.13 L293.14,138.57 L292.14,134.85 L288.85,132.92 L288.85,136.73 L291.54,139.47 L290.28,140.71 L288.83,139.23 L288.83,140.87 C288.83,141.339442 288.449442,141.72 287.98,141.72 C287.507341,141.709131 287.129875,141.322784 287.13,140.85 L287.13,139.22 L285.66,140.67 L284.42,139.41 L287.15,136.72 L287.15,132.9 L284,134.7 L283,138.4 L281.3,137.93 L281.85,135.93 L280.27,136.83 C280.140926,136.900016 279.996825,136.937757 279.85,136.94 C279.458952,136.939622 279.11739,136.675468 279.018681,136.297083 C278.919972,135.918698 279.08897,135.521355 279.43,135.33 L281.01,134.44 L279.01,133.89 L279.48,132.18 L283.18,133.18 L286.34,131.39 L283.22,129.55 L279.5,130.55 L279.05,128.84 L281.05,128.32 L279.49,127.4 C279.204862,127.255111 279.023685,126.963953 279.019655,126.644141 C279.015625,126.324328 279.189408,126.028698 279.470804,125.87667 C279.7522,125.724641 280.094719,125.741332 280.36,125.92 L281.92,126.84 L281.4,124.84 L283.11,124.39 L284.11,128.11 L287.23,129.95 L287.23,126.32 L284.54,123.59 L285.8,122.35 L287.26,123.82 L287.26,122 C287.265478,121.528945 287.648913,121.149968 288.12,121.15 C288.591055,121.155478 288.970032,121.538913 288.97,122.01 L288.97,123.83 L290.45,122.38 L291.69,123.64 L289,126.33 L289,129.96 L292.32,128.08 L293.32,124.38 L295.03,124.85 L294.48,126.85 L295.89,126.04 C296.304214,125.805279 296.830279,125.950787 297.065,126.365 C297.299721,126.779214 297.154214,127.305279 296.74,127.54 L295.32,128.34 L297.32,128.89 L296.84,130.6 L293.14,129.6 L289.82,131.48 L293.11,133.42 L296.83,132.42 L297.21,134.14 Z" id="Shape" fill="#01ABCE"></path>
            <path d="M514,134.14 L512,134.66 L513.41,135.48 C513.743707,135.677597 513.903875,136.074098 513.801042,136.448037 C513.698209,136.821975 513.35782,137.080823 512.97,137.08 C512.818327,137.080538 512.669477,137.038998 512.54,136.96 L511.13,136.13 L511.65,138.13 L509.94,138.57 L508.94,134.85 L505.65,132.92 L505.65,136.73 L508.34,139.47 L507.08,140.71 L505.62,139.23 L505.62,140.87 C505.614522,141.341055 505.231087,141.720032 504.76,141.72 C504.287341,141.709131 503.909875,141.322784 503.91,140.85 L503.91,139.22 L502.43,140.67 L501.19,139.41 L503.93,136.72 L503.93,132.9 L500.77,134.69 L499.77,138.39 L498.06,137.92 L498.62,135.92 L497.04,136.82 C496.910502,136.888939 496.766666,136.92661 496.62,136.93 C496.309377,136.927744 496.023522,136.760042 495.87,136.49 C495.636636,136.078377 495.779629,135.555559 496.19,135.32 L497.77,134.43 L495.77,133.88 L496.24,132.17 L499.94,133.17 L503.1,131.38 L500,129.58 L496.28,130.58 L495.84,128.87 L497.84,128.35 L496.27,127.43 C495.89302,127.176103 495.778692,126.672701 496.009021,126.280877 C496.23935,125.889053 496.734803,125.744104 497.14,125.95 L498.71,126.87 L498.19,124.87 L499.9,124.42 L500.9,128.14 L504.03,129.98 L504.03,126.35 L501.34,123.62 L502.6,122.38 L504.05,123.85 L504.05,122.04 C504.05,121.814566 504.139553,121.598365 504.298959,121.438959 C504.458365,121.279553 504.674566,121.19 504.9,121.19 C505.127177,121.189984 505.344908,121.280909 505.504604,121.442484 C505.664301,121.60406 505.752673,121.822838 505.75,122.05 L505.75,123.87 L507.22,122.42 L508.46,123.68 L505.73,126.37 L505.73,130 L509.05,128.12 L510.05,124.42 L511.75,124.89 L511.2,126.89 L512.62,126.08 C513.034214,125.845279 513.560279,125.990787 513.795,126.405 C514.029721,126.819214 513.884214,127.345279 513.47,127.58 L512.05,128.38 L514.05,128.93 L513.58,130.64 L509.88,129.64 L506.56,131.52 L509.85,133.46 L513.56,132.46 L514,134.14 Z" id="Shape" fill="#01ABCE"></path>
            <path d="M548,73 L546,73.52 L547.41,74.35 C547.606451,74.4665216 547.74848,74.6564065 547.80476,74.8777729 C547.86104,75.0991393 547.826946,75.333801 547.71,75.53 C547.5954,75.7257762 547.407297,75.8676206 547.187555,75.9239648 C546.967813,75.980309 546.734665,75.9464776 546.54,75.83 L545.12,75 L545.64,77 L543.93,77.44 L542.93,73.72 L539.64,71.79 L539.64,75.6 L542.33,78.34 L541.07,79.58 L539.62,78.1 L539.62,79.73 C539.620016,79.9571774 539.529091,80.1749076 539.367516,80.3346041 C539.20594,80.4943006 538.987162,80.5826727 538.76,80.58 C538.532823,80.5800157 538.315092,80.489091 538.155396,80.3275157 C537.995699,80.1659404 537.907327,79.9471617 537.91,79.72 L537.91,78.1 L536.43,79.55 L535.19,78.29 L537.93,75.6 L537.93,71.78 L534.77,73.57 L533.77,77.27 L532.07,76.8 L532.62,74.8 L531.04,75.7 C530.910926,75.7700162 530.766825,75.8077569 530.62,75.81 C530.227078,75.8142293 529.881261,75.5515986 529.779867,75.1719609 C529.678473,74.7923232 529.847293,74.392243 530.19,74.2 L531.78,73.31 L529.78,72.75 L530.25,71.05 L533.95,72.05 L537.11,70.26 L534,68.45 L530.29,69.45 L529.84,67.74 L531.84,67.22 L530.27,66.3 C530.073549,66.1834784 529.93152,65.9935935 529.87524,65.7722271 C529.81896,65.5508607 529.853054,65.316199 529.97,65.12 C530.0846,64.9242238 530.272703,64.7823794 530.492445,64.7260352 C530.712187,64.669691 530.945335,64.7035224 531.14,64.82 L532.71,65.74 L532.19,63.74 L533.9,63.3 L534.9,67.02 L538,68.81 L538,65.18 L535.31,62.44 L536.57,61.2 L538,62.68 L538,60.86 C538.005478,60.388945 538.388913,60.0099682 538.86,60.01 C539.088091,60.0126368 539.305791,60.1057824 539.4652,60.2689424 C539.624609,60.4321024 539.712668,60.6519093 539.71,60.88 L539.71,62.7 L541.19,61.24 L542.43,62.5 L539.69,65.2 L539.69,68.83 L543,67 L544,63.3 L545.71,63.77 L545.15,65.77 L546.57,64.97 C546.976645,64.775931 547.464139,64.9286276 547.687407,65.3200029 C547.910674,65.7113782 547.794012,66.2087274 547.42,66.46 L546,67.27 L548,67.82 L547.53,69.53 L543.83,68.53 L540.51,70.41 L543.8,72.34 L547.52,71.34 L548,73 Z" id="Shape" fill="#01ABCE"></path>
            <rect id="Rectangle-path" fill="#F5F5F5" x="356.18" y="2.91" width="15.28" height="11.89"></rect>
            <rect id="Rectangle-path" fill="#CCCCCC" transform="translate(359.920000, 2.305000) rotate(-90.000000) translate(-359.920000, -2.305000) " x="358.395" y="-2.775" width="3.05" height="10.16" rx="1.52"></rect>
            <rect id="Rectangle-path" fill="#CCCCCC" transform="translate(367.720000, 2.315000) rotate(-90.000000) translate(-367.720000, -2.315000) " x="366.195" y="-2.765" width="3.05" height="10.16" rx="1.52"></rect>
        </g>
    </g>
</svg>