<svg data-name="Layer 1" xmlns="http://www.w3.org/2000/svg" width="650" height="240" viewBox="0 0 650 240">
    <defs>
        <style>
            .cls-1{fill:#f5f5f5;}.cls-2{fill:#fff;}.cls-3{fill:#aae4ef;}.cls-4{fill:#01abce;}.cls-5{fill:#e50046;}.cls-6{fill:#006280;}.cls-7{fill:#ccc;}
        </style>
    </defs>
    <rect class="cls-1" x="156.83" y="35.8" width="59.43" height="74.72"/>
    <path class="cls-2" d="M216.27,91.42H155.14a1.28,1.28,0,0,1,0-2.56h61.13a1.28,1.28,0,1,1,0,2.56Z"/>
    <polygon class="cls-3"
             points="72.78 186.93 64.29 186.93 64.29 175.24 76.17 171.84 76.17 151.38 181.46 124.2 181.46 110.51 189.95 110.51 189.95 130.78 84.67 157.95 84.67 178.24 72.78 181.64 72.78 186.93"/>
    <path class="cls-4"
          d="M68.53,191.17a4.24,4.24,0,0,1-4.24-4.24V175.24l11.88-3.4V151.38l38.32-9.89a4.25,4.25,0,1,1,2.13,8.22l-32,8.24v20.29l-11.88,3.4v5.29A4.24,4.24,0,0,1,68.53,191.17Z"/>
    <polygon class="cls-5" points="114.38 135.99 102.5 139.38 102.5 35.8 114.38 35.8 114.38 135.99"/>
    <polygon class="cls-5" points="102.5 159.76 114.38 156.36 114.38 217.49 102.5 217.49 102.5 159.76"/>
    <circle class="cls-6" cx="170.2" cy="100.06" r="3.62"/>
    <path class="cls-4"
          d="M90.56,128l-2,.52,1.4.82a.86.86,0,0,1-.43,1.6.88.88,0,0,1-.44-.12l-1.4-.83.52,2-1.72.44-1-3.72-3.28-1.93,0,3.81,2.69,2.74-1.26,1.24-1.45-1.48v1.64a.86.86,0,0,1-.86.85h0a.87.87,0,0,1-.85-.87l0-1.63L79,134.51l-1.24-1.26,2.74-2.69,0-3.82-3.16,1.79-1,3.7-1.71-.47.56-2-1.59.9a.88.88,0,0,1-.42.11.86.86,0,0,1-.42-1.6l1.58-.9-2-.55.48-1.71,3.7,1,3.15-1.79-3.12-1.84-3.72,1-.44-1.71,2-.52-1.56-.92a.86.86,0,1,1,.87-1.48l1.56.92-.52-2,1.72-.45,1,3.72,3.13,1.84,0-3.63-2.69-2.73,1.26-1.24,1.45,1.47v-1.81a.86.86,0,0,1,.86-.85h0a.86.86,0,0,1,.85.86l0,1.82,1.48-1.45L85,117.47l-2.74,2.69,0,3.63,3.32-1.88,1-3.7,1.7.47-.55,2,1.42-.81a.86.86,0,0,1,.84,1.5l-1.42.8,2,.55-.47,1.71-3.7-1-3.32,1.88,3.28,1.94,3.72-1Z"/>
    <path class="cls-4"
          d="M68.49,113.53l-2,.52,1.41.83a.85.85,0,0,1,.3,1.17.84.84,0,0,1-.74.43.82.82,0,0,1-.43-.12l-1.41-.83.52,2-1.71.45-1-3.72-3.29-1.93,0,3.81,2.69,2.74-1.26,1.24-1.45-1.48,0,1.63a.86.86,0,0,1-.86.85h0a.85.85,0,0,1-.85-.86v-1.63l-1.48,1.45-1.24-1.26,2.74-2.7,0-3.81L55.3,114.1l-1,3.7-1.7-.47.55-2-1.58.89a.81.81,0,0,1-.42.12.86.86,0,0,1-.43-1.61l1.58-.89-2-.56.47-1.7,3.7,1,3.16-1.78L54.48,109l-3.71,1-.45-1.71,2-.52-1.57-.92a.86.86,0,0,1-.3-1.18.85.85,0,0,1,1.17-.3l1.57.92-.52-2,1.71-.44,1,3.72,3.13,1.84,0-3.63L55.82,103l1.26-1.24,1.45,1.48,0-1.82a.86.86,0,0,1,.86-.85h0a.85.85,0,0,1,.85.87v1.81l1.48-1.45L63,103l-2.74,2.69,0,3.63,3.32-1.87,1-3.71,1.71.48-.56,2,1.42-.8a.86.86,0,1,1,.85,1.49l-1.42.81,2,.55-.47,1.7-3.7-1L61,110.85l3.29,1.93,3.71-1Z"/>
    <path class="cls-4"
          d="M90.56,99.1l-2,.52,1.4.83a.85.85,0,0,1,.31,1.17.86.86,0,0,1-.74.42.88.88,0,0,1-.44-.12l-1.4-.82.52,2-1.72.44-1-3.71-3.28-1.94,0,3.82,2.69,2.73-1.26,1.24-1.45-1.47v1.63a.86.86,0,0,1-.86.85h0a.87.87,0,0,1-.85-.87l0-1.63L79,105.64l-1.24-1.26,2.74-2.69,0-3.81-3.16,1.78-1,3.7-1.71-.47.56-2-1.59.89a.78.78,0,0,1-.42.11.83.83,0,0,1-.74-.43.85.85,0,0,1,.32-1.17l1.58-.9-2-.55.48-1.7,3.7,1,3.15-1.79-3.12-1.84-3.72,1-.44-1.71,2-.52-1.56-.92a.86.86,0,0,1-.31-1.17.86.86,0,0,1,1.18-.31l1.56.92-.52-2,1.72-.44,1,3.71,3.13,1.84,0-3.62L77.9,88.54l1.26-1.24,1.45,1.47V87a.86.86,0,0,1,.86-.85h0a.86.86,0,0,1,.85.86l0,1.82,1.48-1.45L85,88.6,82.3,91.29l0,3.63L85.59,93l1-3.7,1.7.47-.55,2,1.42-.8a.86.86,0,0,1,1.17.32A.87.87,0,0,1,90,92.5l-1.42.8,2,.56-.47,1.7-3.7-1-3.32,1.88,3.28,1.94,3.72-1Z"/>
    <polygon class="cls-1"
             points="447.45 35.27 445.61 35.27 351.92 35.27 379.47 218.21 445.61 218.21 447.45 218.21 513.59 218.21 541.15 35.27 447.45 35.27"/>
    <rect class="cls-1" x="339.06" y="35.27" width="214.95" height="60.98"/>
    <polygon class="cls-3"
             points="363.17 109.97 379.47 218.21 445.61 218.21 447.45 218.21 513.59 218.21 529.89 109.97 363.17 109.97"/>
    <rect class="cls-3" x="293.32" y="58.14" width="70.13" height="15.24"/>
    <rect class="cls-7" x="361.92" y="57.63" width="3.05" height="10.16" rx="1.52" ry="1.52"/>
    <rect class="cls-7" x="361.92" y="63.73" width="3.05" height="10.16" rx="1.52" ry="1.52"/>
    <rect class="cls-3" x="529.62" y="58.14" width="70.13" height="15.24"
          transform="translate(1129.36 131.53) rotate(-180)"/>
    <rect class="cls-4" x="554.19" y="58.14" width="45.55" height="15.24"
          transform="translate(1153.93 131.53) rotate(-180)"/>
    <rect class="cls-7" x="549.43" y="50.52" width="9.15" height="30.49" rx="4.57" ry="4.57"
          transform="translate(1108.01 131.53) rotate(-180)"/>
    <rect class="cls-7" x="528.09" y="57.63" width="3.05" height="10.16" rx="1.52" ry="1.52"
          transform="translate(1059.23 125.43) rotate(180)"/>
    <rect class="cls-7" x="528.09" y="63.73" width="3.05" height="10.16" rx="1.52" ry="1.52"
          transform="translate(1059.23 137.63) rotate(-180)"/>
    <rect class="cls-1" x="328.98" y="168.52" width="70.13" height="15.24"/>
    <rect class="cls-4" x="328.98" y="168.52" width="45.21" height="15.24"/>
    <rect class="cls-7" x="370.14" y="160.9" width="9.15" height="30.49" rx="4.57" ry="4.57"
          transform="translate(-20.87 53.86) rotate(-8)"/>
    <rect class="cls-7" x="397.58" y="168.01" width="3.05" height="10.16" rx="1.52" ry="1.52"/>
    <rect class="cls-7" x="397.58" y="174.11" width="3.05" height="10.16" rx="1.52" ry="1.52"/>
    <rect class="cls-1" x="493.96" y="168.52" width="70.13" height="15.24"/>
    <rect class="cls-4" x="518.53" y="168.52" width="45.55" height="15.24"
          transform="translate(1082.61 352.28) rotate(-180)"/>
    <rect class="cls-7" x="513.77" y="160.9" width="9.15" height="30.49" rx="4.57" ry="4.57"
          transform="matrix(-0.99, -0.14, 0.14, -0.99, 1007.14, 422.71)"/>
    <rect class="cls-7" x="492.43" y="168.01" width="3.05" height="10.16" rx="1.52" ry="1.52"
          transform="translate(987.91 346.19) rotate(180)"/>
    <rect class="cls-7" x="492.43" y="174.11" width="3.05" height="10.16" rx="1.52" ry="1.52"
          transform="translate(987.91 358.38) rotate(180)"/>
    <rect class="cls-4" x="293.32" y="58.14" width="45.21" height="15.24"/>
    <rect class="cls-5" x="303.99" y="27.65" width="9.15" height="30.49" rx="4.57" ry="4.57"
          transform="translate(265.67 351.46) rotate(-90)"/>
    <rect class="cls-6" x="304.37" y="50.52" width="7.24" height="22.87"/>
    <rect class="cls-6" x="299.61" y="56.62" width="16.77" height="18.29" rx="2.94" ry="2.94"/>
    <rect class="cls-7" x="334.48" y="50.52" width="9.15" height="30.49" rx="4.57" ry="4.57"/>
    <path class="cls-4"
          d="M347.21,155.14l-2,.52,1.4.82a.86.86,0,0,1-.43,1.6.88.88,0,0,1-.44-.12l-1.4-.83.51,2-1.71.44-1-3.72-3.29-1.93,0,3.81,2.69,2.74-1.26,1.24-1.45-1.48,0,1.64a.85.85,0,0,1-.85.85h0a.87.87,0,0,1-.85-.87v-1.63l-1.47,1.45-1.24-1.26,2.73-2.69,0-3.82L334,155.7l-1,3.7-1.7-.47.55-2-1.58.9a.91.91,0,0,1-.42.11.86.86,0,0,1-.42-1.61l1.58-.89-2-.55.47-1.71,3.7,1,3.16-1.79-3.12-1.84-3.72,1-.45-1.71,2-.52-1.56-.92a.86.86,0,1,1,.87-1.48l1.56.92-.52-2,1.71-.45,1,3.72,3.12,1.84,0-3.63-2.69-2.73,1.26-1.24,1.46,1.47V143a.86.86,0,0,1,.86-.85h0a.86.86,0,0,1,.85.86l0,1.82,1.48-1.45,1.24,1.26L339,147.33l0,3.63,3.32-1.88,1-3.7,1.71.47-.55,2,1.41-.81a.86.86,0,0,1,.85,1.5l-1.42.8,2,.55-.48,1.71-3.7-1-3.32,1.88,3.29,1.94,3.72-1Z"/>
    <path class="cls-4"
          d="M564,155.14l-2,.52,1.41.82a.86.86,0,0,1-.44,1.6.82.82,0,0,1-.43-.12l-1.41-.83.52,2-1.71.44-1-3.72-3.29-1.93,0,3.81,2.69,2.74-1.26,1.24-1.46-1.48v1.64a.86.86,0,0,1-.86.85h0a.87.87,0,0,1-.85-.87l0-1.63-1.48,1.45-1.24-1.26,2.74-2.69,0-3.82-3.16,1.79-1,3.7-1.71-.47.56-2-1.58.9a.94.94,0,0,1-.42.11.87.87,0,0,1-.75-.44.86.86,0,0,1,.32-1.17l1.58-.89-2-.55.47-1.71,3.7,1,3.16-1.79L550,150.58l-3.72,1-.44-1.71,2-.52-1.57-.92a.86.86,0,0,1,.87-1.48l1.57.92-.52-2,1.71-.45,1,3.72,3.13,1.84,0-3.63-2.69-2.73,1.26-1.24,1.45,1.47,0-1.81a.85.85,0,0,1,.85-.85h0a.85.85,0,0,1,.85.86v1.82l1.47-1.45,1.24,1.26-2.73,2.69,0,3.63,3.32-1.88,1-3.7,1.7.47-.55,2,1.42-.81a.86.86,0,0,1,.85,1.5l-1.42.8,2,.55-.47,1.71-3.7-1-3.32,1.88,3.29,1.94,3.71-1Z"/>
    <path class="cls-4"
          d="M598,94l-2,.52,1.41.83a.86.86,0,0,1,.3,1.18.85.85,0,0,1-1.17.3L595.12,96l.52,2-1.71.44-1-3.72-3.29-1.93,0,3.81,2.69,2.74-1.26,1.24-1.45-1.48,0,1.63a.85.85,0,0,1-.86.85h0a.85.85,0,0,1-.85-.86V99.1l-1.48,1.45-1.24-1.26,2.74-2.69,0-3.82-3.16,1.79-1,3.7-1.7-.47.55-2-1.58.9a.91.91,0,0,1-.42.11.86.86,0,0,1-.43-1.61l1.59-.89-2-.56.47-1.7,3.7,1,3.16-1.79L584,89.45l-3.71,1-.45-1.71,2-.52-1.57-.92a.86.86,0,0,1-.3-1.18.85.85,0,0,1,1.17-.3l1.57.92-.52-2,1.71-.44,1,3.72L588,89.81l0-3.63-2.69-2.74,1.26-1.24L588,83.68l0-1.82a.86.86,0,0,1,.86-.85h0a.86.86,0,0,1,.85.87V83.7l1.48-1.46,1.24,1.26-2.74,2.7,0,3.63L593,88l1-3.7,1.71.47-.56,2,1.42-.8a.86.86,0,0,1,.85,1.49l-1.42.81,2,.55-.47,1.71-3.7-1-3.32,1.88,3.29,1.93,3.72-1Z"/>
    <rect class="cls-1" x="406.18" y="23.91" width="15.28" height="11.89"/>
    <rect class="cls-7" x="408.4" y="18.23" width="3.05" height="10.16" rx="1.52" ry="1.52"
          transform="translate(386.61 433.23) rotate(-90)"/>
    <rect class="cls-7" x="416.19" y="18.23" width="3.05" height="10.16" rx="1.52" ry="1.52"
          transform="translate(394.41 441.03) rotate(-90)"/>
</svg>