<?xml version="1.0" encoding="UTF-8"?>
<svg width="60px" height="60px" viewBox="0 0 60 60" version="1.1" xmlns="http://www.w3.org/2000/svg" xmlns:xlink="http://www.w3.org/1999/xlink">
    <!-- Generator: Sketch 47 (45396) - http://www.bohemiancoding.com/sketch -->
    <title>circle-behaviour</title>
    <desc>Created with Sketch.</desc>
    <defs></defs>
    <g id="Supply" stroke="none" stroke-width="1" fill="none" fill-rule="evenodd">
        <g id="circle-behaviour">
            <g id="Group-14-Copy">
                <circle id="Oval-10-Copy-7" fill="#F5F5F5" cx="30" cy="30" r="30"></circle>
                <path d="M22,45.2091657 C22,41.3412255 25.6059228,38.2056404 30.0540541,38.2056404 C34.5021853,38.2056404 38.1081081,41.3412255 38.1081081,45.2091657 L38.1081081,52.9130435 L22,52.9130435 L22,45.2091657 Z M30.0960752,36.8049354 C27.3730453,36.8049354 25.1655934,34.6100258 25.1655934,31.9024677 C25.1655934,29.1949095 27.3730453,27 30.0960752,27 C32.8191051,27 35.026557,29.1949095 35.026557,31.9024677 C35.026557,34.6100258 32.8191051,36.8049354 30.0960752,36.8049354 Z" id="Combined-Shape" fill="#000000"></path>
                <g id="Group-6" transform="translate(33.161165, 19.161165) rotate(-30.000000) translate(-33.161165, -19.161165) translate(26.161165, 12.161165)" fill="#000000">
                    <path d="M1.11781336,6.41460349 C0.592718763,6.4293352 0.171572875,6.85962798 0.171572875,7.38828465 C0.171572875,7.92624926 0.607679357,8.36235574 1.14564396,8.36235574 C1.67430064,8.36235574 2.10459341,7.94120985 2.11932512,7.41611525 L2.11971505,7.41611525 L2.11971505,6.41421356 L1.11781336,6.41421356 L1.11781336,6.41460349 Z" id="Combined-Shape"></path>
                    <path d="M7.82492014,0.121710276 C7.29982554,0.136441984 6.87867966,0.566734762 6.87867966,1.09539143 C6.87867966,1.63335604 7.31478614,2.06946252 7.85275075,2.06946252 C8.38140742,2.06946252 8.8117002,1.64831663 8.8264319,1.12322204 L8.82682184,1.12322204 L8.82682184,0.121320344 L7.82492014,0.121320344 L7.82492014,0.121710276 Z" id="Combined-Shape-Copy-5"></path>
                    <path d="M6.53202692,11.8288171 C6.00693233,11.8435488 5.58578644,12.2738415 5.58578644,12.8024982 C5.58578644,13.3404628 6.02189292,13.7765693 6.55985753,13.7765693 C7.0885142,13.7765693 7.51880698,13.3554234 7.53353868,12.8303288 L7.53392862,12.8303288 L7.53392862,11.8284271 L6.53202692,11.8284271 L6.53202692,11.8288171 Z" id="Combined-Shape-Copy-3"></path>
                    <path d="M12.8249201,5.12171028 C12.2998255,5.13644198 11.8786797,5.56673476 11.8786797,6.09539143 C11.8786797,6.63335604 12.3147861,7.06946252 12.8527507,7.06946252 C13.3814074,7.06946252 13.8117002,6.64831663 13.8264319,6.12322204 L13.8268218,6.12322204 L13.8268218,5.12132034 L12.8249201,5.12132034 L12.8249201,5.12171028 Z" id="Combined-Shape-Copy-6"></path>
                    <path d="M7.41806589,5.8864289 C6.8929713,5.90116061 6.47182541,6.33145339 6.47182541,6.86011006 C6.47182541,7.39807467 6.90793189,7.83418115 7.4458965,7.83418115 C7.97455317,7.83418115 8.40484595,7.41303526 8.41957765,6.88794066 L8.41996759,6.88794066 L8.41996759,5.88603897 L7.41806589,5.88603897 L7.41806589,5.8864289 Z" id="Combined-Shape-Copy-4"></path>
                </g>
                <g id="Group-15" transform="translate(37.647093, 6.451748) rotate(20.000000) translate(-37.647093, -6.451748) translate(31.147093, 1.951748)" stroke="#4A4A4A" stroke-width="2">
                    <path d="M0.5,8 L12.5415946,8" id="Line-7" stroke-linecap="round"></path>
                    <path d="M6,7.5 L6,0.428932188" id="Line-8" stroke-linecap="square"></path>
                </g>
            </g>
        </g>
    </g>
</svg>