<?xml version="1.0" encoding="UTF-8"?>
<svg width="60px" height="60px" viewBox="0 0 60 60" version="1.1" xmlns="http://www.w3.org/2000/svg" xmlns:xlink="http://www.w3.org/1999/xlink">
    <!-- Generator: Sketch 47 (45396) - http://www.bohemiancoding.com/sketch -->
        <desc>Created with Sketch.</desc>
    <defs></defs>
    <g id="Supply" stroke="none" stroke-width="1" fill="none" fill-rule="evenodd">
        <g id="circle-occupancy">
            <g id="Group-14">
                <circle id="Oval-10-Copy-7" fill="#F5F5F5" cx="30" cy="30" r="30"></circle>
                <path d="M24,38.7567568 C24,35.6221676 26.9101491,33.0810811 30.5,33.0810811 C34.0898509,33.0810811 37,35.6221676 37,38.7567568 L37,45 L24,45 L24,38.7567568 Z M30.533913,31.9459459 C28.3363,31.9459459 26.5547826,30.1671854 26.5547826,27.972973 C26.5547826,25.7787606 28.3363,24 30.533913,24 C32.7315261,24 34.5130435,25.7787606 34.5130435,27.972973 C34.5130435,30.1671854 32.7315261,31.9459459 30.533913,31.9459459 Z" id="Combined-Shape" fill="#4A4A4A"></path>
                <path d="M11,32.7567568 C11,29.6221676 13.9101491,27.0810811 17.5,27.0810811 C21.0898509,27.0810811 24,29.6221676 24,32.7567568 L24,39 L11,39 L11,32.7567568 Z M17.533913,25.9459459 C15.3363,25.9459459 13.5547826,24.1671854 13.5547826,21.972973 C13.5547826,19.7787606 15.3363,18 17.533913,18 C19.7315261,18 21.5130435,19.7787606 21.5130435,21.972973 C21.5130435,24.1671854 19.7315261,25.9459459 17.533913,25.9459459 Z" id="Combined-Shape-Copy" fill="#4A4A4A"></path>
                <path d="M37,32.7567568 C37,29.6221676 39.9101491,27.0810811 43.5,27.0810811 C47.0898509,27.0810811 50,29.6221676 50,32.7567568 L50,39 L37,39 L37,32.7567568 Z M43.533913,25.9459459 C41.3363,25.9459459 39.5547826,24.1671854 39.5547826,21.972973 C39.5547826,19.7787606 41.3363,18 43.533913,18 C45.7315261,18 47.5130435,19.7787606 47.5130435,21.972973 C47.5130435,24.1671854 45.7315261,25.9459459 43.533913,25.9459459 Z" id="Combined-Shape-Copy-2" fill="#4A4A4A"></path>
            </g>
        </g>
    </g>
</svg>