<?xml version="1.0" encoding="UTF-8"?>
<svg viewBox="0 0 103 239" version="1.1" xmlns="http://www.w3.org/2000/svg" xmlns:xlink="http://www.w3.org/1999/xlink">
    <!-- Generator: Sketch 47.1 (45422) - http://www.bohemiancoding.com/sketch -->
    <desc>Created with Sketch.</desc>
    <defs></defs>
    <g stroke="none" stroke-width="1" fill="none" fill-rule="evenodd">
        <g>
            <rect fill="#FFFFFF" x="0" y="96" width="103" height="143"></rect>
            <path d="M34.5,92.5 L34.5,0.494565378" stroke="#FFFFFF" stroke-width="10"></path>
            <path d="M64.5,92.5 L64.5,0.494565378" stroke="#FFFFFF" stroke-width="10"></path>
            <g transform="translate(40.000000, 194.000000)">
                <path d="M10.0165406,0.0147000769 C10.0165406,-0.487919025 20.0330811,12.0184578 20.0330811,19.1160402 C20.0330811,26.2136227 15.8965777,29.4434286 10.0165406,32 C4.13650338,29.4434286 0,26.2136227 0,19.1160402 C0,12.0184578 10.1754855,0.463115158 10.0165406,0.0147000769 Z" fill="#333333"></path>
                <path d="M10.0976757,15 C12.5031454,16.1027038 14.1953514,18.7265401 14.1953514,21.7878788 C14.1953514,24.8492175 12.5031454,27.4730538 10.0976757,28.5757576 C7.69220593,27.4730538 6,24.8492175 6,21.7878788 C6,18.7265401 7.69220593,16.1027038 10.0976757,15 Z" fill="#FFFFFF"></path>
            </g>
            <path d="M27.5,51.5 L41.5,51.5" stroke="#FFFFFF" stroke-width="3" stroke-linecap="square"></path>
            <path d="M57.5,51.5 L71.5,51.5" stroke="#FFFFFF" stroke-width="3" stroke-linecap="square"></path>
        </g>
    </g>
</svg>