<svg
        id="Layer_1"
        data-name="Layer 1"
        xmlns="http://www.w3.org/2000/svg"
        width="36"
        height="36"
        viewBox="0 0 36 36"
        fill="#9957D3"
><title>winter-fuel</title><path d="M33.54,22.58l-3.4.88,2.39,1.4a1.46,1.46,0,0,1-.74,2.71,1.4,1.4,0,0,1-.74-.2L28.66,26l.88,3.4-2.9.75L25,23.81l-5.58-3.28L19.38,27l4.56,4.65-2.14,2.1-2.46-2.51,0,2.77a1.46,1.46,0,0,1-1.46,1.44h0A1.44,1.44,0,0,1,16.41,34l0-2.77-2.5,2.46-2.11-2.14L16.47,27l.05-6.47-5.36,3L9.43,29.82,6.53,29l.94-3.38L4.79,27.15a1.5,1.5,0,0,1-.71.18,1.45,1.45,0,0,1-.72-2.72L6,23.1l-3.39-.94.8-2.89L9.73,21l5.36-3L9.78,14.85l-6.3,1.63-.75-2.9,3.4-.88L3.47,11.13A1.45,1.45,0,1,1,5,8.63l2.66,1.56-.88-3.4L9.63,6l1.63,6.3,5.31,3.13.05-6.16L12.05,4.66l2.14-2.1,2.47,2.51,0-3.08A1.47,1.47,0,0,1,18.14.54h0A1.46,1.46,0,0,1,19.59,2l0,3.08,2.5-2.46,2.11,2.14L19.53,9.34l-.05,6.15,5.63-3.19L26.85,6l2.89.8-.94,3.38,2.41-1.36a1.46,1.46,0,0,1,1.43,2.54l-2.41,1.36,3.39.94-.8,2.89-6.28-1.74L20.91,18l5.58,3.29,6.3-1.63Z"/></svg>