<svg
        id="Layer_1"
        data-name="Layer 1"
        xmlns="http://www.w3.org/2000/svg"
        width="36"
        height="36"
        viewBox="0 0 36 36"
        fill="#F5A623"
><defs><style>.cls-1{fill-rule:evenodd;}</style></defs><title>fit</title><path class="cls-1" d="M20,7H16V2a2,2,0,0,1,4,0ZM16,34a2,2,0,0,0,4,0V29H16ZM8.81,11.64l2.83-2.83L8.1,5.27A2,2,0,0,0,5.27,8.1ZM27.19,24.36l-2.83,2.83,3.54,3.54a2,2,0,0,0,2.83-2.83ZM7,16H2a2,2,0,0,0,0,4H7Zm27,0H29v4h5a2,2,0,0,0,0-4ZM5.27,27.9A2,2,0,0,0,8.1,30.73l3.54-3.54L8.81,24.36ZM30.73,8.1A2,2,0,0,0,27.9,5.27L24.36,8.81l2.83,2.83ZM18,27a9,9,0,1,1,9-9A9,9,0,0,1,18,27Zm-2.81-5.75H21V20.07H17.43V18.19h2.74V17.05H17.43v-1c0-.85.44-1.38,1.17-1.38A1.67,1.67,0,0,1,20,15.5l1-.83a2.81,2.81,0,0,0-2.43-1.23A2.36,2.36,0,0,0,16.06,16v1h-.87v1.14h.87v1.94l-.87.26Z"/></svg>