<svg
        data-name="Layer 1"
        xmlns="http://www.w3.org/2000/svg"
        width="36"
        height="36"
        viewBox="0 0 36 36"
        fill="#7ED321"
><defs><style>.cls-1{fill-rule:evenodd;}</style></defs><path class="cls-1" d="M34.56,17.6a2,2,0,0,1-1.56.76,2,2,0,0,1-1.25-.44l-13.82-11-13.67,11A2,2,0,1,1,1.74,14.8l16.17-13,16.34,13A2,2,0,0,1,34.56,17.6ZM17.94,9.32,29.5,18.55V34H6.5V18.55ZM18,22.79a.5.5,0,0,0-.5.5v6.14l-3.17-2.74a.5.5,0,0,0-.66.76l4,3.43A.52.52,0,0,0,18,31a.47.47,0,0,0,.32-.12l4-3.43a.5.5,0,0,0-.64-.76l-3.18,2.7v-6.1A.5.5,0,0,0,18,22.79Z"/></svg>