<svg
        id="Layer_1"
        data-name="Layer 1"
        xmlns="http://www.w3.org/2000/svg"
        width="36"
        height="36"
        viewBox="0 0 36 36"
        fill="#F55700"
><defs><style>.cls-1{fill-rule:evenodd;}</style></defs><title>heating</title><path class="cls-1" d="M29.56,21.25a11.67,11.67,0,0,0-5.24-9.77.91.91,0,0,0-1.39.77v1.5a.9.9,0,1,1-1.8,0V10c0-5.18-3.59-7.23-6.09-8A.92.92,0,0,0,14,3.28a5,5,0,0,1,.52,2.12c0,2.91-2.49,5.49-3.77,6.62A11.71,11.71,0,0,0,7,17H7c-.11.3-.22.6-.31.9a.84.84,0,0,1,0,.17c-.07.25-.13.51-.18.77,0,.1-.05.2-.07.3,0,.3-.09.61-.12.92a.68.68,0,0,0,0,.14v0c0,.33-.05.66-.05,1,0,0,0,.08,0,.13h0A11.69,11.69,0,0,0,29.45,23a12.19,12.19,0,0,0,.1-1.58h0c0-.05,0-.09,0-.13Zm-19.29-8h0l.17-.13Zm7.6,16.22a4.43,4.43,0,0,1-4.43-4.44,4.38,4.38,0,0,1,1.3-3.13l3.13-3.14L21,21.93a4.43,4.43,0,0,1-3.14,7.57Z"/></svg>