<?xml version="1.0" encoding="UTF-8"?>
<svg viewBox="0 0 46 46" version="1.1" xmlns="http://www.w3.org/2000/svg" xmlns:xlink="http://www.w3.org/1999/xlink">
    <!-- Generator: Sketch 49.1 (51147) - http://www.bohemiancoding.com/sketch -->
        <desc>Created with Sketch.</desc>
    <defs></defs>
    <g id="icon/help-copy-3" stroke="none" stroke-width="1" fill="none" fill-rule="evenodd">
        <g id="Group-10" fill="#FFFFFF">
            <path d="M26,40 C14.954305,40 6,31.045695 6,20 C6,8.954305 14.954305,0 26,0 C37.045695,0 46,8.954305 46,20 C46,31.045695 37.045695,40 26,40 Z M23.024,20.04 L22.864,20.2 L23.6,25.384 L26.864,25.384 L27.216,23.432 C30.704,22.728 33.52,21.064 33.52,16.968 C33.52,12.68 30.384,10.312 25.776,10.312 C22.288,10.312 19.792,11.72 17.936,13.768 L20.88,17 C22.352,15.528 23.888,14.792 25.68,14.792 C27.536,14.792 28.624,15.624 28.624,17.096 C28.624,18.824 27.056,19.88 23.024,20.04 Z M27.728,33 L27.728,27.88 L22.544,27.88 L22.544,33 L27.728,33 Z" id="Combined-Shape"></path>
            <polygon id="Triangle" transform="translate(9.899495, 35.899495) rotate(-135.000000) translate(-9.899495, -35.899495) " points="9.89949494 28.8994949 16.8994949 42.8994949 2.89949494 42.8994949"></polygon>
        </g>
    </g>
</svg>