<svg
        id="Layer_1"
        data-name="Layer 1"
        xmlns="http://www.w3.org/2000/svg"
        width="36"
        height="36"
        viewBox="0 0 36 36"
        fill="#52CEA8"
><defs><style>.cls-1{fill-rule:evenodd;}</style></defs><title>home-improve</title><path class="cls-1" d="M34.56,17.6a2,2,0,0,1-1.56.76,2,2,0,0,1-1.25-.44l-13.82-11-13.67,11A2,2,0,1,1,1.74,14.8l16.17-13,16.34,13A2,2,0,0,1,34.56,17.6ZM6.5,18.55V34H16V26.91a4.47,4.47,0,0,1,0-8V22.8h4V18.89a4.47,4.47,0,0,1,0,8V34h9.5V18.55L17.94,9.32Z"/></svg>