<?xml version="1.0" encoding="UTF-8"?>
<svg width="156px" height="129px" viewBox="0 0 156 129" version="1.1" xmlns="http://www.w3.org/2000/svg" xmlns:xlink="http://www.w3.org/1999/xlink">
    <!-- Generator: Sketch 47.1 (45422) - http://www.bohemiancoding.com/sketch -->
        <desc>Created with Sketch.</desc>
    <defs></defs>
    <g stroke="none" stroke-width="1" fill="none" fill-rule="evenodd">
        <g fill="#FFFFFF">
            <g>
                <polygon points="78 0 0 81.6739315 29.0601153 81.6739315 29.0601153 129 36.0315978 129 36.0315978 74.635435 16.4114666 74.635435 78 10.1432555 139.588533 74.635435 119.964527 74.635435 119.964527 129 126.939885 129 126.939885 81.6739315 156 81.6739315"></polygon>
                <polygon points="26 70.6059159 40.2956648 70.6059159 40.2956648 129 47.316728 129 47.316728 63.5690711 42.5151009 63.5690711 78.4980497 26.1408753 114.480999 63.5690711 109.683272 63.5690711 109.683272 129 116.704335 129 116.704335 70.6059159 131 70.6059159 78.4980497 16"></polygon>
                <polygon points="50 60.9363442 50 129 57.1086285 129 57.1086285 63.7442891 77.5019757 43.0327948 97.8874201 63.7442891 97.8874201 129 105 129 105 60.9363442 77.5019757 33"></polygon>
                <polygon points="61 64.7234627 61 129 68.1991274 129 68.1991274 67.559537 77.5019998 58.1333012 86.8008726 67.559537 86.8008726 129 94 129 94 64.7234627 77.5019998 48"></polygon>
            </g>
        </g>
    </g>
</svg>