<svg
        data-name="Layer 1"
        xmlns="http://www.w3.org/2000/svg"
        width="36"
        height="36"
        viewBox="0 0 36 36"
        fill="#7ED321"
><path d="M33,18.36a2,2,0,0,1-1.25-.44l-13.82-11-13.67,11A2,2,0,1,1,1.74,14.8l16.17-13,16.34,13a2,2,0,0,1,.31,2.81A2,2,0,0,1,33,18.36Zm-3.5.19V34H6.5V18.55L17.94,9.32Zm-4,4.73a7.27,7.27,0,1,0-7.27,7.27A7.27,7.27,0,0,0,25.46,23.28ZM18.6,20.36a1.67,1.67,0,0,1,1.39.81l1-.83a2.81,2.81,0,0,0-2.43-1.23,2.36,2.36,0,0,0-2.53,2.59v1h-.87v1.14h.87V25.8l-.87.26v.86H21V25.74H17.43V23.86h2.74V22.72H17.43v-1C17.43,20.89,17.87,20.36,18.6,20.36Z"/></svg>