<svg
        data-name="Layer 1"
        xmlns="http://www.w3.org/2000/svg"
        width="36"
        height="36"
        viewBox="0 0 36 36"
        fill="#998776"
><defs><style>.cls-1{fill-rule:evenodd;}</style></defs><path class="cls-1" d="M34.56,17.6a2,2,0,0,1-1.56.76,2,2,0,0,1-1.25-.44l-13.82-11-13.67,11A2,2,0,1,1,1.74,14.8l16.17-13,16.34,13A2,2,0,0,1,34.56,17.6ZM17.94,9.32,29.5,18.55V34H6.5V18.55Zm-.3,6.59-4,3.43a.49.49,0,0,0-.05.7.51.51,0,0,0,.71.05l3.17-2.74V23.5a.5.5,0,0,0,1,0V17.39l3.18,2.71a.46.46,0,0,0,.32.11.52.52,0,0,0,.38-.17.51.51,0,0,0-.06-.71l-4-3.43A.51.51,0,0,0,17.64,15.91Z"/></svg>