<?xml version="1.0" encoding="UTF-8"?>
<svg viewBox="0 0 36 36" version="1.1" xmlns="http://www.w3.org/2000/svg" xmlns:xlink="http://www.w3.org/1999/xlink">
    <!-- Generator: Sketch 47.1 (45422) - http://www.bohemiancoding.com/sketch -->
        <desc>Created with Sketch.</desc>
    <defs></defs>
    <g stroke="none" stroke-width="1" fill="none" fill-rule="evenodd">
        <g>
            <g transform="translate(3.000000, -3.000000)">
                <path d="M2.66579653e-270,31.2091657 C3.58006639e-135,27.3412255 3.60592283,24.2056404 8.05405405,24.2056404 C12.5021853,24.2056404 16.1081081,27.3412255 16.1081081,31.2091657 L16.1081081,38.9130435 L0,38.9130435 L0,31.2091657 Z M8.09607521,22.8049354 C5.37304531,22.8049354 3.16559342,20.6100258 3.16559342,17.9024677 C3.16559342,15.1949095 5.37304531,13 8.09607521,13 C10.8191051,13 13.026557,15.1949095 13.026557,17.9024677 C13.026557,20.6100258 10.8191051,22.8049354 8.09607521,22.8049354 Z" fill="#4A4A4A"></path>
                <g transform="translate(10.000000, 10.000000)" fill="#4A4A4A">
                    <path d="M1.11781336,6.41460349 C0.592718763,6.4293352 0.171572875,6.85962798 0.171572875,7.38828465 C0.171572875,7.92624926 0.607679357,8.36235574 1.14564396,8.36235574 C1.67430064,8.36235574 2.10459341,7.94120985 2.11932512,7.41611525 L2.11971505,7.41611525 L2.11971505,6.41421356 L1.11781336,6.41421356 L1.11781336,6.41460349 Z"></path>
                    <path d="M7.82492014,0.121710276 C7.29982554,0.136441984 6.87867966,0.566734762 6.87867966,1.09539143 C6.87867966,1.63335604 7.31478614,2.06946252 7.85275075,2.06946252 C8.38140742,2.06946252 8.8117002,1.64831663 8.8264319,1.12322204 L8.82682184,1.12322204 L8.82682184,0.121320344 L7.82492014,0.121320344 L7.82492014,0.121710276 Z"></path>
                    <path d="M6.53202692,11.8288171 C6.00693233,11.8435488 5.58578644,12.2738415 5.58578644,12.8024982 C5.58578644,13.3404628 6.02189292,13.7765693 6.55985753,13.7765693 C7.0885142,13.7765693 7.51880698,13.3554234 7.53353868,12.8303288 L7.53392862,12.8303288 L7.53392862,11.8284271 L6.53202692,11.8284271 L6.53202692,11.8288171 Z"></path>
                    <path d="M12.8249201,5.12171028 C12.2998255,5.13644198 11.8786797,5.56673476 11.8786797,6.09539143 C11.8786797,6.63335604 12.3147861,7.06946252 12.8527507,7.06946252 C13.3814074,7.06946252 13.8117002,6.64831663 13.8264319,6.12322204 L13.8268218,6.12322204 L13.8268218,5.12132034 L12.8249201,5.12132034 L12.8249201,5.12171028 Z"></path>
                    <path d="M7.41806589,5.8864289 C6.8929713,5.90116061 6.47182541,6.33145339 6.47182541,6.86011006 C6.47182541,7.39807467 6.90793189,7.83418115 7.4458965,7.83418115 C7.97455317,7.83418115 8.40484595,7.41303526 8.41957765,6.88794066 L8.41996759,6.88794066 L8.41996759,5.88603897 L7.41806589,5.88603897 L7.41806589,5.8864289 Z"></path>
                </g>
                <g transform="translate(26.778175, 7.778175) rotate(45.000000) translate(-26.778175, -7.778175) translate(20.278175, 3.278175)" stroke="#4A4A4A" stroke-width="2">
                    <path d="M0.5,8 L12.5415946,8" stroke-linecap="round"></path>
                    <path d="M6,7.5 L6,0.428932188" stroke-linecap="square"></path>
                </g>
            </g>
        </g>
    </g>
</svg>