<svg id="Layer_1"
     data-name="Layer 1"
     xmlns="http://www.w3.org/2000/svg"
     width="36" height="36"
     viewBox="0 0 36 36"
     fill="#FF0066">
    <title>simple-savings</title>
    <path d="M14,4a4,4,0,1,1,4,4A4,4,0,0,1,14,4ZM36,18a4,4,0,0,1-4,4V21a10.5,10.5,0,0,1-4,8.05l-1,5.14A1,1,0,0,1,26,35H23a1,1,0,0,1-1-.81L21.6,32.1a16.4,16.4,0,0,1-7.2,0L14,34.19A1,1,0,0,1,13,35H10a1,1,0,0,1-1-.81L8,29.05a11.63,11.63,0,0,1-2.88-3.52l-3.36-.84a1,1,0,0,1-.77-1V18.29a1,1,0,0,1,.77-1l3.36-.84a11.36,11.36,0,0,1,2.53-3.2L6.28,9.49A1,1,0,0,1,7.64,8.23l4.77,2.23A16.65,16.65,0,0,1,18,9.5c7.73,0,14,5.15,14,11.5V20a2,2,0,0,0,2-2Zm-25.5-.5a1,1,0,1,0-1,1A1,1,0,0,0,10.5,17.5Z"/>
</svg>