<svg
        data-name="Layer 1"
        xmlns="http://www.w3.org/2000/svg"
        width="36"
        height="36"
        viewBox="0 0 36 36"
        fill="#F5A623"
><path d="M18,27a9,9,0,1,1,9-9A9,9,0,0,1,18,27ZM20,2a2,2,0,0,0-4,0V7h4ZM16,34a2,2,0,0,0,4,0V29H16ZM8.81,11.64l2.83-2.83L8.1,5.27A2,2,0,0,0,5.27,8.1ZM27.19,24.36l-2.83,2.83,3.54,3.54a2,2,0,0,0,2.83-2.83ZM7,16H2a2,2,0,0,0,0,4H7Zm27,0H29v4h5a2,2,0,0,0,0-4ZM5.27,27.9A2,2,0,0,0,8.1,30.73l3.54-3.54L8.81,24.36ZM30.73,8.1A2,2,0,0,0,27.9,5.27L24.36,8.81l2.83,2.83Z"/></svg>