<?xml version="1.0" encoding="UTF-8"?>
<svg width="12px" height="14px" viewBox="0 0 12 14" version="1.1" xmlns="http://www.w3.org/2000/svg" xmlns:xlink="http://www.w3.org/1999/xlink">
    <!-- Generator: Sketch 47.1 (45422) - http://www.bohemiancoding.com/sketch -->
    <desc>Created with Sketch.</desc>
    <defs></defs>
    <g id="Assets" stroke="none" stroke-width="1">
        <g id="icon/timer" >
            <g id="timer-copy-2">
                <path d="M5.81314879,4.43522267 C8.1384083,4.43522267 10.0612191,6.26315789 10.0612191,8.47368421 C10.0612191,10.6842105 8.1384083,12.5121457 5.81314879,12.5121457 C3.48788927,12.5121457 1.56507852,10.6842105 1.56507852,8.47368421 C1.56507852,6.26315789 3.48788927,4.43522267 5.81314879,4.43522267 L5.81314879,4.43522267 Z M5.81314879,2.94736842 C2.59355869,2.94736842 0,5.41295547 0,8.47368421 C0,11.534413 2.59355869,14 5.81314879,14 C9.03273889,14 11.6262976,11.534413 11.6262976,8.47368421 C11.6262976,5.41295547 9.03273889,2.94736842 5.81314879,2.94736842 L5.81314879,2.94736842 Z" id="Shape"></path>
                <rect id="Rectangle-path" transform="translate(10.173010, 3.684211) rotate(-44.991897) translate(-10.173010, -3.684211) " x="9.44636678" y="2.21052632" width="1.4532872" height="2.94736842"></rect>
                <path d="M5.81314879,2.94736842 C6.6366782,2.94736842 7.26643599,2.30877193 7.26643599,1.47368421 C7.26643599,0.638596491 6.6366782,0 5.81314879,0 C4.98961938,0 4.35986159,0.638596491 4.35986159,1.47368421 C4.35986159,2.30877193 4.98961938,2.94736842 5.81314879,2.94736842 Z M5.81314879,0.49122807 C6.34602076,0.49122807 6.78200692,0.933333333 6.78200692,1.47368421 C6.78200692,2.01403509 6.34602076,2.45614035 5.81314879,2.45614035 C5.28027682,2.45614035 4.84429066,2.01403509 4.84429066,1.47368421 C4.84429066,0.933333333 5.28027682,0.49122807 5.81314879,0.49122807 Z" id="Shape"></path>
                <polygon id="Shape" points="6.78200692 7.55094157 6.78200692 5.15789474 5.81314879 5.15789474 5.81314879 8.03766296 8.8650519 9.57894737 9.44636678 8.84886528"></polygon>
            </g>
        </g>
    </g>
</svg>