<?xml version="1.0" encoding="UTF-8"?>
<svg width="12px" height="14px" viewBox="0 0 12 14" version="1.1" xmlns="http://www.w3.org/2000/svg" xmlns:xlink="http://www.w3.org/1999/xlink">
    <!-- Generator: Sketch 47.1 (45422) - http://www.bohemiancoding.com/sketch -->
    <title>timer</title>
    <desc>Created with Sketch.</desc>
    <defs></defs>
    <g id="Supply" stroke="none" stroke-width="1" fill="none" fill-rule="evenodd">
        <g id="timer" fill-rule="nonzero" fill="#FFFFFF">
            <g>
                <path d="M5.76470588,4.43522267 C8.07058824,4.43522267 9.97737557,6.26315789 9.97737557,8.47368421 C9.97737557,10.6842105 8.07058824,12.5121457 5.76470588,12.5121457 C3.45882353,12.5121457 1.5520362,10.6842105 1.5520362,8.47368421 C1.5520362,6.26315789 3.45882353,4.43522267 5.76470588,4.43522267 L5.76470588,4.43522267 Z M5.76470588,2.94736842 C2.5719457,2.94736842 0,5.41295547 0,8.47368421 C0,11.534413 2.5719457,14 5.76470588,14 C8.95746606,14 11.5294118,11.534413 11.5294118,8.47368421 C11.5294118,5.41295547 8.95746606,2.94736842 5.76470588,2.94736842 L5.76470588,2.94736842 Z" id="Shape"></path>
                <rect id="Rectangle-path" transform="translate(10.088235, 3.684211) rotate(-44.991897) translate(-10.088235, -3.684211) " x="9.36764706" y="2.21052632" width="1.44117647" height="2.94736842"></rect>
                <path d="M5.76470588,2.94736842 C6.58137255,2.94736842 7.20588235,2.30877193 7.20588235,1.47368421 C7.20588235,0.638596491 6.58137255,0 5.76470588,0 C4.94803922,0 4.32352941,0.638596491 4.32352941,1.47368421 C4.32352941,2.30877193 4.94803922,2.94736842 5.76470588,2.94736842 Z M5.76470588,0.49122807 C6.29313725,0.49122807 6.7254902,0.933333333 6.7254902,1.47368421 C6.7254902,2.01403509 6.29313725,2.45614035 5.76470588,2.45614035 C5.23627451,2.45614035 4.80392157,2.01403509 4.80392157,1.47368421 C4.80392157,0.933333333 5.23627451,0.49122807 5.76470588,0.49122807 Z" id="Shape"></path>
                <polygon id="Shape" points="6.7254902 7.55094157 6.7254902 5.15789474 5.76470588 5.15789474 5.76470588 8.03766296 8.79117647 9.57894737 9.36764706 8.84886528"></polygon>
            </g>
        </g>
    </g>
</svg>