<svg
        id="Layer_1"
        data-name="Layer 1"
        xmlns="http://www.w3.org/2000/svg"
        width="36"
        height="36"
        viewBox="0 0 36 36"
        fill="#F55700"
><defs><style>.cls-1{fill-rule:evenodd;}</style></defs><title>warm-home</title><path class="cls-1" d="M34.56,17.6a2,2,0,0,1-1.56.76,2,2,0,0,1-1.25-.44l-13.82-11-13.67,11A2,2,0,1,1,1.74,14.8l16.17-13,16.34,13A2,2,0,0,1,34.56,17.6ZM17.94,9.32,29.5,18.55V34H6.5V18.55ZM18,17c.07.21-4.69,5.62-4.69,9S15.25,30.8,18,32c2.75-1.2,4.69-2.71,4.69-6S18,16.77,18,17Zm0,14a4.06,4.06,0,0,0,0-7,4.06,4.06,0,0,0,0,7Z"/></svg>