<?xml version="1.0" encoding="UTF-8"?>
<svg width="140px" height="123px" viewBox="0 0 140 123" version="1.1" xmlns="http://www.w3.org/2000/svg" xmlns:xlink="http://www.w3.org/1999/xlink">
    <!-- Generator: Sketch 47 (45396) - http://www.bohemiancoding.com/sketch -->
    <title>flat-p-full</title>
    <desc>Created with Sketch.</desc>
    <defs>
        <polygon id="path-1" points="2.13976 0.4375 0.73976 0.4375 0.73976 0.0421875 2.13976 0.0421875 2.13976 0.4375"></polygon>
    </defs>
    <g id="Supply" stroke="none" stroke-width="1" fill="none" fill-rule="evenodd">
        <g id="flat-p-full">
            <path d="M83,2 L83,2.051" id="Stroke-1" stroke="#939597" stroke-width="0.5" stroke-linecap="round" stroke-linejoin="round"></path>
            <path d="M83,5 L83,53" id="Stroke-2" stroke="#939597" stroke-width="0.5" stroke-linecap="round" stroke-linejoin="round" stroke-dasharray="0.099,1.983"></path>
            <path d="M83,55 L83,55.05" id="Stroke-3" stroke="#939597" stroke-width="0.5" stroke-linecap="round" stroke-linejoin="round"></path>
            <g id="Group-16" transform="translate(1.000000, 1.000000)">
                <polyline id="Stroke-172" stroke="#939597" stroke-width="0.5" stroke-linecap="round" stroke-linejoin="round" points="138.004 74.042 138.047 74.018 138 74"></polyline>
                <path d="M136,73 L84,54" id="Stroke-173" stroke="#939597" stroke-width="0.5" stroke-linecap="round" stroke-linejoin="round" stroke-dasharray="0.101,2.023"></path>
                <polyline id="Stroke-174" stroke="#939597" stroke-width="0.5" stroke-linecap="round" stroke-linejoin="round" points="82.09 55.017 82.043 55 82 55.025"></polyline>
                <path d="M80,55 L2,100" id="Stroke-175" stroke="#939597" stroke-width="0.5" stroke-linecap="round" stroke-linejoin="round" stroke-dasharray="0.1,2.001"></path>
                <polyline id="Stroke-176" stroke="#939597" stroke-width="0.5" stroke-linecap="round" stroke-linejoin="round" points="0.043 101 0 101.024 0.046 101.042"></polyline>
                <g id="Group-182" transform="translate(2.000000, 101.000000)">
                    <path d="M0.8491,0.33730625 L52.6099,19.6817437" id="Stroke-177" stroke="#939597" stroke-width="0.5" stroke-linecap="round" stroke-linejoin="round" stroke-dasharray="0.101,2.023"></path>
                    <g id="Group-181" transform="translate(53.200000, 20.125000)">
                        <mask id="mask-2" fill="white">
                            <use xlink:href="#path-1"></use>
                        </mask>
                        <g id="Clip-180"></g>
                        <polyline id="Stroke-179" stroke="#939597" stroke-width="0.5" stroke-linecap="round" stroke-linejoin="round" mask="url(#mask-2)" points="0.73976 0.0536875 0.80556 0.078125 0.86576 0.0421875"></polyline>
                    </g>
                </g>
                <path d="M59,119 L137,74" id="Stroke-183" stroke="#939597" stroke-width="0.5" stroke-linecap="round" stroke-linejoin="round" stroke-dasharray="0.1,2.001"></path>
                <polygon id="Fill-184" fill="#E5E6E7" points="139 38.3701748 82.7499797 18 0 65.7273578 56.924011 86"></polygon>
                <polygon id="Fill-185" fill="#58585B" points="82 18 82 35.2854615 138 56 138 38.6557063"></polygon>
                <path d="M0,48 L0,48.05" id="Stroke-186" stroke="#939597" stroke-width="0.5" stroke-linecap="round" stroke-linejoin="round"></path>
                <path d="M0,51 L0,99" id="Stroke-187" stroke="#939597" stroke-width="0.5" stroke-linecap="round" stroke-linejoin="round" stroke-dasharray="0.099,1.983"></path>
                <path d="M0,100 L0,100.05" id="Stroke-188" stroke="#939597" stroke-width="0.5" stroke-linecap="round" stroke-linejoin="round"></path>
                <path d="M138,21 L138,21.05" id="Stroke-189" stroke="#939597" stroke-width="0.5" stroke-linecap="round" stroke-linejoin="round"></path>
                <path d="M138,24 L138,72" id="Stroke-190" stroke="#939597" stroke-width="0.5" stroke-linecap="round" stroke-linejoin="round" stroke-dasharray="0.099,1.983"></path>
                <path d="M138,74 L138,74.05" id="Stroke-191" stroke="#939597" stroke-width="0.5" stroke-linecap="round" stroke-linejoin="round"></path>
                <polygon id="Fill-192" fill="#231F20" points="56 85.3543985 56 103 138 55.5693237 138 38"></polygon>
                <path d="M56,68 L56,68.05" id="Stroke-193" stroke="#939597" stroke-width="0.5" stroke-linecap="round" stroke-linejoin="round"></path>
                <path d="M56,71 L56,119" id="Stroke-194" stroke="#939597" stroke-width="0.5" stroke-linecap="round" stroke-linejoin="round" stroke-dasharray="0.099,1.983"></path>
                <polygon id="Fill-198" fill="#58585B" points="0 65.6153112 82 18 82 35.6259469 0 83"></polygon>
                <polyline id="Fill-199" fill="#231F20" points="56 86.2470549 0 66 0 83.5113505 56 104"></polyline>
                <polyline id="Stroke-200" stroke="#939597" stroke-width="0.5" stroke-linecap="round" stroke-linejoin="round" points="138.004 21.042 138.047 21.018 138 21"></polyline>
                <path d="M136,20 L84,1" id="Stroke-201" stroke="#939597" stroke-width="0.5" stroke-linecap="round" stroke-linejoin="round" stroke-dasharray="0.101,2.023"></path>
                <polyline id="Stroke-202" stroke="#939597" stroke-width="0.5" stroke-linecap="round" stroke-linejoin="round" points="82.09 0.017 82.043 0 82 0.025"></polyline>
                <path d="M80,2 L2,47" id="Stroke-203" stroke="#939597" stroke-width="0.5" stroke-linecap="round" stroke-linejoin="round" stroke-dasharray="0.1,2.001"></path>
                <polyline id="Stroke-204" stroke="#939597" stroke-width="0.5" stroke-linecap="round" stroke-linejoin="round" points="0.043 48 0 48.024 0.046 48.042"></polyline>
                <path d="M3,49 L55,68" id="Stroke-205" stroke="#939597" stroke-width="0.5" stroke-linecap="round" stroke-linejoin="round" stroke-dasharray="0.101,2.023"></path>
                <polyline id="Stroke-206" stroke="#939597" stroke-width="0.5" stroke-linecap="round" stroke-linejoin="round" points="56 68.008 56.047 68.025 56.09 68"></polyline>
                <path d="M59,67 L137,22" id="Stroke-207" stroke="#939597" stroke-width="0.5" stroke-linecap="round" stroke-linejoin="round" stroke-dasharray="0.1,2.001"></path>
            </g>
        </g>
    </g>
</svg>