<?xml version="1.0" encoding="UTF-8"?>
<svg width="48px" height="127px" viewBox="0 0 48 127" version="1.1" xmlns="http://www.w3.org/2000/svg" xmlns:xlink="http://www.w3.org/1999/xlink">
    <!-- Generator: Sketch 47 (45396) - http://www.bohemiancoding.com/sketch -->
    <title>lpg-gas</title>
    <desc>Created with Sketch.</desc>
    <defs></defs>
    <g id="Supply" stroke="none" stroke-width="1" fill="none" fill-rule="evenodd">
        <g id="lpg-gas">
            <g id="Group" transform="translate(0.000000, 8.000000)">
                <rect id="Rectangle-8" fill="#000000" x="0" y="9.65217391" width="48" height="101.347826" rx="11"></rect>
                <g id="Group-2" transform="translate(23.520000, 4.826087) rotate(-180.000000) translate(-23.520000, -4.826087) translate(18.240000, 0.000000)" fill="#000000">
                    <rect id="Rectangle-9" x="0" y="5.51552795" width="10.56" height="4.13664596"></rect>
                    <rect id="Rectangle-10" x="3.52" y="2.06832298" width="3.52" height="4.13664596"></rect>
                    <rect id="Rectangle" x="2.112" y="0" width="6.336" height="2.06832298"></rect>
                </g>
                <path d="M24.96,44.4146322 C24.96,43.9143349 35.52,56.3629378 35.52,63.4277324 C35.52,70.4925271 31.1590657,73.7074127 24.96,76.2521739 C18.7609343,73.7074127 14.4,70.4925271 14.4,63.4277324 C14.4,56.3629378 25.1275687,44.8609758 24.96,44.4146322 Z" id="Combined-Shape-Copy" fill="#FFFFFF"></path>
                <path d="M24.48,59.8086957 C27.0159814,60.9063054 28.8,63.5180208 28.8,66.5652174 C28.8,69.612414 27.0159814,72.2241293 24.48,73.3217391 C21.9440186,72.2241293 20.16,69.612414 20.16,66.5652174 C20.16,63.5180208 21.9440186,60.9063054 24.48,59.8086957 Z" id="Combined-Shape" fill="#000000"></path>
            </g>
            <rect id="Rectangle-11" stroke="#000000" stroke-width="3" x="10.5" y="2.5" width="25" height="25"></rect>
            <path d="M4.5,2.5 L43.5,2.5" id="Line" stroke="#000000" stroke-width="3" stroke-linecap="square"></path>
            <path d="M5.4875,124.5 L43.5125,124.5" id="Line-Copy" stroke="#000000" stroke-width="3" stroke-linecap="square"></path>
        </g>
    </g>
</svg>