<?xml version="1.0" encoding="UTF-8"?>
<svg width="127px" height="61px" viewBox="0 0 127 61" version="1.1" xmlns="http://www.w3.org/2000/svg" xmlns:xlink="http://www.w3.org/1999/xlink">
    <!-- Generator: Sketch 47 (45396) - http://www.bohemiancoding.com/sketch -->
    <title>mains-gas</title>
    <desc>Created with Sketch.</desc>
    <defs></defs>
    <g id="Supply" stroke="none" stroke-width="1" fill="none" fill-rule="evenodd">
        <g id="mains-gas">
            <path d="M2,38 L17,38" id="Line-Copy-2" stroke="#000000" stroke-width="3" stroke-linecap="square"></path>
            <path d="M36,9 L36,24" id="Line-Copy-4" stroke="#000000" stroke-width="3" stroke-linecap="square"></path>
            <path d="M92,9 L92,24" id="Line-Copy-5" stroke="#000000" stroke-width="3" stroke-linecap="square"></path>
            <path d="M110,38 L125,38" id="Line-Copy-3" stroke="#000000" stroke-width="3" stroke-linecap="square"></path>
            <path d="M10,61 L10,26 L10,26 C10,20.4771525 14.4771525,16 20,16 L108,16 L108,16 C113.522847,16 118,20.4771525 118,26 L118,61" id="Path-3" stroke="#000000" stroke-width="10"></path>
            <g id="Group-2" transform="translate(64.500000, 5.000000) rotate(-180.000000) translate(-64.500000, -5.000000) translate(59.000000, 0.000000)" fill="#000000">
                <rect id="Rectangle-9" x="0" y="5.71428571" width="11" height="4.28571429"></rect>
                <rect id="Rectangle-10" x="3.66666667" y="2.14285714" width="3.66666667" height="4.28571429"></rect>
                <rect id="Rectangle" x="2.2" y="0" width="6.6" height="2.14285714"></rect>
            </g>
        </g>
    </g>
</svg>