<svg id="Layer_2" data-name="Layer 2" xmlns="http://www.w3.org/2000/svg" width="120" height="108" viewBox="0 0 120 108"><defs><style>.cls-1,.cls-2,.cls-3,.cls-4{fill:none;stroke:#ddd;stroke-linecap:round;stroke-linejoin:round;}.cls-2{stroke-dasharray:0.1 3.04;}.cls-3{stroke-dasharray:0.1 2.96;}.cls-4{stroke-dasharray:0.1 3.06;}.cls-5{fill:#aff;stroke:#aff;}.cls-5,.cls-6{stroke-miterlimit:10;}.cls-6{fill:#2a759b;stroke:#2a759b;}</style></defs><title>flat-p-1ex_1</title><polyline class="cls-1" points="117.96 19.38 118 19.35 117.95 19.34"/><line class="cls-2" x1="115.1" y1="18.3" x2="72.29" y2="2.71"/><polyline class="cls-1" points="70.86 2.19 70.81 2.18 70.77 2.2"/><line class="cls-3" x1="68.21" y1="3.68" x2="3.32" y2="41.18"/><polyline class="cls-1" points="2.04 41.92 2 41.94 2.05 41.96"/><line class="cls-2" x1="4.9" y1="43" x2="47.71" y2="58.58"/><polyline class="cls-1" points="49.14 59.1 49.19 59.12 49.23 59.09"/><line class="cls-3" x1="51.79" y1="57.61" x2="116.68" y2="20.12"/><polyline class="cls-1" points="117.96 48.91 118 48.89 117.95 48.87"/><line class="cls-2" x1="115.1" y1="47.83" x2="72.29" y2="32.25"/><polyline class="cls-1" points="70.86 31.73 70.81 31.71 70.77 31.74"/><line class="cls-3" x1="68.21" y1="33.22" x2="3.32" y2="70.72"/><polyline class="cls-1" points="2.04 71.45 2 71.48 2.05 71.5"/><line class="cls-2" x1="4.9" y1="72.54" x2="47.71" y2="88.12"/><polyline class="cls-1" points="49.14 88.64 49.19 88.66 49.23 88.63"/><line class="cls-3" x1="51.79" y1="87.15" x2="116.68" y2="49.65"/><polyline class="cls-1" points="117.96 63.68 118 63.66 117.95 63.64"/><line class="cls-2" x1="115.1" y1="62.6" x2="72.29" y2="47.02"/><polyline class="cls-1" points="70.86 46.5 70.81 46.48 70.77 46.51"/><line class="cls-3" x1="68.21" y1="47.99" x2="3.32" y2="85.48"/><polyline class="cls-1" points="2.04 86.22 2 86.25 2.05 86.27"/><line class="cls-2" x1="4.9" y1="87.3" x2="47.71" y2="102.89"/><polyline class="cls-1" points="49.14 103.41 49.19 103.42 49.23 103.4"/><line class="cls-3" x1="51.79" y1="101.92" x2="116.68" y2="64.42"/><line class="cls-1" x1="2" y1="41.94" x2="2" y2="41.99"/><line class="cls-4" x1="2" y1="45.06" x2="2" y2="84.67"/><line class="cls-1" x1="2" y1="86.2" x2="2" y2="86.25"/><line class="cls-1" x1="70.57" y1="2.72" x2="70.57" y2="2.77"/><line class="cls-4" x1="70.57" y1="5.83" x2="70.57" y2="45.44"/><line class="cls-1" x1="70.57" y1="46.97" x2="70.57" y2="47.02"/><line class="cls-1" x1="48.95" y1="59" x2="48.95" y2="59.05"/><line class="cls-4" x1="48.95" y1="62.12" x2="48.95" y2="101.73"/><line class="cls-1" x1="48.95" y1="103.26" x2="48.95" y2="103.31"/><line class="cls-1" x1="118" y1="19.79" x2="118" y2="19.84"/><line class="cls-4" x1="118" y1="22.9" x2="118" y2="62.51"/><line class="cls-1" x1="118" y1="64.05" x2="118" y2="64.1"/><polyline class="cls-5" points="76.24 58.22 59.88 52.93 59.88 67.5 76.24 72.99"/><polygon class="cls-5" points="95.03 47.43 79.02 41.85 59.88 52.93 76.24 58.22 95.03 47.43"/><polygon class="cls-5" points="79.02 41.78 79.02 56.37 95.03 62.06 95.03 47.43 79.02 41.78"/><polyline class="cls-1" points="117.96 34.15 118 34.12 117.95 34.1"/><line class="cls-2" x1="115.1" y1="33.06" x2="72.29" y2="17.48"/><polyline class="cls-1" points="70.86 16.96 70.81 16.95 70.77 16.97"/><line class="cls-3" x1="68.21" y1="18.45" x2="3.32" y2="55.95"/><polyline class="cls-1" points="2.04 56.69 2 56.71 2.05 56.73"/><line class="cls-2" x1="4.9" y1="57.77" x2="47.71" y2="73.35"/><polyline class="cls-1" points="49.14 73.87 49.19 73.89 49.23 73.86"/><line class="cls-3" x1="51.79" y1="72.38" x2="116.68" y2="34.89"/><polygon class="cls-6" points="76.24 58.22 76.24 72.99 95.03 62.13 95.03 47.43 76.24 58.22"/></svg>