<svg id="Layer_2" data-name="Layer 2" xmlns="http://www.w3.org/2000/svg" width="120" height="108" viewBox="0 0 120 108"><defs><style>.cls-1,.cls-2,.cls-3,.cls-4{fill:none;stroke:#ddd;stroke-linecap:round;}.cls-1,.cls-2,.cls-3,.cls-4,.cls-6,.cls-7{stroke-linejoin:round;}.cls-2{stroke-dasharray:0.1 3.05;}.cls-3{stroke-dasharray:0.1 3.02;}.cls-4{stroke-dasharray:0.1 2.94;}.cls-5{fill:#aff;stroke:#aff;stroke-miterlimit:10;}.cls-6{fill:#00aacd;stroke:#00aacd;}.cls-7{fill:#2a759b;stroke:#2a759b;}</style></defs><title>flat-p-4ex_1</title><line class="cls-1" x1="71.03" y1="2.72" x2="71.03" y2="2.77"/><line class="cls-2" x1="71.03" y1="5.82" x2="71.03" y2="45.24"/><line class="cls-1" x1="71.03" y1="46.77" x2="71.03" y2="46.82"/><polyline class="cls-1" points="117.96 63.4 118 63.37 117.95 63.36"/><line class="cls-3" x1="115.11" y1="62.32" x2="72.5" y2="46.81"/><polyline class="cls-1" points="71.08 46.3 71.03 46.28 70.99 46.3"/><line class="cls-4" x1="68.44" y1="47.78" x2="3.85" y2="85.1"/><polyline class="cls-1" points="2.58 85.84 2.53 85.86 2.58 85.88"/><line class="cls-3" x1="5.42" y1="86.91" x2="48.04" y2="102.42"/><polyline class="cls-1" points="49.46 102.94 49.5 102.96 49.55 102.93"/><line class="cls-4" x1="52.1" y1="101.46" x2="116.68" y2="64.14"/><line class="cls-1" x1="2.53" y1="41.76" x2="2.53" y2="41.81"/><line class="cls-2" x1="2.53" y1="44.86" x2="2.53" y2="84.29"/><line class="cls-1" x1="2.53" y1="85.81" x2="2.53" y2="85.86"/><line class="cls-1" x1="118" y1="19.71" x2="118" y2="19.76"/><line class="cls-2" x1="118" y1="22.81" x2="118" y2="62.24"/><line class="cls-1" x1="118" y1="63.76" x2="118" y2="63.81"/><polygon class="cls-5" points="118 33.91 71.06 16.95 2 56.68 49.5 73.56 118 33.91"/><polygon class="cls-6" points="70.83 16.62 70.83 31.14 118 48.54 118 33.97 70.83 16.62"/><polygon class="cls-6" points="2.53 56.59 71.03 16.88 71.03 31.58 2.53 71.09 2.53 56.59"/><polyline class="cls-1" points="117.96 19.3 118 19.27 117.95 19.26"/><line class="cls-3" x1="115.11" y1="18.22" x2="72.5" y2="2.71"/><polyline class="cls-1" points="71.08 2.19 71.03 2.18 70.99 2.2"/><line class="cls-4" x1="68.44" y1="3.68" x2="3.85" y2="41"/><polyline class="cls-1" points="2.58 41.73 2.53 41.76 2.58 41.78"/><line class="cls-3" x1="5.42" y1="42.81" x2="48.04" y2="58.32"/><polyline class="cls-1" points="49.46 58.84 49.5 58.86 49.55 58.83"/><line class="cls-4" x1="52.1" y1="57.36" x2="116.68" y2="20.03"/><line class="cls-1" x1="49.27" y1="58.74" x2="49.27" y2="58.79"/><line class="cls-2" x1="49.27" y1="61.84" x2="49.27" y2="101.27"/><line class="cls-1" x1="49.27" y1="102.79" x2="49.27" y2="102.84"/><polygon class="cls-7" points="49.29 73.35 49.29 88.06 118 48.54 118 33.91 49.29 73.35"/><polyline class="cls-7" points="49.29 73.35 2.53 56.59 2.53 71.09 49.29 88.06"/></svg>